<?xml version="1.0" standalone="no"?>
<!DOCTYPE svg PUBLIC "-//W3C//DTD SVG 1.1//EN" "http://www.w3.org/Graphics/SVG/1.1/DTD/svg11.dtd" >
<svg xmlns="http://www.w3.org/2000/svg" xmlns:xlink="http://www.w3.org/1999/xlink" version="1.1">
<metadata>
Created by FontForge 20190801 at Sat Jan 11 13:31:30 2020
 By root
Copyright \(c\) 2019 by Rene Bieder. All rights reserved.
</metadata>
<defs>
<font id="Faktum-WideMedium" horiz-adv-x="680" >
  <font-face 
    font-family="Faktum"
    font-weight="500"
    font-stretch="expanded"
    units-per-em="1000"
    panose-1="2 11 0 3 3 2 2 6 2 3"
    ascent="800"
    descent="-200"
    x-height="480"
    cap-height="700"
    bbox="-650 -235 2200 964"
    underline-thickness="67"
    underline-position="-203"
    stemh="93"
    stemv="102"
    unicode-range="U+0020-FB02"
  />
<missing-glyph horiz-adv-x="600" 
d="M80 0v700h440v-700h-440zM301 387l158 273h-317zM117 71l162 279l-162 279v-558zM484 71v558l-162 -279zM301 313l-159 -273h317z" />
    <glyph glyph-name=".notdef" horiz-adv-x="600" 
d="M80 0v700h440v-700h-440zM301 387l158 273h-317zM117 71l162 279l-162 279v-558zM484 71v558l-162 -279zM301 313l-159 -273h317z" />
    <glyph glyph-name="null" horiz-adv-x="0" 
 />
    <glyph glyph-name="nonmarkingreturn" horiz-adv-x="333" 
 />
    <glyph glyph-name="space" unicode=" " horiz-adv-x="250" 
 />
    <glyph glyph-name="exclam" unicode="!" horiz-adv-x="293" 
d="M97 426l-8 274h115l-8 -274l-20 -202h-59zM148 -5c-45 0 -71 26 -71 71c-1 45 24 70 71 70s71 -23 72 -70c1 -45 -25 -71 -72 -71z" />
    <glyph glyph-name="quotedbl" unicode="&#x22;" horiz-adv-x="394" 
d="M70 406l-20 294h108l-20 -294h-68zM256 406l-20 294h108l-20 -294h-68z" />
    <glyph glyph-name="numbersign" unicode="#" horiz-adv-x="723" 
d="M696 520v-66h-152l-52 -203h175v-66h-192l-48 -185h-68l48 185h-184l-48 -185h-68l47 185h-120v66h137l52 203h-160v66h177l46 180h69l-46 -180h184l46 180h69l-47 -180h135zM240 251h184l52 203h-184z" />
    <glyph glyph-name="dollar" unicode="$" horiz-adv-x="696" 
d="M656 204c0 -61 -24 -111 -73 -150s-114 -60 -197 -63l3 -131h-84l4 132c-159 13 -249 87 -269 221l108 31c12 -108 64 -152 163 -161l7 224l-52 9c-56 9 -93 21 -136 49c-44 27 -67 76 -67 143c0 113 97 190 246 201l-4 128h84l-3 -129c161 -11 252 -89 257 -222
l-101 -30c1 113 -52 154 -159 162l-6 -219l67 -11c64 -11 107 -23 149 -50c42 -28 63 -73 63 -134zM205 592c-21 -15 -32 -41 -32 -76s10 -60 31 -73c20 -13 53 -24 100 -31l13 -2l-6 208c-50 -2 -85 -11 -106 -26zM377 297l6 -216c120 3 164 31 164 108c0 36 -10 60 -29 72
c-19 11 -59 22 -120 32z" />
    <glyph glyph-name="percent" unicode="%" horiz-adv-x="985" 
d="M254 345c-59 0 -109 17 -150 52c-41 34 -61 78 -61 132c0 53 20 96 61 130s91 51 150 51s108 -17 149 -51c40 -34 60 -77 60 -130c0 -54 -20 -98 -61 -132c-41 -35 -90 -52 -148 -52zM460 357l241 343h91l-266 -351l-248 -349h-91zM132 529c0 -69 41 -103 122 -103
s122 34 122 103c0 67 -41 100 -122 100s-122 -33 -122 -100zM733 -10c-59 0 -109 17 -150 52c-41 34 -61 78 -61 132c0 53 20 96 61 130s91 51 150 51s108 -17 149 -51c40 -34 60 -77 60 -130c0 -54 -20 -98 -61 -132c-41 -35 -90 -52 -148 -52zM611 174
c0 -69 41 -103 122 -103s122 34 122 103c0 67 -41 101 -122 101s-122 -34 -122 -101z" />
    <glyph glyph-name="ampersand" unicode="&#x26;" horiz-adv-x="788" 
d="M632 125l142 -125h-130l-120 105c-27 -77 -101 -115 -223 -115c-160 0 -248 69 -248 189c0 95 64 145 171 188c-72 64 -102 104 -102 163c0 55 21 98 63 131c41 33 94 49 158 49c131 0 218 -68 218 -175c0 -91 -52 -143 -173 -194l174 -154c23 21 62 59 119 116l69 -65z
M472 538c0 61 -43 92 -128 92s-128 -32 -128 -96c0 -16 3 -30 12 -45s13 -22 30 -37c16 -15 18 -17 39 -33c10 -9 17 -14 20 -17c108 41 155 79 155 136zM329 78c63 0 118 17 166 52l-201 176c-84 -28 -137 -60 -137 -121c0 -71 57 -107 172 -107z" />
    <glyph glyph-name="quotesingle" unicode="'" horiz-adv-x="208" 
d="M70 406l-20 294h108l-20 -294h-68z" />
    <glyph glyph-name="parenleft" unicode="(" horiz-adv-x="362" 
d="M353 -100h-86c-123 112 -194 269 -194 436s70 322 193 434h86c-112 -115 -177 -269 -177 -434c0 -164 65 -319 178 -436z" />
    <glyph glyph-name="parenright" unicode=")" horiz-adv-x="362" 
d="M95 -100h-87c113 117 178 272 178 436c0 165 -65 319 -177 434h87c123 -112 192 -267 192 -434s-72 -324 -193 -436z" />
    <glyph glyph-name="asterisk" unicode="*" horiz-adv-x="366" 
d="M296 675l34 -59l-118 -45l118 -47l-34 -57l-98 80l19 -125h-66l18 125l-98 -80l-34 57l119 47l-119 45l34 59l98 -80l-18 125h66l-19 -124z" />
    <glyph glyph-name="plus" unicode="+" 
d="M295 43v198h-196v88h196v198h91v-198h196v-88h-196v-198h-91z" />
    <glyph glyph-name="comma" unicode="," horiz-adv-x="255" 
d="M128 136c47 0 71 -23 72 -69c0 -19 -6 -40 -19 -63l-83 -148h-99l125 139c-41 1 -68 29 -69 72c-1 44 26 69 73 69z" />
    <glyph glyph-name="hyphen" unicode="-" horiz-adv-x="429" 
d="M63 241v89h303v-89h-303z" />
    <glyph glyph-name="period" unicode="." horiz-adv-x="255" 
d="M128 -5c-47 0 -71 24 -72 71c0 47 24 70 72 70c47 0 71 -23 72 -70c0 -47 -24 -71 -72 -71z" />
    <glyph glyph-name="slash" unicode="/" horiz-adv-x="456" 
d="M79 -100h-102l210 457l186 413h101l-205 -446z" />
    <glyph glyph-name="zero" unicode="0" horiz-adv-x="670" 
d="M334 710c192 0 308 -132 308 -361c0 -228 -116 -359 -308 -359c-95 0 -169 31 -224 94s-82 151 -82 265c0 115 27 204 82 267s129 94 224 94zM334 83c77 0 129 19 157 56s42 107 42 210s-14 174 -42 212c-28 37 -80 56 -157 56c-75 0 -127 -19 -155 -56
c-28 -38 -42 -109 -42 -212s14 -173 42 -210s80 -56 155 -56z" />
    <glyph glyph-name="one" unicode="1" horiz-adv-x="488" 
d="M29 586l269 114h100v-700h-105v632l-211 -139z" />
    <glyph glyph-name="two" unicode="2" horiz-adv-x="650" 
d="M368 201l-211 -109h450v-92h-551v91l255 169c109 72 180 143 180 224c0 87 -54 131 -162 131c-125 0 -182 -64 -162 -207l-113 12c-9 92 11 163 62 214c50 51 121 76 212 76c82 0 148 -20 198 -60c49 -40 74 -93 74 -158c0 -117 -77 -214 -232 -291z" />
    <glyph glyph-name="three" unicode="3" horiz-adv-x="650" 
d="M433 365c117 -19 183 -86 183 -174c0 -59 -26 -107 -78 -144c-53 -38 -121 -57 -204 -57c-175 0 -287 84 -295 227l112 11c6 -96 69 -144 188 -144c113 0 170 39 170 118c0 75 -67 115 -191 114l-65 -1v93l66 -1c109 0 164 35 164 104c0 70 -50 105 -151 105
c-112 0 -165 -38 -164 -146l-110 12c-3 149 103 228 272 228c75 0 136 -17 185 -51c49 -35 73 -79 73 -132c0 -77 -54 -135 -155 -162z" />
    <glyph glyph-name="four" unicode="4" horiz-adv-x="655" 
d="M538 265h102v-92h-102v-173h-105v173h-400v98c103 114 156 257 159 429h124c-16 -176 -76 -311 -208 -447l327 11l13 326h90v-325z" />
    <glyph glyph-name="five" unicode="5" horiz-adv-x="643" 
d="M370 467c73 0 132 -21 177 -63c44 -43 66 -99 66 -170c0 -73 -26 -132 -79 -177s-124 -67 -211 -67c-147 0 -261 68 -289 193l105 33c15 -87 77 -131 184 -131c122 0 183 50 183 149c0 97 -53 143 -165 143c-84 0 -144 -33 -179 -98l-98 22l37 399h474v-92h-204l-177 14
l-28 -272c31 77 113 117 204 117z" />
    <glyph glyph-name="six" unicode="6" horiz-adv-x="652" 
d="M378 472c70 0 129 -22 176 -66s70 -101 70 -171c0 -74 -27 -133 -80 -178c-54 -45 -123 -67 -208 -67s-155 23 -208 68s-80 105 -80 179c0 62 21 127 62 195s118 157 230 268h153c-11 -9 -31 -25 -58 -47c-28 -23 -47 -38 -57 -46c-11 -9 -27 -23 -48 -42
c-46 -41 -61 -60 -102 -106c-19 -22 -39 -46 -58 -71c58 56 127 84 208 84zM335 83c123 0 184 50 184 151c0 102 -61 153 -184 153c-122 0 -183 -51 -183 -153c0 -101 61 -151 183 -151z" />
    <glyph glyph-name="seven" unicode="7" horiz-adv-x="547" 
d="M12 608v92h530v-91c-101 -109 -173 -208 -218 -297s-68 -193 -71 -312h-131c10 116 42 222 97 318c54 96 134 193 240 290h-447z" />
    <glyph glyph-name="eight" unicode="8" horiz-adv-x="659" 
d="M425 366c115 -17 193 -80 193 -177c0 -61 -26 -109 -78 -145c-53 -36 -122 -54 -209 -54s-157 18 -210 55c-53 36 -79 85 -79 146c0 95 76 157 191 174c-108 21 -165 78 -165 157c0 57 24 103 72 137s112 51 191 51s142 -17 190 -51c47 -34 71 -80 71 -137
c0 -81 -60 -136 -167 -156zM331 622c-105 0 -158 -35 -158 -106s53 -106 158 -106c104 0 156 35 156 106s-52 106 -156 106zM331 80c119 0 178 40 178 120c0 81 -60 121 -179 121c-120 0 -180 -40 -180 -121c0 -80 60 -120 181 -120z" />
    <glyph glyph-name="nine" unicode="9" horiz-adv-x="652" 
d="M316 710c85 0 155 -23 208 -68s80 -105 80 -179c0 -62 -21 -127 -62 -195s-118 -157 -230 -268h-153c11 9 31 25 59 48c27 22 46 37 57 46c10 8 26 22 48 41c45 41 60 60 101 106c19 22 39 46 58 71c-58 -56 -127 -84 -208 -84c-70 0 -128 22 -175 66s-71 101 -71 171
c0 74 27 133 81 178c53 45 122 67 207 67zM317 313c122 0 183 51 183 153c0 101 -61 151 -183 151c-123 0 -184 -50 -184 -151c0 -102 61 -153 184 -153z" />
    <glyph glyph-name="colon" unicode=":" horiz-adv-x="255" 
d="M128 490c48 0 72 -23 72 -70c-1 -47 -25 -70 -72 -70c-48 0 -72 23 -72 70c1 47 25 70 72 70zM128 -5c-47 0 -71 24 -72 71c0 47 24 70 72 70c47 0 71 -23 72 -70c0 -47 -24 -71 -72 -71z" />
    <glyph glyph-name="semicolon" unicode=";" horiz-adv-x="255" 
d="M128 350c-48 0 -72 23 -72 70c1 47 25 70 72 70c48 0 72 -23 72 -70c-1 -47 -25 -70 -72 -70zM128 136c47 0 71 -23 72 -69c0 -19 -6 -40 -19 -63l-83 -148h-99l125 139c-41 1 -68 29 -69 72c-1 44 26 69 73 69z" />
    <glyph glyph-name="less" unicode="&#x3c;" 
d="M527 514v-104l-222 -94l-117 -38l114 -37l225 -94v-103l-406 192v86z" />
    <glyph glyph-name="equal" unicode="=" 
d="M578 337h-476v85h476v-85zM578 142h-476v85h476v-85z" />
    <glyph glyph-name="greater" unicode="&#x3e;" 
d="M153 410v104l406 -192v-86l-406 -192v103l225 94l114 37l-117 38z" />
    <glyph glyph-name="question" unicode="?" horiz-adv-x="594" 
d="M133 475l-104 14c0 160 121 221 265 221c75 0 137 -18 185 -55c47 -37 71 -86 71 -145c0 -61 -29 -111 -80 -143c-51 -33 -92 -49 -152 -66v-78h-91v34c0 134 219 112 219 245c0 73 -52 110 -155 110c-105 0 -159 -37 -158 -137zM272 -5c-45 0 -71 26 -71 71
c-1 45 24 70 71 70s71 -23 72 -70c1 -45 -25 -71 -72 -71z" />
    <glyph glyph-name="at" unicode="@" horiz-adv-x="1008" 
d="M618 391v83h85v-253c0 -43 24 -69 64 -69c36 0 65 16 86 48c21 31 32 70 32 116c0 102 -31 184 -92 246c-62 61 -153 92 -273 92c-125 0 -222 -34 -290 -101c-69 -68 -103 -157 -103 -268c0 -109 35 -196 104 -262c69 -67 167 -100 295 -100c67 0 125 9 173 27
s98 47 149 86l33 -53c-110 -79 -227 -118 -352 -118c-137 0 -250 40 -339 119c-89 80 -133 180 -133 301c0 122 44 223 132 304c87 81 197 121 330 121c123 0 226 -37 309 -111c82 -74 123 -167 123 -279c0 -68 -17 -123 -52 -165c-35 -43 -82 -64 -141 -64
c-75 0 -118 36 -129 107c-17 -69 -80 -108 -155 -108c-59 0 -106 18 -142 55c-37 36 -55 83 -55 142c0 58 18 105 55 141s84 54 143 54c64 0 126 -34 143 -91zM495 167c84 0 126 40 126 120c0 81 -42 121 -127 121s-128 -40 -128 -120c0 -81 43 -121 129 -121z" />
    <glyph glyph-name="A" unicode="A" horiz-adv-x="791" 
d="M778 0h-115l-81 183h-374l-81 -183h-114l310 700h146zM348 500l-99 -223h292l-99 223l-46 115z" />
    <glyph glyph-name="B" unicode="B" horiz-adv-x="747" 
d="M525 360c121 -15 178 -78 178 -163c0 -120 -86 -197 -215 -197h-398v700h376c128 0 209 -69 209 -176c0 -86 -50 -141 -150 -164zM457 608h-262v-208h259c73 0 109 37 109 110c0 65 -35 98 -106 98zM195 92h276c80 0 120 39 120 116c0 69 -43 103 -129 103h-267v-219z
" />
    <glyph glyph-name="C" unicode="C" horiz-adv-x="861" 
d="M444 87c93 0 160 15 199 44s65 83 77 162l104 -25c-32 -181 -161 -278 -380 -278c-119 0 -215 34 -288 101c-74 67 -111 154 -111 261s37 193 111 259c73 66 169 99 288 99c219 0 348 -97 380 -278l-104 -25c-12 79 -38 134 -77 163s-106 43 -199 43
c-106 0 -181 -20 -224 -59s-65 -107 -65 -202c0 -97 22 -166 65 -205c43 -40 118 -60 224 -60z" />
    <glyph glyph-name="D" unicode="D" horiz-adv-x="848" 
d="M426 0h-336v700h336c117 0 209 -32 276 -95c67 -64 101 -149 101 -255s-34 -191 -101 -254c-67 -64 -159 -96 -276 -96zM196 606v-512h228c99 0 168 19 209 58s61 105 61 198s-20 159 -61 198s-110 58 -209 58h-228z" />
    <glyph glyph-name="E" unicode="E" horiz-adv-x="676" 
d="M613 700v-97h-418v-177h397v-96h-397v-233h418v-97h-523v700h523z" />
    <glyph glyph-name="F" unicode="F" horiz-adv-x="644" 
d="M604 700v-98h-408v-183h390v-99h-390v-320h-106v700h514z" />
    <glyph glyph-name="G" unicode="G" horiz-adv-x="886" 
d="M507 274v91h311v-365h-95l1 156c-37 -111 -134 -166 -289 -166c-117 0 -211 34 -282 102c-72 67 -108 154 -108 260c0 108 36 195 109 260s172 98 299 98c196 0 326 -85 358 -244l-95 -41c-16 70 -43 119 -82 147c-39 27 -100 41 -183 41c-107 0 -183 -20 -228 -60
s-68 -107 -68 -202c0 -96 23 -164 69 -205c45 -41 122 -62 229 -62c167 0 256 63 265 190h-211z" />
    <glyph glyph-name="H" unicode="H" horiz-adv-x="824" 
d="M628 411v289h106v-700h-106v314h-432v-314h-106v700h106v-289h432z" />
    <glyph glyph-name="I" unicode="I" horiz-adv-x="287" 
d="M197 0h-107v700h107v-700z" />
    <glyph glyph-name="J" unicode="J" horiz-adv-x="681" 
d="M42 238l109 16c-3 -65 8 -109 33 -132c24 -23 69 -35 135 -35s112 11 137 32s37 60 37 116v465h106v-460c0 -164 -97 -250 -277 -250c-89 0 -156 18 -203 55c-47 36 -73 100 -77 193z" />
    <glyph glyph-name="K" unicode="K" horiz-adv-x="765" 
d="M750 0h-133l-243 363l-177 -165v-198h-107v700h107v-399l128 144l266 255h144l-281 -262z" />
    <glyph glyph-name="L" unicode="L" horiz-adv-x="621" 
d="M197 700v-606h400v-94h-507v700h107z" />
    <glyph glyph-name="M" unicode="M" horiz-adv-x="1046" 
d="M594 278l182 422h180v-700h-105v606l-33 -96l-231 -510h-128l-231 510l-33 92v-602h-105v700h180l182 -422l71 -178z" />
    <glyph glyph-name="N" unicode="N" horiz-adv-x="869" 
d="M672 111v589h107v-700h-150l-359 479l-73 106v-585h-107v700h151l357 -476z" />
    <glyph glyph-name="O" unicode="O" horiz-adv-x="883" 
d="M442 710c118 0 214 -33 287 -99s109 -152 109 -259s-37 -194 -110 -261s-169 -101 -286 -101c-118 0 -214 34 -287 101s-110 154 -110 261s37 193 110 259s168 99 287 99zM442 87c105 0 179 20 222 60s64 108 64 205c0 95 -21 163 -64 202s-117 59 -222 59
s-179 -20 -222 -59s-65 -107 -65 -202c0 -97 22 -165 65 -205s117 -60 222 -60z" />
    <glyph glyph-name="P" unicode="P" horiz-adv-x="690" 
d="M90 700h341c149 0 237 -81 237 -202c0 -123 -88 -206 -237 -206h-236v-292h-105v700zM195 386h245c88 0 118 28 118 111c0 80 -30 109 -118 109h-245v-220z" />
    <glyph glyph-name="Q" unicode="Q" horiz-adv-x="883" 
d="M436 1l321 -74l36 -13l-40 -96l-466 191c-73 30 -132 75 -176 135s-66 129 -66 208c0 107 37 193 110 259s169 99 288 99s214 -33 287 -99c72 -66 108 -152 108 -259c0 -99 -35 -183 -104 -251s-161 -102 -275 -102c-5 0 -12 2 -23 2zM155 352c0 -97 22 -165 65 -205
s118 -60 223 -60s178 20 221 60c43 39 64 108 64 205c0 95 -21 163 -64 202s-116 59 -221 59s-180 -20 -223 -59s-65 -107 -65 -202z" />
    <glyph glyph-name="R" unicode="R" horiz-adv-x="727" 
d="M690 0h-128l-151 300h-216v-300h-105v700h357c71 0 127 -18 170 -54c42 -37 63 -85 63 -145c0 -105 -70 -180 -182 -197l59 -71zM449 606h-254v-214h254c91 0 121 27 121 108c0 79 -30 106 -121 106z" />
    <glyph glyph-name="S" unicode="S" horiz-adv-x="696" 
d="M361 -10c-192 0 -299 74 -321 223l108 31c13 -125 81 -163 216 -163s183 27 183 108c0 36 -10 60 -29 72c-19 11 -59 22 -120 32l-132 23c-56 9 -93 21 -136 49c-44 27 -67 76 -67 143c0 61 26 110 77 147s119 55 202 55c188 0 296 -80 301 -224l-101 -30
c1 127 -66 163 -202 163c-121 0 -167 -26 -167 -103c0 -71 38 -89 131 -104l140 -24c64 -11 107 -23 149 -50c42 -28 63 -73 63 -134c0 -65 -27 -116 -80 -155s-125 -59 -215 -59z" />
    <glyph glyph-name="T" unicode="T" horiz-adv-x="665" 
d="M22 700h622v-96h-258v-604h-106v604h-258v96z" />
    <glyph glyph-name="U" unicode="U" horiz-adv-x="816" 
d="M630 262v438h106v-420c0 -191 -119 -290 -328 -290s-328 99 -328 290v420h106v-438c0 -123 57 -175 222 -175c83 0 141 14 174 42c32 27 48 72 48 133z" />
    <glyph glyph-name="V" unicode="V" horiz-adv-x="761" 
d="M442 256l189 444h120l-298 -700h-144l-299 700h120l187 -443l63 -161z" />
    <glyph glyph-name="W" unicode="W" horiz-adv-x="1096" 
d="M847 225l120 475h116l-192 -700h-137l-174 481l-33 105l-31 -105l-173 -481h-138l-192 700h117l120 -475l26 -123l35 124l164 474h145l165 -475l36 -127z" />
    <glyph glyph-name="X" unicode="X" horiz-adv-x="715" 
d="M703 700l-279 -348l281 -352h-133l-153 198l-60 92l-62 -93l-154 -197h-133l281 351l-278 349h131l153 -196l60 -90l60 89l153 197h133z" />
    <glyph glyph-name="Y" unicode="Y" horiz-adv-x="719" 
d="M360 381l223 319h123l-293 -409v-291h-105v290l-295 410h123z" />
    <glyph glyph-name="Z" unicode="Z" horiz-adv-x="699" 
d="M317 246l-156 -151h493v-95h-609v97l457 508h-453v95h596v-98z" />
    <glyph glyph-name="bracketleft" unicode="[" horiz-adv-x="334" 
d="M301 770v-82h-156v-706h156v-82h-248v870h248z" />
    <glyph glyph-name="backslash" unicode="\" horiz-adv-x="456" 
d="M269 357l210 -457h-103l-189 424l-205 446h101z" />
    <glyph glyph-name="bracketright" unicode="]" horiz-adv-x="334" 
d="M189 688h-156v82h248v-870h-248v82h156v706z" />
    <glyph glyph-name="asciicircum" unicode="^" horiz-adv-x="494" 
d="M288 700l146 -226h-99l-89 151l-86 -151h-100l146 226h82z" />
    <glyph glyph-name="underscore" unicode="_" horiz-adv-x="502" 
d="M10 -159v79h482v-79h-482z" />
    <glyph glyph-name="grave" unicode="`" horiz-adv-x="600" 
d="M281 560l-155 167h152l65 -167h-62z" />
    <glyph glyph-name="a" unicode="a" horiz-adv-x="669" 
d="M488 366v114h102v-480h-102v113c-39 -77 -113 -123 -198 -123c-160 0 -249 97 -249 250s88 250 245 250c88 0 163 -45 202 -124zM318 83c117 0 175 52 175 157s-58 157 -175 157c-125 0 -174 -46 -174 -157s49 -157 174 -157z" />
    <glyph glyph-name="b" unicode="b" horiz-adv-x="669" 
d="M382 490c157 0 246 -97 246 -250s-89 -250 -249 -250c-87 0 -162 46 -199 125v-115h-102v700h102v-335c39 79 114 125 202 125zM351 83c125 0 174 46 174 157s-49 157 -174 157c-117 0 -175 -52 -175 -157s58 -157 175 -157z" />
    <glyph glyph-name="c" unicode="c" horiz-adv-x="637" 
d="M326 82c105 0 150 30 169 122l101 -25c-31 -126 -121 -189 -270 -189c-89 0 -158 23 -209 68s-76 106 -76 182s25 137 76 182s120 68 209 68c149 0 239 -63 270 -189l-101 -25c-19 92 -64 122 -169 122c-131 0 -182 -49 -182 -158s51 -158 182 -158z" />
    <glyph glyph-name="d" unicode="d" horiz-adv-x="669" 
d="M489 365v335h102v-700h-102v115c-37 -79 -112 -125 -199 -125c-160 0 -249 97 -249 250s89 250 246 250c88 0 163 -46 202 -125zM318 83c117 0 175 52 175 157s-58 157 -175 157c-125 0 -174 -46 -174 -157s49 -157 174 -157z" />
    <glyph glyph-name="e" unicode="e" horiz-adv-x="594" 
d="M554 250c0 -15 0 -29 -1 -42h-409c8 -93 53 -132 164 -132c89 0 120 18 143 75l91 -37c-33 -83 -112 -124 -235 -124c-167 0 -266 97 -266 249c0 75 24 136 72 182c47 46 111 69 190 69c155 0 251 -93 251 -240zM303 406c-100 0 -147 -38 -158 -123h307
c-5 89 -46 123 -149 123z" />
    <glyph glyph-name="f" unicode="f" horiz-adv-x="424" 
d="M246 480h173v-91h-173v-389h-102v389h-127v91h127v100c0 80 53 133 133 133h136v-91h-167v-142z" />
    <glyph glyph-name="g" unicode="g" horiz-adv-x="651" 
d="M471 383v97h101v-439c0 -137 -94 -221 -267 -221c-143 0 -230 44 -260 133l98 42c11 -36 28 -60 51 -72c22 -12 60 -18 114 -18c117 0 163 37 163 124v100c-35 -70 -100 -105 -194 -105c-148 0 -236 92 -236 233s87 233 235 233c94 0 159 -36 195 -107zM309 115
c116 0 167 46 167 141c0 97 -51 143 -166 143c-119 0 -166 -44 -166 -143c0 -97 46 -141 165 -141z" />
    <glyph glyph-name="h" unicode="h" horiz-adv-x="645" 
d="M374 490c131 0 197 -72 197 -215v-275h-102v258c0 93 -43 139 -129 139c-105 0 -160 -60 -160 -171v-226h-102v700h102v-339c27 86 92 129 194 129z" />
    <glyph glyph-name="i" unicode="i" horiz-adv-x="259" 
d="M130 579c-45 0 -69 23 -70 69c-1 43 25 66 70 66s69 -22 70 -66s-25 -69 -70 -69zM180 0h-102v480h102v-480z" />
    <glyph glyph-name="j" unicode="j" horiz-adv-x="259" 
d="M130 579c-45 0 -69 23 -70 69c-1 43 25 66 70 66s69 -22 70 -66s-25 -69 -70 -69zM47 -170h-101v93h133v557h102v-517c0 -80 -54 -133 -134 -133z" />
    <glyph glyph-name="k" unicode="k" horiz-adv-x="603" 
d="M583 0h-125l-169 219l-110 -103v-116h-101v700h101v-490l82 104l174 166h132l-212 -199z" />
    <glyph glyph-name="l" unicode="l" horiz-adv-x="259" 
d="M180 0h-102v700h102v-700z" />
    <glyph glyph-name="m" unicode="m" horiz-adv-x="1036" 
d="M765 490c131 0 197 -72 197 -215v-275h-102v265c0 88 -43 132 -129 132c-105 0 -160 -60 -160 -171v-226h-102v258c0 93 -43 139 -129 139c-105 0 -160 -60 -160 -171v-226h-102v480h102v-119c27 86 92 129 194 129c105 0 168 -45 189 -136c29 91 96 136 202 136z" />
    <glyph glyph-name="n" unicode="n" horiz-adv-x="645" 
d="M374 490c131 0 197 -72 197 -215v-275h-102v258c0 93 -43 139 -129 139c-105 0 -160 -60 -160 -171v-226h-102v480h102v-119c27 86 92 129 194 129z" />
    <glyph glyph-name="o" unicode="o" horiz-adv-x="637" 
d="M118 422c51 45 117 68 200 68s150 -23 201 -68c51 -46 77 -107 77 -182s-26 -136 -77 -181c-51 -46 -118 -69 -201 -69s-149 23 -200 69c-51 45 -77 106 -77 181s26 136 77 182zM318 83c125 0 175 48 175 157s-50 157 -175 157c-124 0 -174 -48 -174 -157
s50 -157 174 -157z" />
    <glyph glyph-name="p" unicode="p" horiz-adv-x="669" 
d="M382 490c157 0 246 -97 246 -250s-89 -250 -249 -250c-87 0 -162 46 -199 125v-285h-102v650h102v-115c39 79 114 125 202 125zM351 83c125 0 174 46 174 157s-49 157 -174 157c-117 0 -175 -52 -175 -157s58 -157 175 -157z" />
    <glyph glyph-name="q" unicode="q" horiz-adv-x="669" 
d="M489 365v115h102v-650h-102v285c-37 -79 -112 -125 -199 -125c-160 0 -249 97 -249 250s89 250 246 250c88 0 163 -46 202 -125zM318 83c117 0 175 52 175 157s-58 157 -175 157c-125 0 -174 -46 -174 -157s49 -157 174 -157z" />
    <glyph glyph-name="r" unicode="r" horiz-adv-x="457" 
d="M371 489c29 0 51 -3 66 -8v-99c-23 8 -48 12 -75 12c-116 0 -182 -74 -182 -186v-208h-102v480h102v-147c29 104 92 156 191 156z" />
    <glyph glyph-name="s" unicode="s" horiz-adv-x="530" 
d="M271 -10c-127 0 -214 56 -235 145l100 29c12 -68 55 -92 142 -92c77 0 115 19 115 57c0 36 -22 49 -89 60l-103 16c-99 15 -148 61 -148 140c0 89 79 145 207 145c129 0 204 -49 223 -146l-100 -24c-9 72 -44 90 -120 90c-72 0 -108 -20 -108 -59c0 -36 21 -50 70 -57
l126 -19c95 -14 143 -58 143 -132c0 -95 -86 -153 -223 -153z" />
    <glyph glyph-name="t" unicode="t" horiz-adv-x="439" 
d="M415 480v-91h-171v-298h156v-91h-125c-80 0 -133 53 -133 133v256h-126v91h126v147h102v-147h171z" />
    <glyph glyph-name="u" unicode="u" horiz-adv-x="645" 
d="M465 254v226h102v-480h-102v119c-27 -86 -92 -129 -194 -129c-131 0 -197 72 -197 215v275h102v-258c0 -93 43 -139 129 -139c105 0 160 60 160 171z" />
    <glyph glyph-name="v" unicode="v" horiz-adv-x="580" 
d="M290 75l162 405h115l-213 -480h-127l-214 480h115z" />
    <glyph glyph-name="w" unicode="w" horiz-adv-x="832" 
d="M628 188l78 292h111l-148 -480h-116l-106 275l-31 93l-31 -94l-106 -274h-114l-150 480h112l79 -292l22 -104l31 104l105 292h104l104 -291l33 -109z" />
    <glyph glyph-name="x" unicode="x" horiz-adv-x="555" 
d="M533 480l-193 -241l196 -239h-123l-98 129l-38 58l-38 -57l-97 -130h-122l195 239l-191 241h125l90 -127l39 -61l38 58l93 130h124z" />
    <glyph glyph-name="y" unicode="y" horiz-adv-x="581" 
d="M328 178l125 302h115l-250 -549c-33 -71 -69 -101 -157 -101h-103v91h171l12 32l-228 527h114l125 -303l35 -106z" />
    <glyph glyph-name="z" unicode="z" horiz-adv-x="538" 
d="M275 187l-116 -101h338v-86h-447v83l304 311h-302v86h435v-83z" />
    <glyph glyph-name="braceleft" unicode="{" horiz-adv-x="401" 
d="M227 688v-208c0 -87 -29 -126 -112 -145c83 -20 112 -59 112 -146v-207h141v-82h-118c-67 0 -114 44 -114 111v192c0 61 -32 94 -77 91l-38 -2v86l38 -2c45 -3 77 30 77 90v193c0 67 47 111 114 111h118v-82h-141z" />
    <glyph glyph-name="bar" unicode="|" horiz-adv-x="313" 
d="M203 770v-870h-93v870h93z" />
    <glyph glyph-name="braceright" unicode="}" horiz-adv-x="401" 
d="M342 376l38 2v-86l-38 2c-45 3 -77 -30 -77 -91v-192c0 -67 -47 -111 -114 -111h-118v82h141v207c0 87 29 126 112 146c-83 19 -112 58 -112 145v208h-141v82h118c67 0 114 -44 114 -111v-193c0 -60 32 -93 77 -90z" />
    <glyph glyph-name="asciitilde" unicode="~" 
d="M190 218l-5 -10l-86 42c23 48 69 96 137 96c25 0 60 -8 105 -25s74 -25 89 -25c19 0 33 5 45 19c11 14 11 14 22 33l84 -41c-30 -65 -75 -97 -135 -97c-25 0 -60 8 -105 25s-75 25 -90 25c-17 0 -28 -8 -37 -13c-5 -3 -14 -16 -16 -18c-1 -1 -4 -5 -8 -11z" />
    <glyph glyph-name="exclamdown" unicode="&#xa1;" horiz-adv-x="293" 
d="M148 490c47 0 73 -25 72 -70c-1 -47 -25 -70 -72 -70s-72 25 -71 70c0 45 26 70 71 70zM204 -215h-115l8 274l20 203h59l20 -203z" />
    <glyph glyph-name="cent" unicode="&#xa2;" horiz-adv-x="637" 
d="M345 247l5 -164c88 4 128 36 145 121l101 -25c-29 -118 -110 -181 -243 -188l4 -118h-82l4 119c-149 17 -238 111 -238 248s89 232 238 248l-4 126h82l-4 -125c133 -7 214 -70 243 -188l-101 -25c-17 85 -57 117 -145 121zM177 350c-22 -25 -33 -62 -33 -110
s11 -85 33 -110c21 -25 56 -41 105 -46l5 163l-5 149c-49 -5 -84 -21 -105 -46z" />
    <glyph glyph-name="sterling" unicode="&#xa3;" horiz-adv-x="705" 
d="M503 271h-234l-24 -174h420v-97h-607v70l111 20v181h-111v91h111v105c0 80 25 141 76 182c50 41 115 61 194 61c63 0 117 -16 164 -47c46 -31 75 -75 87 -131l-96 -34c-11 81 -58 115 -155 115c-115 0 -164 -52 -164 -152v-99h228v-91z" />
    <glyph glyph-name="yen" unicode="&#xa5;" horiz-adv-x="729" 
d="M563 700h123l-237 -355h166v-76h-202v-82h202v-76h-202v-111h-105v111h-193v76h193v82h-193v76h156l-238 355h122l204 -316z" />
    <glyph glyph-name="brokenbar" unicode="&#xa6;" horiz-adv-x="313" 
d="M203 409h-93v361h93v-361zM110 261h93v-361h-93v361z" />
    <glyph glyph-name="section" unicode="&#xa7;" horiz-adv-x="724" 
d="M557 133c49 -29 73 -70 73 -125c0 -117 -90 -188 -270 -188c-187 0 -269 73 -286 206l92 27c4 -55 20 -94 47 -117s78 -34 151 -34c124 0 164 34 164 95c0 78 -115 87 -229 110c-79 16 -150 28 -195 75c-23 23 -34 52 -34 87c0 54 32 97 97 128c-48 29 -72 71 -72 125
c0 117 90 188 270 188c187 0 268 -73 285 -206l-92 -27c-4 55 -19 94 -46 117s-78 34 -151 34c-124 0 -164 -34 -164 -95c0 -78 115 -87 229 -110c79 -16 149 -28 194 -75c23 -23 34 -52 34 -87c0 -54 -32 -97 -97 -128zM172 296c-4 -62 82 -86 168 -101
c56 -11 135 -25 182 -45c21 34 31 62 31 84c4 63 -82 86 -167 102c-29 5 -61 11 -96 18s-65 16 -88 26c-20 -31 -30 -59 -30 -84z" />
    <glyph glyph-name="dieresis" unicode="&#xa8;" horiz-adv-x="600" 
d="M194 579c-44 0 -70 25 -70 69c-1 43 23 66 70 66c45 0 69 -22 70 -66c0 -44 -25 -69 -70 -69zM406 579c-44 0 -70 25 -70 69c-1 43 23 66 70 66c45 0 69 -22 70 -66c0 -44 -25 -69 -70 -69z" />
    <glyph glyph-name="copyright" unicode="&#xa9;" horiz-adv-x="878" 
d="M727 94c-74 -67 -170 -100 -289 -100s-215 33 -288 100c-73 66 -110 152 -110 258s37 192 111 259c74 66 170 99 289 99s215 -33 288 -99s110 -152 110 -257c0 -107 -37 -193 -111 -260zM438 45c227 0 341 103 341 309c0 203 -113 305 -339 305s-339 -102 -339 -307
s112 -307 337 -307zM446 146c-65 0 -119 19 -162 57s-65 87 -65 147s22 109 65 147s97 57 162 57c105 0 187 -57 208 -149l-75 -16c-17 65 -52 95 -133 95c-99 0 -148 -49 -148 -133c0 -85 51 -136 148 -136c81 0 116 31 133 96l75 -16c-20 -91 -101 -149 -208 -149z" />
    <glyph glyph-name="ordfeminine" unicode="&#xaa;" horiz-adv-x="591" 
d="M430 601v100h92v-425h-92v99c-31 -72 -89 -108 -173 -108c-67 0 -120 20 -161 61s-61 94 -61 160s20 119 61 160c40 41 93 61 159 61c85 0 144 -36 175 -108zM281 349c99 0 153 50 153 139c0 91 -54 139 -153 139c-108 0 -153 -40 -153 -139s45 -139 153 -139z" />
    <glyph glyph-name="guillemotleft" unicode="&#xab;" horiz-adv-x="542" 
d="M178 442h110l-166 -183l166 -182h-110l-126 182zM371 442h110l-166 -183l166 -182h-110l-127 182z" />
    <glyph glyph-name="registered" unicode="&#xae;" horiz-adv-x="519" 
d="M90 679c46 43 103 64 170 64s124 -21 170 -64s69 -95 69 -156c0 -62 -23 -114 -69 -155c-46 -42 -103 -63 -170 -63s-124 21 -170 63c-47 41 -70 93 -70 154s23 114 70 157zM115 388c34 -32 82 -48 145 -48s111 16 146 48c34 31 51 76 51 135c0 117 -70 184 -197 184
c-125 0 -197 -66 -197 -185c0 -58 17 -103 52 -134zM305 499l26 -23l47 -59h-61l-50 79h-50v-79h-47v225h107c56 0 93 -27 93 -70c0 -37 -25 -65 -65 -73zM286 601h-69v-62h70c23 0 35 11 35 33c0 19 -12 29 -36 29z" />
    <glyph glyph-name="overscore" unicode="&#xaf;" horiz-adv-x="600" 
d="M160 595v75h280v-75h-280z" />
    <glyph glyph-name="degree" unicode="&#xb0;" horiz-adv-x="461" 
d="M231 345c-59 0 -109 17 -149 52c-41 34 -61 78 -61 132c0 53 20 96 61 130s90 51 149 51s108 -17 149 -51c40 -34 60 -77 60 -130c0 -54 -20 -98 -60 -132c-41 -35 -90 -52 -149 -52zM109 529c0 -69 41 -103 122 -103s122 34 122 103c0 67 -41 100 -122 100
s-122 -33 -122 -100z" />
    <glyph glyph-name="plusminus" unicode="&#xb1;" 
d="M386 172h-91v176h-199v85h199v176h91v-176h199v-85h-199v-176zM585 29h-489v82h489v-82z" />
    <glyph glyph-name="uni00B2" unicode="&#xb2;" horiz-adv-x="386" 
d="M205 515l-93 -44h258v-66h-339v60l125 77c32 20 46 29 75 53s44 50 44 77c0 41 -28 62 -84 62c-63 0 -98 -33 -81 -101l-80 10c-10 51 1 90 34 118c32 28 75 42 128 42c97 0 165 -51 165 -128c0 -75 -55 -115 -152 -160z" />
    <glyph glyph-name="uni00B3" unicode="&#xb3;" horiz-adv-x="394" 
d="M260 606c69 -11 107 -45 107 -96c0 -67 -66 -110 -167 -110c-108 0 -174 49 -173 134l80 10c-4 -53 26 -77 94 -77c59 0 89 18 89 54c0 32 -34 54 -85 54l-47 -1v61l48 -1c44 0 73 20 73 51c0 35 -26 53 -78 53c-65 0 -94 -24 -87 -77l-76 10c-8 84 62 132 163 132
c93 0 155 -42 155 -106c0 -49 -32 -79 -96 -91z" />
    <glyph glyph-name="acute" unicode="&#xb4;" horiz-adv-x="600" 
d="M322 727h152l-155 -167h-62z" />
    <glyph glyph-name="paragraph" unicode="&#xb6;" horiz-adv-x="778" 
d="M305 700h383v-870h-98v780h-168v-780h-101v434h-16c-169 0 -265 83 -265 218s96 218 265 218z" />
    <glyph glyph-name="middot" unicode="&#xb7;" horiz-adv-x="255" 
d="M128 258c-47 0 -71 23 -72 70c0 47 24 70 72 70c47 0 71 -23 72 -70c0 -47 -24 -70 -72 -70z" />
    <glyph glyph-name="cedilla" unicode="&#xb8;" horiz-adv-x="600" 
d="M360 10l-39 -60c61 -12 101 -45 101 -94c0 -53 -48 -91 -119 -91c-64 0 -116 31 -131 76l62 33c5 -33 28 -50 68 -50c28 0 47 14 47 33c0 27 -36 46 -108 57l66 96h53z" />
    <glyph glyph-name="uni00B9" unicode="&#xb9;" horiz-adv-x="329" 
d="M4 728l166 69h77v-392h-78v346l-134 -86z" />
    <glyph glyph-name="ordmasculine" unicode="&#xba;" horiz-adv-x="566" 
d="M107 649c47 41 106 61 176 61s129 -20 176 -61s71 -95 71 -161c0 -65 -24 -118 -71 -159s-106 -61 -176 -61s-129 20 -176 61c-48 41 -72 94 -72 159c0 66 24 120 72 161zM164 382c24 -21 64 -32 119 -32s95 11 119 32c23 21 35 57 35 106c0 100 -43 139 -154 139
s-155 -39 -155 -139c0 -49 12 -85 36 -106z" />
    <glyph glyph-name="guillemotright" unicode="&#xbb;" horiz-adv-x="542" 
d="M227 259l-166 183h110l127 -183l-127 -182h-110zM420 259l-166 183h110l126 -183l-126 -182h-110z" />
    <glyph glyph-name="onequarter" unicode="&#xbc;" horiz-adv-x="836" 
d="M247 308h-78v346l-134 -86l-31 63l166 69h77v-392zM369 357l240 343h91l-266 -351l-247 -349h-91zM750 150h68v-61h-68v-89h-70v89h-230v69c61 55 93 133 98 234h82c-12 -109 -54 -192 -126 -249l178 6l9 187h59v-186z" />
    <glyph glyph-name="onehalf" unicode="&#xbd;" horiz-adv-x="850" 
d="M247 308h-78v346l-134 -86l-31 63l166 69h77v-392zM369 357l240 343h91l-266 -351l-247 -349h-91zM669 110l-93 -44h258v-66h-339v60l125 77c32 20 46 29 75 53s44 50 44 77c0 41 -28 62 -84 62c-63 0 -98 -33 -81 -101l-80 10c-10 51 1 90 34 118c32 28 75 42 128 42
c97 0 165 -51 165 -128c0 -75 -55 -115 -152 -160z" />
    <glyph glyph-name="threequarters" unicode="&#xbe;" horiz-adv-x="894" 
d="M367 413c0 -67 -66 -110 -167 -110c-108 0 -174 49 -173 134l80 10c-4 -53 26 -77 94 -77c59 0 89 18 89 54c0 32 -34 54 -85 54l-47 -1v61l48 -1c44 0 73 20 73 51c0 35 -26 53 -78 53c-65 0 -94 -24 -87 -77l-76 10c-8 84 62 132 163 132c93 0 155 -42 155 -106
c0 -49 -32 -79 -96 -91c69 -11 107 -45 107 -96zM427 357l240 343h91l-266 -351l-247 -349h-91zM808 150h68v-61h-68v-89h-70v89h-230v69c61 55 93 133 98 234h82c-12 -109 -54 -192 -126 -249l178 6l9 187h59v-186z" />
    <glyph glyph-name="questiondown" unicode="&#xbf;" horiz-adv-x="594" 
d="M322 490c46 0 70 -23 71 -70c1 -45 -24 -70 -71 -70s-72 25 -72 70c-1 45 25 70 72 70zM461 10l103 -14c1 -75 -24 -130 -73 -167c-50 -36 -114 -54 -192 -54c-75 0 -137 19 -184 56c-48 37 -72 86 -72 145c0 77 47 127 109 160c44 24 76 36 124 49v77h91v-34
c0 -133 -220 -111 -220 -245c0 -73 52 -109 155 -109c107 0 160 37 159 136z" />
    <glyph glyph-name="Agrave" unicode="&#xc0;" horiz-adv-x="791" 
d="M373 927l65 -167h-62l-155 167h152zM778 0h-115l-81 183h-374l-81 -183h-114l310 700h146zM348 500l-99 -223h292l-99 223l-46 115z" />
    <glyph glyph-name="Aacute" unicode="&#xc1;" horiz-adv-x="791" 
d="M436 927h151l-155 -167h-62zM778 0h-115l-81 183h-374l-81 -183h-114l310 700h146zM348 500l-99 -223h292l-99 223l-46 115z" />
    <glyph glyph-name="Acircumflex" unicode="&#xc2;" horiz-adv-x="791" 
d="M490 760l-94 80l-95 -80h-66l117 167h87l117 -167h-66zM778 0h-115l-81 183h-374l-81 -183h-114l310 700h146zM348 500l-99 -223h292l-99 223l-46 115z" />
    <glyph glyph-name="Atilde" unicode="&#xc3;" horiz-adv-x="791" 
d="M320 819c-19 0 -24 -17 -24 -58h-53c0 105 21 138 77 138c67 3 120 -81 151 -78c16 0 24 19 24 58h53c0 -97 -25 -137 -78 -137c-74 0 -110 77 -150 77zM778 0h-115l-81 183h-374l-81 -183h-114l310 700h146zM348 500l-99 -223h292l-99 223l-46 115z" />
    <glyph glyph-name="Adieresis" unicode="&#xc4;" horiz-adv-x="791" 
d="M285 779c-45 0 -69 23 -70 69c-1 43 25 66 70 66s69 -22 70 -66s-25 -69 -70 -69zM503 779c-46 0 -70 23 -71 69c0 44 24 66 71 66c46 0 69 -22 69 -66c1 -44 -24 -69 -69 -69zM778 0h-115l-81 183h-374l-81 -183h-114l310 700h146zM348 500l-99 -223h292l-99 223
l-46 115z" />
    <glyph glyph-name="Aring" unicode="&#xc5;" horiz-adv-x="791" 
d="M479 778c-21 -20 -49 -30 -84 -30s-62 10 -83 30s-32 46 -32 78c0 65 46 108 115 108s115 -43 115 -108c0 -32 -10 -58 -31 -78zM430 891c-7 6 -18 9 -35 9s-28 -3 -34 -9c-7 -7 -10 -18 -10 -35c0 -32 11 -44 44 -44s45 12 45 44c0 17 -3 28 -10 35zM778 0h-115l-81 183
h-374l-81 -183h-114l310 700h146zM348 500l-99 -223h292l-99 223l-46 115z" />
    <glyph glyph-name="AE" unicode="&#xc6;" horiz-adv-x="1182" 
d="M1119 700v-97h-418v-177h397v-96h-397v-233h418v-97h-523v183h-320l-140 -183h-123l537 700h569zM596 600l-248 -323h248v323z" />
    <glyph glyph-name="Ccedilla" unicode="&#xc7;" horiz-adv-x="861" 
d="M444 87c93 0 160 15 199 44s65 83 77 162l104 -25c-31 -176 -154 -273 -361 -278l-26 -40c61 -12 101 -45 101 -94c0 -53 -48 -91 -119 -91c-64 0 -116 31 -131 76l62 33c5 -33 28 -50 68 -50c28 0 47 14 47 33c0 27 -36 46 -108 57l53 77c-109 7 -197 44 -264 110
s-101 150 -101 251c0 107 37 193 111 259c73 66 169 99 288 99c219 0 348 -97 380 -278l-104 -25c-12 79 -38 134 -77 163s-106 43 -199 43c-106 0 -181 -20 -224 -59s-65 -107 -65 -202c0 -97 22 -166 65 -205c43 -40 118 -60 224 -60z" />
    <glyph glyph-name="Egrave" unicode="&#xc8;" horiz-adv-x="676" 
d="M336 760l-155 167h152l65 -167h-62zM613 700v-97h-418v-177h397v-96h-397v-233h418v-97h-523v700h523z" />
    <glyph glyph-name="Eacute" unicode="&#xc9;" horiz-adv-x="676" 
d="M377 927h152l-155 -167h-62zM613 700v-97h-418v-177h397v-96h-397v-233h418v-97h-523v700h523z" />
    <glyph glyph-name="Ecircumflex" unicode="&#xca;" horiz-adv-x="676" 
d="M450 760l-94 80l-95 -80h-66l117 167h87l117 -167h-66zM613 700v-97h-418v-177h397v-96h-397v-233h418v-97h-523v700h523z" />
    <glyph glyph-name="Edieresis" unicode="&#xcb;" horiz-adv-x="676" 
d="M245 779c-45 0 -69 23 -70 69c-1 43 25 66 70 66s69 -22 70 -66s-25 -69 -70 -69zM463 779c-46 0 -70 23 -71 69c0 44 24 66 71 66c46 0 69 -22 69 -66c1 -44 -24 -69 -69 -69zM613 700v-97h-418v-177h397v-96h-397v-233h418v-97h-523v700h523z" />
    <glyph glyph-name="Igrave" unicode="&#xcc;" horiz-adv-x="288" 
d="M102 760l-156 167h152l65 -167h-61zM197 700v-700h-107v700h107z" />
    <glyph glyph-name="Iacute" unicode="&#xcd;" horiz-adv-x="287" 
d="M189 927h152l-155 -167h-62zM197 0h-107v700h107v-700z" />
    <glyph glyph-name="Icircumflex" unicode="&#xce;" horiz-adv-x="287" 
d="M101 927h87l117 -167h-66l-94 80l-95 -80h-66zM197 0h-107v700h107v-700z" />
    <glyph glyph-name="Idieresis" unicode="&#xcf;" horiz-adv-x="287" 
d="M34 779c-45 0 -69 23 -70 69c-1 43 25 66 70 66s69 -22 70 -66s-25 -69 -70 -69zM252 779c-46 0 -70 23 -71 69c0 44 24 66 71 66c46 0 69 -22 69 -66c1 -44 -24 -69 -69 -69zM197 0h-107v700h107v-700z" />
    <glyph glyph-name="Eth" unicode="&#xd0;" horiz-adv-x="848" 
d="M90 700h336c117 0 209 -32 276 -95c67 -64 101 -149 101 -255s-34 -191 -101 -254c-67 -64 -159 -96 -276 -96h-336v316h-89v79h89v305zM196 94h228c99 0 168 19 209 58s61 105 61 198s-20 159 -61 198s-110 58 -209 58h-228v-211h127v-79h-127v-222z" />
    <glyph glyph-name="Ntilde" unicode="&#xd1;" horiz-adv-x="869" 
d="M365 819c-19 0 -24 -17 -24 -58h-53c0 105 21 138 77 138c67 3 120 -81 151 -78c16 0 24 19 24 58h53c0 -97 -25 -137 -78 -137c-74 0 -110 77 -150 77zM672 111v589h107v-700h-150l-359 479l-73 106v-585h-107v700h151l357 -476z" />
    <glyph glyph-name="Ograve" unicode="&#xd2;" horiz-adv-x="883" 
d="M423 760l-155 167h152l65 -167h-62zM442 710c118 0 214 -33 287 -99s109 -152 109 -259s-37 -194 -110 -261s-169 -101 -286 -101c-118 0 -214 34 -287 101s-110 154 -110 261s37 193 110 259s168 99 287 99zM442 87c105 0 179 20 222 60s64 108 64 205
c0 95 -21 163 -64 202s-117 59 -222 59s-179 -20 -222 -59s-65 -107 -65 -202c0 -97 22 -165 65 -205s117 -60 222 -60z" />
    <glyph glyph-name="Oacute" unicode="&#xd3;" horiz-adv-x="883" 
d="M464 927h152l-155 -167h-62zM442 710c118 0 214 -33 287 -99s109 -152 109 -259s-37 -194 -110 -261s-169 -101 -286 -101c-118 0 -214 34 -287 101s-110 154 -110 261s37 193 110 259s168 99 287 99zM442 87c105 0 179 20 222 60s64 108 64 205c0 95 -21 163 -64 202
s-117 59 -222 59s-179 -20 -222 -59s-65 -107 -65 -202c0 -97 22 -165 65 -205s117 -60 222 -60z" />
    <glyph glyph-name="Ocircumflex" unicode="&#xd4;" horiz-adv-x="883" 
d="M537 760l-94 80l-95 -80h-66l117 167h87l117 -167h-66zM442 710c118 0 214 -33 287 -99s109 -152 109 -259s-37 -194 -110 -261s-169 -101 -286 -101c-118 0 -214 34 -287 101s-110 154 -110 261s37 193 110 259s168 99 287 99zM442 87c105 0 179 20 222 60
s64 108 64 205c0 95 -21 163 -64 202s-117 59 -222 59s-179 -20 -222 -59s-65 -107 -65 -202c0 -97 22 -165 65 -205s117 -60 222 -60z" />
    <glyph glyph-name="Otilde" unicode="&#xd5;" horiz-adv-x="883" 
d="M517 742c-74 0 -110 77 -150 77c-19 0 -24 -17 -24 -58h-53c0 105 21 138 77 138c67 3 120 -81 151 -78c16 0 24 19 24 58h53c0 -97 -25 -137 -78 -137zM442 710c118 0 214 -33 287 -99s109 -152 109 -259s-37 -194 -110 -261s-169 -101 -286 -101
c-118 0 -214 34 -287 101s-110 154 -110 261s37 193 110 259s168 99 287 99zM442 87c105 0 179 20 222 60s64 108 64 205c0 95 -21 163 -64 202s-117 59 -222 59s-179 -20 -222 -59s-65 -107 -65 -202c0 -97 22 -165 65 -205s117 -60 222 -60z" />
    <glyph glyph-name="Odieresis" unicode="&#xd6;" horiz-adv-x="883" 
d="M332 779c-45 0 -69 23 -70 69c-1 43 25 66 70 66s69 -22 70 -66s-25 -69 -70 -69zM550 779c-46 0 -70 23 -71 69c0 44 24 66 71 66c46 0 69 -22 69 -66c1 -44 -24 -69 -69 -69zM442 710c118 0 214 -33 287 -99s109 -152 109 -259s-37 -194 -110 -261s-169 -101 -286 -101
c-118 0 -214 34 -287 101s-110 154 -110 261s37 193 110 259s168 99 287 99zM442 87c105 0 179 20 222 60s64 108 64 205c0 95 -21 163 -64 202s-117 59 -222 59s-179 -20 -222 -59s-65 -107 -65 -202c0 -97 22 -165 65 -205s117 -60 222 -60z" />
    <glyph glyph-name="multiply" unicode="&#xd7;" 
d="M509 514l60 -60l-169 -168l169 -169l-60 -60l-169 169l-169 -169l-60 60l169 169l-169 168l60 60l169 -169z" />
    <glyph glyph-name="Oslash" unicode="&#xd8;" horiz-adv-x="883" 
d="M786 682l-61 -68c75 -66 113 -153 113 -262c0 -107 -37 -194 -110 -261s-169 -101 -286 -101c-79 0 -150 16 -212 48l-64 -77l-67 60l60 66c-76 67 -114 156 -114 265c0 107 37 193 110 259s168 99 287 99c79 0 150 -16 212 -48l65 80zM155 352c0 -95 20 -162 61 -202
l199 219l182 223c-38 14 -90 21 -155 21c-105 0 -179 -20 -222 -59s-65 -107 -65 -202zM442 87c105 0 179 20 222 60s64 108 64 205c0 92 -20 158 -60 198l-195 -219l-185 -223c37 -14 89 -21 154 -21z" />
    <glyph glyph-name="Ugrave" unicode="&#xd9;" horiz-adv-x="816" 
d="M386 760l-155 167h152l65 -167h-62zM630 262v438h106v-420c0 -191 -119 -290 -328 -290s-328 99 -328 290v420h106v-438c0 -123 57 -175 222 -175c83 0 141 14 174 42c32 27 48 72 48 133z" />
    <glyph glyph-name="Uacute" unicode="&#xda;" horiz-adv-x="816" 
d="M427 927h152l-155 -167h-62zM630 262v438h106v-420c0 -191 -119 -290 -328 -290s-328 99 -328 290v420h106v-438c0 -123 57 -175 222 -175c83 0 141 14 174 42c32 27 48 72 48 133z" />
    <glyph glyph-name="Ucircumflex" unicode="&#xdb;" horiz-adv-x="816" 
d="M500 760l-94 80l-95 -80h-66l117 167h87l117 -167h-66zM630 262v438h106v-420c0 -191 -119 -290 -328 -290s-328 99 -328 290v420h106v-438c0 -123 57 -175 222 -175c83 0 141 14 174 42c32 27 48 72 48 133z" />
    <glyph glyph-name="Udieresis" unicode="&#xdc;" horiz-adv-x="816" 
d="M295 779c-45 0 -69 23 -70 69c-1 43 25 66 70 66s69 -22 70 -66s-25 -69 -70 -69zM513 779c-46 0 -70 23 -71 69c0 44 24 66 71 66c46 0 69 -22 69 -66c1 -44 -24 -69 -69 -69zM630 262v438h106v-420c0 -191 -119 -290 -328 -290s-328 99 -328 290v420h106v-438
c0 -123 57 -175 222 -175c83 0 141 14 174 42c32 27 48 72 48 133z" />
    <glyph glyph-name="Yacute" unicode="&#xdd;" horiz-adv-x="719" 
d="M382 927h152l-155 -167h-62zM360 381l223 319h123l-293 -409v-291h-105v290l-295 410h123z" />
    <glyph glyph-name="Thorn" unicode="&#xde;" horiz-adv-x="690" 
d="M195 554h236c149 0 237 -81 237 -202c0 -123 -88 -205 -237 -205h-236v-147h-105v700h105v-146zM195 240h247c85 0 118 32 118 111c0 77 -34 109 -118 109h-247v-220z" />
    <glyph glyph-name="germandbls" unicode="&#xdf;" horiz-adv-x="660" 
d="M381 358c165 -13 245 -80 245 -176c0 -59 -24 -106 -72 -140c-48 -35 -109 -52 -184 -52c-3 0 -30 2 -81 7v93c23 -5 48 -7 73 -7c103 0 161 39 161 107c0 73 -75 114 -215 114v88c103 7 165 60 165 127c0 64 -48 100 -136 100c-100 0 -155 -59 -155 -171v-448h-104v461
c0 157 97 249 258 249c72 0 130 -17 174 -52s66 -79 66 -132c0 -81 -63 -151 -195 -168z" />
    <glyph glyph-name="agrave" unicode="&#xe0;" horiz-adv-x="669" 
d="M311 727l65 -167h-61l-156 167h152zM488 366v114h102v-480h-102v113c-39 -77 -113 -123 -198 -123c-160 0 -249 97 -249 250s88 250 245 250c88 0 163 -45 202 -124zM318 83c117 0 175 52 175 157s-58 157 -175 157c-125 0 -174 -46 -174 -157s49 -157 174 -157z" />
    <glyph glyph-name="aacute" unicode="&#xe1;" horiz-adv-x="669" 
d="M352 727h152l-155 -167h-62zM488 366v114h102v-480h-102v113c-39 -77 -113 -123 -198 -123c-160 0 -249 97 -249 250s88 250 245 250c88 0 163 -45 202 -124zM318 83c117 0 175 52 175 157s-58 157 -175 157c-125 0 -174 -46 -174 -157s49 -157 174 -157z" />
    <glyph glyph-name="acircumflex" unicode="&#xe2;" horiz-adv-x="669" 
d="M425 560l-94 80l-95 -80h-66l117 167h87l117 -167h-66zM488 366v114h102v-480h-102v113c-39 -77 -113 -123 -198 -123c-160 0 -249 97 -249 250s88 250 245 250c88 0 163 -45 202 -124zM318 83c117 0 175 52 175 157s-58 157 -175 157c-125 0 -174 -46 -174 -157
s49 -157 174 -157z" />
    <glyph glyph-name="atilde" unicode="&#xe3;" horiz-adv-x="669" 
d="M255 632c-19 0 -24 -15 -24 -58h-53c0 105 21 138 77 138c76 0 111 -77 151 -77c16 0 24 19 24 57h53c0 -96 -25 -136 -78 -136c-63 -3 -122 79 -150 76zM488 366v114h102v-480h-102v113c-39 -77 -113 -123 -198 -123c-160 0 -249 97 -249 250s88 250 245 250
c88 0 163 -45 202 -124zM318 83c117 0 175 52 175 157s-58 157 -175 157c-125 0 -174 -46 -174 -157s49 -157 174 -157z" />
    <glyph glyph-name="adieresis" unicode="&#xe4;" horiz-adv-x="669" 
d="M224 579c-44 0 -70 25 -70 69c-1 43 23 66 70 66c45 0 69 -22 70 -66c0 -44 -25 -69 -70 -69zM436 579c-44 0 -70 25 -70 69c-1 43 23 66 70 66c45 0 69 -22 70 -66c0 -44 -25 -69 -70 -69zM488 366v114h102v-480h-102v113c-39 -77 -113 -123 -198 -123
c-160 0 -249 97 -249 250s88 250 245 250c88 0 163 -45 202 -124zM318 83c117 0 175 52 175 157s-58 157 -175 157c-125 0 -174 -46 -174 -157s49 -157 174 -157z" />
    <glyph glyph-name="aring" unicode="&#xe5;" horiz-adv-x="669" 
d="M414 575c-21 -20 -49 -30 -84 -30s-62 10 -83 30s-32 46 -32 78c0 65 46 108 115 108s115 -43 115 -108c0 -32 -10 -58 -31 -78zM365 687c-7 7 -18 10 -35 10s-28 -3 -34 -10c-7 -7 -10 -18 -10 -34c0 -33 11 -44 44 -44s45 11 45 44c0 16 -3 27 -10 34zM488 366v114h102
v-480h-102v113c-39 -77 -113 -123 -198 -123c-160 0 -249 97 -249 250s88 250 245 250c88 0 163 -45 202 -124zM318 83c117 0 175 52 175 157s-58 157 -175 157c-125 0 -174 -46 -174 -157s49 -157 174 -157z" />
    <glyph glyph-name="ae" unicode="&#xe6;" horiz-adv-x="974" 
d="M933 250c0 -15 0 -29 -1 -42h-408c8 -97 52 -135 163 -135c45 0 78 5 97 16c19 10 35 30 46 59l92 -34c-35 -83 -113 -124 -236 -124c-119 0 -203 49 -242 133c-32 -85 -112 -133 -217 -133c-112 0 -179 49 -179 134c0 101 103 152 280 152h92v38c0 60 -41 90 -123 90
c-83 0 -131 -32 -130 -109l-97 20c1 52 22 94 64 127c42 32 96 48 163 48c89 0 153 -24 191 -73c47 49 112 73 194 73c155 0 251 -93 251 -240zM682 406c-103 0 -149 -41 -157 -130h307c-3 93 -45 130 -150 130zM253 66c45 0 84 13 117 39c33 25 50 60 50 103h-95
c-104 0 -173 -25 -173 -77c0 -40 37 -65 101 -65z" />
    <glyph glyph-name="ccedilla" unicode="&#xe7;" horiz-adv-x="637" 
d="M326 82c105 0 150 30 169 122l101 -25c-30 -122 -115 -185 -255 -189l-26 -40c61 -12 101 -45 101 -94c0 -53 -48 -91 -119 -91c-64 0 -116 31 -131 76l62 33c5 -33 28 -50 68 -50c28 0 47 14 47 33c0 27 -36 46 -108 57l53 78c-156 13 -247 108 -247 248
c0 76 25 137 76 182s120 68 209 68c149 0 239 -63 270 -189l-101 -25c-19 92 -64 122 -169 122c-131 0 -182 -49 -182 -158s51 -158 182 -158z" />
    <glyph glyph-name="egrave" unicode="&#xe8;" horiz-adv-x="594" 
d="M275 727l65 -167h-62l-155 167h152zM554 250c0 -15 0 -29 -1 -42h-409c8 -93 53 -132 164 -132c89 0 120 18 143 75l91 -37c-33 -83 -112 -124 -235 -124c-167 0 -266 97 -266 249c0 75 24 136 72 182c47 46 111 69 190 69c155 0 251 -93 251 -240zM303 406
c-100 0 -147 -38 -158 -123h307c-5 89 -46 123 -149 123z" />
    <glyph glyph-name="eacute" unicode="&#xe9;" horiz-adv-x="594" 
d="M324 727h152l-155 -167h-62zM554 250c0 -15 0 -29 -1 -42h-409c8 -93 53 -132 164 -132c89 0 120 18 143 75l91 -37c-33 -83 -112 -124 -235 -124c-167 0 -266 97 -266 249c0 75 24 136 72 182c47 46 111 69 190 69c155 0 251 -93 251 -240zM303 406
c-100 0 -147 -38 -158 -123h307c-5 89 -46 123 -149 123z" />
    <glyph glyph-name="ecircumflex" unicode="&#xea;" horiz-adv-x="594" 
d="M397 560l-94 80l-95 -80h-66l117 167h87l117 -167h-66zM554 250c0 -15 0 -29 -1 -42h-409c8 -93 53 -132 164 -132c89 0 120 18 143 75l91 -37c-33 -83 -112 -124 -235 -124c-167 0 -266 97 -266 249c0 75 24 136 72 182c47 46 111 69 190 69c155 0 251 -93 251 -240z
M303 406c-100 0 -147 -38 -158 -123h307c-5 89 -46 123 -149 123z" />
    <glyph glyph-name="edieresis" unicode="&#xeb;" horiz-adv-x="594" 
d="M196 579c-44 0 -70 25 -70 69c-1 43 23 66 70 66c45 0 69 -22 70 -66c0 -44 -25 -69 -70 -69zM408 579c-44 0 -70 25 -70 69c-1 43 23 66 70 66c45 0 69 -22 70 -66c0 -44 -25 -69 -70 -69zM554 250c0 -15 0 -29 -1 -42h-409c8 -93 53 -132 164 -132c89 0 120 18 143 75
l91 -37c-33 -83 -112 -124 -235 -124c-167 0 -266 97 -266 249c0 75 24 136 72 182c47 46 111 69 190 69c155 0 251 -93 251 -240zM303 406c-100 0 -147 -38 -158 -123h307c-5 89 -46 123 -149 123z" />
    <glyph glyph-name="igrave" unicode="&#xec;" horiz-adv-x="259" 
d="M97 560l-155 167h152l65 -167h-62zM181 480v-480h-102v480h102z" />
    <glyph glyph-name="iacute" unicode="&#xed;" horiz-adv-x="259" 
d="M165 727h152l-155 -167h-62zM180 0h-102v480h102v-480z" />
    <glyph glyph-name="icircumflex" unicode="&#xee;" horiz-adv-x="259" 
d="M87 727h87l117 -167h-66l-94 80l-95 -80h-66zM180 0h-102v480h102v-480z" />
    <glyph glyph-name="idieresis" unicode="&#xef;" horiz-adv-x="259" 
d="M24 579c-44 0 -70 25 -70 69c-1 43 23 66 70 66c45 0 69 -22 70 -66c0 -44 -25 -69 -70 -69zM236 579c-44 0 -70 25 -70 69c-1 43 23 66 70 66c45 0 69 -22 70 -66c0 -44 -25 -69 -70 -69zM180 0h-102v480h102v-480z" />
    <glyph glyph-name="eth" unicode="&#xf0;" horiz-adv-x="642" 
d="M505 623l-89 -28c123 -96 185 -207 185 -334c0 -85 -26 -151 -78 -199c-53 -48 -120 -72 -201 -72s-148 23 -201 70c-53 46 -80 107 -80 184c0 72 24 131 73 177c48 46 111 69 189 69c84 0 150 -32 198 -96c-33 66 -93 123 -181 171l-165 -52l-20 57l106 33
c-29 13 -67 28 -115 46l62 80c60 -27 116 -57 167 -90l130 41zM143 240c0 -105 59 -158 178 -158s178 53 178 158s-59 158 -178 158s-178 -53 -178 -158z" />
    <glyph glyph-name="ntilde" unicode="&#xf1;" horiz-adv-x="645" 
d="M258 632c-19 0 -24 -15 -24 -58h-53c0 105 21 138 77 138c76 0 111 -77 151 -77c16 0 24 19 24 57h53c0 -96 -25 -136 -78 -136c-63 -3 -122 79 -150 76zM374 490c131 0 197 -72 197 -215v-275h-102v258c0 93 -43 139 -129 139c-105 0 -160 -60 -160 -171v-226h-102v480
h102v-119c27 86 92 129 194 129z" />
    <glyph glyph-name="ograve" unicode="&#xf2;" horiz-adv-x="637" 
d="M288 560l-155 167h151l66 -167h-62zM118 422c51 45 117 68 200 68s150 -23 201 -68c51 -46 77 -107 77 -182s-26 -136 -77 -181c-51 -46 -118 -69 -201 -69s-149 23 -200 69c-51 45 -77 106 -77 181s26 136 77 182zM318 83c125 0 175 48 175 157s-50 157 -175 157
c-124 0 -174 -48 -174 -157s50 -157 174 -157z" />
    <glyph glyph-name="oacute" unicode="&#xf3;" horiz-adv-x="637" 
d="M340 727h152l-155 -167h-62zM118 422c51 45 117 68 200 68s150 -23 201 -68c51 -46 77 -107 77 -182s-26 -136 -77 -181c-51 -46 -118 -69 -201 -69s-149 23 -200 69c-51 45 -77 106 -77 181s26 136 77 182zM318 83c125 0 175 48 175 157s-50 157 -175 157
c-124 0 -174 -48 -174 -157s50 -157 174 -157z" />
    <glyph glyph-name="ocircumflex" unicode="&#xf4;" horiz-adv-x="637" 
d="M413 560l-94 80l-95 -80h-66l117 167h87l117 -167h-66zM118 422c51 45 117 68 200 68s150 -23 201 -68c51 -46 77 -107 77 -182s-26 -136 -77 -181c-51 -46 -118 -69 -201 -69s-149 23 -200 69c-51 45 -77 106 -77 181s26 136 77 182zM318 83c125 0 175 48 175 157
s-50 157 -175 157c-124 0 -174 -48 -174 -157s50 -157 174 -157z" />
    <glyph glyph-name="otilde" unicode="&#xf5;" horiz-adv-x="637" 
d="M384 556c-65 -3 -122 79 -151 76c-19 0 -24 -15 -24 -58h-53c0 105 22 138 78 138c77 0 109 -77 150 -77c16 0 24 19 24 57h53c0 -97 -24 -136 -77 -136zM118 422c51 45 117 68 200 68s150 -23 201 -68c51 -46 77 -107 77 -182s-26 -136 -77 -181
c-51 -46 -118 -69 -201 -69s-149 23 -200 69c-51 45 -77 106 -77 181s26 136 77 182zM318 83c125 0 175 48 175 157s-50 157 -175 157c-124 0 -174 -48 -174 -157s50 -157 174 -157z" />
    <glyph glyph-name="odieresis" unicode="&#xf6;" horiz-adv-x="637" 
d="M212 579c-44 0 -70 25 -70 69c-1 43 23 66 70 66c45 0 69 -22 70 -66c0 -44 -25 -69 -70 -69zM424 579c-44 0 -70 25 -70 69c-1 43 23 66 70 66c45 0 69 -22 70 -66c0 -44 -25 -69 -70 -69zM118 422c51 45 117 68 200 68s150 -23 201 -68c51 -46 77 -107 77 -182
s-26 -136 -77 -181c-51 -46 -118 -69 -201 -69s-149 23 -200 69c-51 45 -77 106 -77 181s26 136 77 182zM318 83c125 0 175 48 175 157s-50 157 -175 157c-124 0 -174 -48 -174 -157s50 -157 174 -157z" />
    <glyph glyph-name="divide" unicode="&#xf7;" 
d="M341 406c-47 0 -73 25 -72 70c0 45 25 70 72 70s72 -25 71 -70c-1 -47 -25 -70 -71 -70zM581 242h-482v87h482v-87zM341 26c-47 0 -73 25 -72 70c0 45 25 70 72 70s72 -25 71 -70c-1 -47 -25 -70 -71 -70z" />
    <glyph glyph-name="oslash" unicode="&#xf8;" horiz-adv-x="637" 
d="M555 461l-36 -39c51 -46 77 -107 77 -182s-26 -136 -77 -181c-51 -46 -118 -69 -201 -69c-50 0 -94 9 -133 26l-42 -56l-63 55l38 43c-51 45 -77 106 -77 182c0 75 26 136 77 182c51 45 117 68 200 68c49 0 94 -9 134 -26l39 52zM144 240c0 -51 12 -89 35 -114l119 133
l97 130c-23 5 -48 8 -77 8c-124 0 -174 -48 -174 -157zM318 83c125 0 175 48 175 157c0 51 -12 89 -35 114l-118 -131l-99 -132c23 -5 49 -8 77 -8z" />
    <glyph glyph-name="ugrave" unicode="&#xf9;" horiz-adv-x="645" 
d="M301 727l65 -167h-62l-155 167h152zM465 254v226h102v-480h-102v119c-27 -86 -92 -129 -194 -129c-131 0 -197 72 -197 215v275h102v-258c0 -93 43 -139 129 -139c105 0 160 60 160 171z" />
    <glyph glyph-name="uacute" unicode="&#xfa;" horiz-adv-x="645" 
d="M345 727h152l-155 -167h-62zM465 254v226h102v-480h-102v119c-27 -86 -92 -129 -194 -129c-131 0 -197 72 -197 215v275h102v-258c0 -93 43 -139 129 -139c105 0 160 60 160 171z" />
    <glyph glyph-name="ucircumflex" unicode="&#xfb;" horiz-adv-x="645" 
d="M418 560l-94 80l-95 -80h-66l117 167h87l117 -167h-66zM465 254v226h102v-480h-102v119c-27 -86 -92 -129 -194 -129c-131 0 -197 72 -197 215v275h102v-258c0 -93 43 -139 129 -139c105 0 160 60 160 171z" />
    <glyph glyph-name="udieresis" unicode="&#xfc;" horiz-adv-x="645" 
d="M217 579c-44 0 -70 25 -70 69c-1 43 23 66 70 66c45 0 69 -22 70 -66c0 -44 -25 -69 -70 -69zM429 579c-44 0 -70 25 -70 69c-1 43 23 66 70 66c45 0 69 -22 70 -66c0 -44 -25 -69 -70 -69zM465 254v226h102v-480h-102v119c-27 -86 -92 -129 -194 -129
c-131 0 -197 72 -197 215v275h102v-258c0 -93 43 -139 129 -139c105 0 160 60 160 171z" />
    <glyph glyph-name="yacute" unicode="&#xfd;" horiz-adv-x="581" 
d="M319 727h152l-155 -167h-62zM328 178l125 302h115l-250 -549c-33 -71 -69 -101 -157 -101h-103v91h171l12 32l-228 527h114l125 -303l35 -106z" />
    <glyph glyph-name="thorn" unicode="&#xfe;" horiz-adv-x="669" 
d="M382 490c157 0 246 -97 246 -250s-89 -250 -249 -250c-87 0 -162 46 -199 125v-285h-102v870h102v-335c39 79 114 125 202 125zM351 83c125 0 174 46 174 157s-49 157 -174 157c-117 0 -175 -52 -175 -157s58 -157 175 -157z" />
    <glyph glyph-name="ydieresis" unicode="&#xff;" horiz-adv-x="581" 
d="M191 579c-44 0 -70 25 -70 69c-1 43 23 66 70 66c45 0 69 -22 70 -66c0 -44 -25 -69 -70 -69zM403 579c-44 0 -70 25 -70 69c-1 43 23 66 70 66c45 0 69 -22 70 -66c0 -44 -25 -69 -70 -69zM328 178l125 302h115l-250 -549c-33 -71 -69 -101 -157 -101h-103v91h171l12 32
l-228 527h114l125 -303l35 -106z" />
    <glyph glyph-name="Amacron" unicode="&#x100;" horiz-adv-x="791" 
d="M255 860h280v-75h-280v75zM778 0h-115l-81 183h-374l-81 -183h-114l310 700h146zM348 500l-99 -223h292l-99 223l-46 115z" />
    <glyph glyph-name="amacron" unicode="&#x101;" horiz-adv-x="669" 
d="M190 670h280v-75h-280v75zM488 366v114h102v-480h-102v113c-39 -77 -113 -123 -198 -123c-160 0 -249 97 -249 250s88 250 245 250c88 0 163 -45 202 -124zM318 83c117 0 175 52 175 157s-58 157 -175 157c-125 0 -174 -46 -174 -157s49 -157 174 -157z" />
    <glyph glyph-name="Abreve" unicode="&#x102;" horiz-adv-x="791" 
d="M393 765c-87 0 -148 58 -149 143h89c0 -51 16 -69 60 -69c47 0 64 18 65 69h88c-1 -85 -64 -143 -153 -143zM778 0h-115l-81 183h-374l-81 -183h-114l310 700h146zM348 500l-99 -223h292l-99 223l-46 115z" />
    <glyph glyph-name="abreve" unicode="&#x103;" horiz-adv-x="669" 
d="M328 562c-87 0 -146 57 -149 144h89c0 -51 16 -69 60 -69c47 0 64 18 65 69h88c-1 -85 -64 -144 -153 -144zM488 366v114h102v-480h-102v113c-39 -77 -113 -123 -198 -123c-160 0 -249 97 -249 250s88 250 245 250c88 0 163 -45 202 -124zM318 83c117 0 175 52 175 157
s-58 157 -175 157c-125 0 -174 -46 -174 -157s49 -157 174 -157z" />
    <glyph glyph-name="Aogonek" unicode="&#x104;" horiz-adv-x="791" 
d="M652 -63c0 -23 17 -37 44 -37c21 0 39 3 56 10v-70c-22 -7 -46 -11 -72 -11c-72 0 -112 37 -112 86c0 40 30 72 90 96l-76 172h-374l-81 -183h-114l310 700h146l309 -700h-79c-31 -23 -47 -44 -47 -63zM348 500l-99 -223h292l-99 223l-46 115z" />
    <glyph glyph-name="aogonek" unicode="&#x105;" horiz-adv-x="669" 
d="M590 0h-36c-32 -21 -37 -25 -54 -41c-17 -15 -21 -26 -21 -42c0 -23 17 -37 44 -37c21 0 39 3 56 10v-70c-22 -7 -46 -11 -72 -11c-72 0 -112 37 -112 86c0 45 38 80 114 105h-21v113c-39 -77 -113 -123 -198 -123c-160 0 -249 97 -249 250s88 250 245 250
c88 0 163 -45 202 -124v114h102v-480zM318 83c117 0 175 52 175 157s-58 157 -175 157c-125 0 -174 -46 -174 -157s49 -157 174 -157z" />
    <glyph glyph-name="Cacute" unicode="&#x106;" horiz-adv-x="861" 
d="M473 927h152l-155 -167h-62zM444 87c93 0 160 15 199 44s65 83 77 162l104 -25c-32 -181 -161 -278 -380 -278c-119 0 -215 34 -288 101c-74 67 -111 154 -111 261s37 193 111 259c73 66 169 99 288 99c219 0 348 -97 380 -278l-104 -25c-12 79 -38 134 -77 163
s-106 43 -199 43c-106 0 -181 -20 -224 -59s-65 -107 -65 -202c0 -97 22 -166 65 -205c43 -40 118 -60 224 -60z" />
    <glyph glyph-name="cacute" unicode="&#x107;" horiz-adv-x="637" 
d="M357 727h152l-155 -167h-62zM326 82c105 0 150 30 169 122l101 -25c-31 -126 -121 -189 -270 -189c-89 0 -158 23 -209 68s-76 106 -76 182s25 137 76 182s120 68 209 68c149 0 239 -63 270 -189l-101 -25c-19 92 -64 122 -169 122c-131 0 -182 -49 -182 -158
s51 -158 182 -158z" />
    <glyph glyph-name="Cdotaccent" unicode="&#x10a;" horiz-adv-x="861" 
d="M451 779c-45 0 -69 23 -70 69c-1 43 25 66 70 66s69 -22 70 -66s-25 -69 -70 -69zM444 87c93 0 160 15 199 44s65 83 77 162l104 -25c-32 -181 -161 -278 -380 -278c-119 0 -215 34 -288 101c-74 67 -111 154 -111 261s37 193 111 259c73 66 169 99 288 99
c219 0 348 -97 380 -278l-104 -25c-12 79 -38 134 -77 163s-106 43 -199 43c-106 0 -181 -20 -224 -59s-65 -107 -65 -202c0 -97 22 -166 65 -205c43 -40 118 -60 224 -60z" />
    <glyph glyph-name="cdotaccent" unicode="&#x10b;" horiz-adv-x="637" 
d="M335 579c-45 0 -69 23 -70 69c-1 43 25 66 70 66s69 -22 70 -66s-25 -69 -70 -69zM326 82c105 0 150 30 169 122l101 -25c-31 -126 -121 -189 -270 -189c-89 0 -158 23 -209 68s-76 106 -76 182s25 137 76 182s120 68 209 68c149 0 239 -63 270 -189l-101 -25
c-19 92 -64 122 -169 122c-131 0 -182 -49 -182 -158s51 -158 182 -158z" />
    <glyph glyph-name="Ccaron" unicode="&#x10c;" horiz-adv-x="861" 
d="M612 927l-117 -167h-87l-117 167h66l95 -80l94 80h66zM444 87c93 0 160 15 199 44s65 83 77 162l104 -25c-32 -181 -161 -278 -380 -278c-119 0 -215 34 -288 101c-74 67 -111 154 -111 261s37 193 111 259c73 66 169 99 288 99c219 0 348 -97 380 -278l-104 -25
c-12 79 -38 134 -77 163s-106 43 -199 43c-106 0 -181 -20 -224 -59s-65 -107 -65 -202c0 -97 22 -166 65 -205c43 -40 118 -60 224 -60z" />
    <glyph glyph-name="ccaron" unicode="&#x10d;" horiz-adv-x="637" 
d="M496 727l-117 -167h-87l-117 167h66l95 -80l94 80h66zM326 82c105 0 150 30 169 122l101 -25c-31 -126 -121 -189 -270 -189c-89 0 -158 23 -209 68s-76 106 -76 182s25 137 76 182s120 68 209 68c149 0 239 -63 270 -189l-101 -25c-19 92 -64 122 -169 122
c-131 0 -182 -49 -182 -158s51 -158 182 -158z" />
    <glyph glyph-name="Dcaron" unicode="&#x10e;" horiz-adv-x="848" 
d="M558 927l-117 -167h-87l-117 167h66l95 -80l94 80h66zM90 700h336c117 0 209 -32 276 -95c67 -64 101 -149 101 -255s-34 -191 -101 -254c-67 -64 -159 -96 -276 -96h-336v700zM196 94h228c99 0 168 19 209 58s61 105 61 198s-20 159 -61 198s-110 58 -209 58h-228v-512z
" />
    <glyph glyph-name="dcaron" unicode="&#x10f;" horiz-adv-x="669" 
d="M489 365v335h102v-700h-102v115c-37 -79 -112 -125 -199 -125c-160 0 -249 97 -249 250s89 250 246 250c88 0 163 -46 202 -125zM680 457v243h110l-51 -243h-59zM318 83c117 0 175 52 175 157s-58 157 -175 157c-125 0 -174 -46 -174 -157s49 -157 174 -157z" />
    <glyph glyph-name="Dcroat" unicode="&#x110;" horiz-adv-x="848" 
d="M90 700h336c117 0 209 -32 276 -95c67 -64 101 -149 101 -255s-34 -191 -101 -254c-67 -64 -159 -96 -276 -96h-336v316h-89v79h89v305zM196 94h228c99 0 168 19 209 58s61 105 61 198s-20 159 -61 198s-110 58 -209 58h-228v-211h127v-79h-127v-222z" />
    <glyph glyph-name="dslash" unicode="&#x111;" horiz-adv-x="669" 
d="M591 626h100v-76h-100v-550h-102v115c-37 -79 -112 -125 -199 -125c-160 0 -249 97 -249 250s89 250 246 250c88 0 163 -46 202 -125v185h-147v76h147v74h102v-74zM318 83c117 0 175 52 175 157s-58 157 -175 157c-125 0 -174 -46 -174 -157s49 -157 174 -157z" />
    <glyph glyph-name="Emacron" unicode="&#x112;" horiz-adv-x="676" 
d="M215 785v75h280v-75h-280zM613 700v-97h-418v-177h397v-96h-397v-233h418v-97h-523v700h523z" />
    <glyph glyph-name="emacron" unicode="&#x113;" horiz-adv-x="594" 
d="M162 670h280v-75h-280v75zM554 250c0 -15 0 -29 -1 -42h-409c8 -93 53 -132 164 -132c89 0 120 18 143 75l91 -37c-33 -83 -112 -124 -235 -124c-167 0 -266 97 -266 249c0 75 24 136 72 182c47 46 111 69 190 69c155 0 251 -93 251 -240zM303 406
c-100 0 -147 -38 -158 -123h307c-5 89 -46 123 -149 123z" />
    <glyph glyph-name="Edotaccent" unicode="&#x116;" horiz-adv-x="676" 
d="M355 779c-45 0 -69 23 -70 69c-1 43 25 66 70 66s69 -22 70 -66s-25 -69 -70 -69zM613 700v-97h-418v-177h397v-96h-397v-233h418v-97h-523v700h523z" />
    <glyph glyph-name="edotaccent" unicode="&#x117;" horiz-adv-x="594" 
d="M302 579c-45 0 -69 23 -70 69c-1 43 25 66 70 66s69 -22 70 -66s-25 -69 -70 -69zM554 250c0 -15 0 -29 -1 -42h-409c8 -93 53 -132 164 -132c89 0 120 18 143 75l91 -37c-33 -83 -112 -124 -235 -124c-167 0 -266 97 -266 249c0 75 24 136 72 182c47 46 111 69 190 69
c155 0 251 -93 251 -240zM303 406c-100 0 -147 -38 -158 -123h307c-5 89 -46 123 -149 123z" />
    <glyph glyph-name="Eogonek" unicode="&#x118;" horiz-adv-x="676" 
d="M613 700v-97h-418v-177h397v-96h-397v-233h418v-97h-38c-33 -23 -44 -31 -56 -49c-6 -9 -9 -18 -9 -27c0 -23 17 -37 44 -37c21 0 39 3 56 10v-70c-22 -7 -46 -11 -72 -11c-72 0 -112 37 -112 86c0 40 32 73 95 98h-431v700h523z" />
    <glyph glyph-name="eogonek" unicode="&#x119;" horiz-adv-x="594" 
d="M554 250c0 -15 0 -29 -1 -42h-409c8 -93 53 -132 164 -132c89 0 120 18 143 75l91 -37c-11 -27 -27 -50 -47 -67c-17 -17 -41 -43 -52 -54s-26 -28 -32 -36c-11 -14 -17 -27 -17 -40c0 -23 17 -37 45 -37c20 0 38 3 55 10v-70c-21 -7 -44 -11 -71 -11
c-73 0 -112 29 -112 76c0 37 26 69 102 118c-30 -9 -65 -13 -106 -13c-167 0 -266 97 -266 249c0 75 24 136 72 182c47 46 111 69 190 69c155 0 251 -93 251 -240zM303 406c-100 0 -147 -38 -158 -123h307c-5 89 -46 123 -149 123z" />
    <glyph glyph-name="Ecaron" unicode="&#x11a;" horiz-adv-x="676" 
d="M516 927l-117 -167h-87l-117 167h66l95 -80l94 80h66zM613 700v-97h-418v-177h397v-96h-397v-233h418v-97h-523v700h523z" />
    <glyph glyph-name="ecaron" unicode="&#x11b;" horiz-adv-x="594" 
d="M463 727l-117 -167h-87l-117 167h66l95 -80l94 80h66zM554 250c0 -15 0 -29 -1 -42h-409c8 -93 53 -132 164 -132c89 0 120 18 143 75l91 -37c-33 -83 -112 -124 -235 -124c-167 0 -266 97 -266 249c0 75 24 136 72 182c47 46 111 69 190 69c155 0 251 -93 251 -240z
M303 406c-100 0 -147 -38 -158 -123h307c-5 89 -46 123 -149 123z" />
    <glyph glyph-name="Gbreve" unicode="&#x11e;" horiz-adv-x="886" 
d="M456 765c-87 0 -148 58 -149 143h89c0 -51 16 -69 60 -69c47 0 64 18 65 69h88c-1 -85 -64 -143 -153 -143zM507 274v91h311v-365h-95l1 156c-37 -111 -134 -166 -289 -166c-117 0 -211 34 -282 102c-72 67 -108 154 -108 260c0 108 36 195 109 260s172 98 299 98
c196 0 326 -85 358 -244l-95 -41c-16 70 -43 119 -82 147c-39 27 -100 41 -183 41c-107 0 -183 -20 -228 -60s-68 -107 -68 -202c0 -96 23 -164 69 -205c45 -41 122 -62 229 -62c167 0 256 63 265 190h-211z" />
    <glyph glyph-name="gbreve" unicode="&#x11f;" horiz-adv-x="651" 
d="M320 562c-87 0 -146 57 -149 144h89c0 -51 16 -69 60 -69c47 0 64 18 65 69h88c-1 -85 -64 -144 -153 -144zM471 383v97h101v-439c0 -137 -94 -221 -267 -221c-143 0 -230 44 -260 133l98 42c11 -36 28 -60 51 -72c22 -12 60 -18 114 -18c117 0 163 37 163 124v100
c-35 -70 -100 -105 -194 -105c-148 0 -236 92 -236 233s87 233 235 233c94 0 159 -36 195 -107zM309 115c116 0 167 46 167 141c0 97 -51 143 -166 143c-119 0 -166 -44 -166 -143c0 -97 46 -141 165 -141z" />
    <glyph glyph-name="Gdotaccent" unicode="&#x120;" horiz-adv-x="886" 
d="M458 779c-45 0 -69 23 -70 69c-1 43 25 66 70 66s69 -22 70 -66s-25 -69 -70 -69zM507 274v91h311v-365h-95l1 156c-37 -111 -134 -166 -289 -166c-117 0 -211 34 -282 102c-72 67 -108 154 -108 260c0 108 36 195 109 260s172 98 299 98c196 0 326 -85 358 -244l-95 -41
c-16 70 -43 119 -82 147c-39 27 -100 41 -183 41c-107 0 -183 -20 -228 -60s-68 -107 -68 -202c0 -96 23 -164 69 -205c45 -41 122 -62 229 -62c167 0 256 63 265 190h-211z" />
    <glyph glyph-name="gdotaccent" unicode="&#x121;" horiz-adv-x="651" 
d="M322 579c-45 0 -69 23 -70 69c-1 43 25 66 70 66s69 -22 70 -66s-25 -69 -70 -69zM471 383v97h101v-439c0 -137 -94 -221 -267 -221c-143 0 -230 44 -260 133l98 42c11 -36 28 -60 51 -72c22 -12 60 -18 114 -18c117 0 163 37 163 124v100c-35 -70 -100 -105 -194 -105
c-148 0 -236 92 -236 233s87 233 235 233c94 0 159 -36 195 -107zM309 115c116 0 167 46 167 141c0 97 -51 143 -166 143c-119 0 -166 -44 -166 -143c0 -97 46 -141 165 -141z" />
    <glyph glyph-name="uni0122" unicode="&#x122;" horiz-adv-x="886" 
d="M507 274v91h311v-365h-95l1 156c-37 -111 -134 -166 -289 -166c-117 0 -211 34 -282 102c-72 67 -108 154 -108 260c0 108 36 195 109 260s172 98 299 98c196 0 326 -85 358 -244l-95 -41c-16 70 -43 119 -82 147c-39 27 -100 41 -183 41c-107 0 -183 -20 -228 -60
s-68 -107 -68 -202c0 -96 23 -164 69 -205c45 -41 122 -62 229 -62c167 0 256 63 265 190h-211zM383 -53c35 33 107 11 102 -40c0 -13 -3 -23 -9 -32l-62 -97h-81l83 71c-29 4 -49 27 -50 58c-1 17 5 30 17 40z" />
    <glyph glyph-name="uni0123" unicode="&#x123;" horiz-adv-x="651" 
d="M327 544c-39 0 -59 19 -59 56c0 17 5 34 15 52l68 121h81l-104 -114c35 0 58 -24 58 -59c1 -36 -20 -56 -59 -56zM471 383v97h101v-439c0 -137 -94 -221 -267 -221c-143 0 -230 44 -260 133l98 42c11 -36 28 -60 51 -72c22 -12 60 -18 114 -18c117 0 163 37 163 124v100
c-35 -70 -100 -105 -194 -105c-148 0 -236 92 -236 233s87 233 235 233c94 0 159 -36 195 -107zM309 115c116 0 167 46 167 141c0 97 -51 143 -166 143c-119 0 -166 -44 -166 -143c0 -97 46 -141 165 -141z" />
    <glyph glyph-name="Hbar" unicode="&#x126;" horiz-adv-x="824" 
d="M734 594h74v-75h-74v-519h-106v314h-432v-314h-106v519h-76v75h76v106h106v-106h432v106h106v-106zM196 411h432v108h-432v-108z" />
    <glyph glyph-name="hbar" unicode="&#x127;" horiz-adv-x="645" 
d="M374 490c131 0 197 -72 197 -215v-275h-102v258c0 93 -43 139 -129 139c-105 0 -160 -60 -160 -171v-226h-102v550h-104v76h104v74h102v-74h143v-76h-143v-189c27 86 92 129 194 129z" />
    <glyph glyph-name="Imacron" unicode="&#x12a;" horiz-adv-x="287" 
d="M4 785v75h280v-75h-280zM197 0h-107v700h107v-700z" />
    <glyph glyph-name="imacron" unicode="&#x12b;" horiz-adv-x="259" 
d="M-10 595v75h280v-75h-280zM180 0h-102v480h102v-480z" />
    <glyph glyph-name="Iogonek" unicode="&#x12e;" horiz-adv-x="287" 
d="M144 -120c21 0 39 3 56 10v-70c-22 -7 -46 -11 -72 -11c-72 0 -112 37 -112 86c0 45 38 80 114 105h-40v700h107v-700h-22c-32 -21 -37 -25 -54 -41c-17 -15 -21 -26 -21 -42c0 -23 17 -37 44 -37z" />
    <glyph glyph-name="iogonek" unicode="&#x12f;" horiz-adv-x="259" 
d="M130 579c-45 0 -69 23 -70 69c-1 43 25 66 70 66s69 -22 70 -66s-25 -69 -70 -69zM83 -83c0 -23 17 -37 44 -37c21 0 39 3 56 10v-70c-22 -7 -46 -11 -72 -11c-72 0 -112 37 -112 86c0 45 38 80 114 105h-35v480h102v-480h-22c-32 -21 -37 -25 -54 -41
c-17 -15 -21 -26 -21 -42z" />
    <glyph glyph-name="Idot" unicode="&#x130;" horiz-adv-x="287" 
d="M144 779c-45 0 -69 23 -70 69c-1 43 25 66 70 66s69 -22 70 -66s-25 -69 -70 -69zM197 0h-107v700h107v-700z" />
    <glyph glyph-name="dotlessi" unicode="&#x131;" horiz-adv-x="259" 
d="M180 0h-102v480h102v-480z" />
    <glyph glyph-name="IJ" unicode="&#x132;" horiz-adv-x="717" 
d="M80 238l109 16c-3 -65 8 -109 33 -132c24 -23 69 -35 135 -35s112 11 137 32s37 60 37 116v465h106v-460c0 -164 -97 -250 -277 -250c-89 0 -156 18 -203 55c-47 36 -73 100 -77 193zM190 347l-106 -14v367h106v-353z" />
    <glyph glyph-name="ij" unicode="&#x133;" horiz-adv-x="518" 
d="M130 579c-45 0 -69 23 -70 69c-1 43 25 66 70 66s69 -22 70 -66s-25 -69 -70 -69zM389 579c-45 0 -69 23 -70 69c-1 43 25 66 70 66s69 -22 70 -66s-25 -69 -70 -69zM180 0h-102v480h102v-480zM306 -170h-101v93h133v557h102v-517c0 -80 -54 -133 -134 -133z" />
    <glyph glyph-name="uni0136" unicode="&#x136;" horiz-adv-x="765" 
d="M735 700l-281 -262l296 -438h-133l-243 363l-177 -165v-198h-107v700h107v-399l128 144l266 255h144zM325 -53c35 33 107 11 102 -40c0 -13 -3 -23 -9 -32l-62 -97h-81l83 71c-29 4 -49 27 -50 58c-1 17 5 30 17 40z" />
    <glyph glyph-name="uni0137" unicode="&#x137;" horiz-adv-x="603" 
d="M567 480l-212 -199l228 -281h-125l-169 219l-110 -103v-116h-101v700h101v-490l82 104l174 166h132zM263 -53c35 33 107 11 102 -40c0 -13 -3 -23 -9 -32l-62 -97h-81l83 71c-29 4 -49 27 -50 58c-1 17 5 30 17 40z" />
    <glyph glyph-name="Lacute" unicode="&#x139;" horiz-adv-x="621" 
d="M192 927h152l-155 -167h-62zM197 700v-606h400v-94h-507v700h107z" />
    <glyph glyph-name="lacute" unicode="&#x13a;" horiz-adv-x="259" 
d="M161 927h152l-156 -167h-61zM180 0h-102v700h102v-700z" />
    <glyph glyph-name="uni013B" unicode="&#x13b;" horiz-adv-x="621" 
d="M197 700v-606h400v-94h-507v700h107zM297 -53c35 33 107 11 102 -40c0 -13 -3 -23 -9 -32l-62 -97h-81l83 71c-29 4 -49 27 -50 58c-1 17 5 30 17 40z" />
    <glyph glyph-name="uni013C" unicode="&#x13c;" horiz-adv-x="259" 
d="M78 0v700h102v-700h-102zM77 -53c35 33 107 11 102 -40c0 -13 -3 -23 -9 -32l-62 -97h-81l83 71c-29 4 -49 27 -50 58c-1 17 5 30 17 40z" />
    <glyph glyph-name="Lcaron" unicode="&#x13d;" horiz-adv-x="621" 
d="M197 700v-606h400v-94h-507v700h107zM347 700h110l-51 -243h-59v243z" />
    <glyph glyph-name="lcaron" unicode="&#x13e;" horiz-adv-x="259" 
d="M180 0h-102v700h102v-700zM327 457h-59v243h110z" />
    <glyph glyph-name="Lslash" unicode="&#x141;" horiz-adv-x="621" 
d="M197 311v-217h400v-94h-507v242l-96 -67v94l96 52v379h107v-317l220 132v-95z" />
    <glyph glyph-name="lslash" unicode="&#x142;" horiz-adv-x="259" 
d="M180 408l81 77v-107l-81 -60v-318h-102v224l-76 -74v107l76 59v384h102v-292z" />
    <glyph glyph-name="Nacute" unicode="&#x143;" horiz-adv-x="869" 
d="M462 927h152l-155 -167h-62zM672 111v589h107v-700h-150l-359 479l-73 106v-585h-107v700h151l357 -476z" />
    <glyph glyph-name="nacute" unicode="&#x144;" horiz-adv-x="645" 
d="M355 727h152l-155 -167h-62zM374 490c131 0 197 -72 197 -215v-275h-102v258c0 93 -43 139 -129 139c-105 0 -160 -60 -160 -171v-226h-102v480h102v-119c27 86 92 129 194 129z" />
    <glyph glyph-name="uni0145" unicode="&#x145;" horiz-adv-x="869" 
d="M672 111v589h107v-700h-150l-359 479l-73 106v-585h-107v700h151l357 -476zM389 -53c35 33 107 11 102 -40c0 -13 -3 -23 -9 -32l-62 -97h-81l83 71c-29 4 -49 27 -50 58c-1 17 5 30 17 40z" />
    <glyph glyph-name="uni0146" unicode="&#x146;" horiz-adv-x="645" 
d="M374 490c131 0 197 -72 197 -215v-275h-102v258c0 93 -43 139 -129 139c-105 0 -160 -60 -160 -171v-226h-102v480h102v-119c27 86 92 129 194 129zM282 -53c35 33 107 11 102 -40c0 -13 -3 -23 -9 -32l-62 -97h-81l83 71c-29 4 -49 27 -50 58c-1 17 5 30 17 40z" />
    <glyph glyph-name="Ncaron" unicode="&#x147;" horiz-adv-x="869" 
d="M601 927l-117 -167h-87l-117 167h66l95 -80l94 80h66zM672 111v589h107v-700h-150l-359 479l-73 106v-585h-107v700h151l357 -476z" />
    <glyph glyph-name="ncaron" unicode="&#x148;" horiz-adv-x="645" 
d="M494 727l-117 -167h-87l-117 167h66l95 -80l94 80h66zM374 490c131 0 197 -72 197 -215v-275h-102v258c0 93 -43 139 -129 139c-105 0 -160 -60 -160 -171v-226h-102v480h102v-119c27 86 92 129 194 129z" />
    <glyph glyph-name="Eng" unicode="&#x14a;" horiz-adv-x="867" 
d="M671 116v584h106v-737c0 -80 -55 -133 -136 -133h-114v93h144v13l-401 534l-74 111v-581h-106v700h150l355 -468z" />
    <glyph glyph-name="eng" unicode="&#x14b;" horiz-adv-x="645" 
d="M374 490c131 0 197 -72 197 -215v-312c0 -80 -53 -133 -133 -133h-51v93h82v335c0 93 -43 139 -129 139c-105 0 -160 -60 -160 -171v-226h-102v480h102v-119c27 86 92 129 194 129z" />
    <glyph glyph-name="Omacron" unicode="&#x14c;" horiz-adv-x="883" 
d="M302 785v75h280v-75h-280zM442 710c118 0 214 -33 287 -99s109 -152 109 -259s-37 -194 -110 -261s-169 -101 -286 -101c-118 0 -214 34 -287 101s-110 154 -110 261s37 193 110 259s168 99 287 99zM442 87c105 0 179 20 222 60s64 108 64 205c0 95 -21 163 -64 202
s-117 59 -222 59s-179 -20 -222 -59s-65 -107 -65 -202c0 -97 22 -165 65 -205s117 -60 222 -60z" />
    <glyph glyph-name="omacron" unicode="&#x14d;" horiz-adv-x="637" 
d="M178 595v75h280v-75h-280zM118 422c51 45 117 68 200 68s150 -23 201 -68c51 -46 77 -107 77 -182s-26 -136 -77 -181c-51 -46 -118 -69 -201 -69s-149 23 -200 69c-51 45 -77 106 -77 181s26 136 77 182zM318 83c125 0 175 48 175 157s-50 157 -175 157
c-124 0 -174 -48 -174 -157s50 -157 174 -157z" />
    <glyph glyph-name="Ohungarumlaut" unicode="&#x150;" horiz-adv-x="883" 
d="M392 927h152l-155 -167h-62zM550 927h152l-156 -167h-61zM442 710c118 0 214 -33 287 -99s109 -152 109 -259s-37 -194 -110 -261s-169 -101 -286 -101c-118 0 -214 34 -287 101s-110 154 -110 261s37 193 110 259s168 99 287 99zM442 87c105 0 179 20 222 60
s64 108 64 205c0 95 -21 163 -64 202s-117 59 -222 59s-179 -20 -222 -59s-65 -107 -65 -202c0 -97 22 -165 65 -205s117 -60 222 -60z" />
    <glyph glyph-name="ohungarumlaut" unicode="&#x151;" horiz-adv-x="637" 
d="M268 727h152l-155 -167h-62zM426 727h152l-156 -167h-61zM118 422c51 45 117 68 200 68s150 -23 201 -68c51 -46 77 -107 77 -182s-26 -136 -77 -181c-51 -46 -118 -69 -201 -69s-149 23 -200 69c-51 45 -77 106 -77 181s26 136 77 182zM318 83c125 0 175 48 175 157
s-50 157 -175 157c-124 0 -174 -48 -174 -157s50 -157 174 -157z" />
    <glyph glyph-name="OE" unicode="&#x152;" horiz-adv-x="1229" 
d="M545 700h621v-97h-429c50 -49 81 -108 94 -177h316v-96h-310c-5 -95 -39 -172 -102 -233h431v-97h-622c-31 -7 -65 -10 -102 -10c-118 0 -214 34 -287 101s-110 154 -110 261s37 193 110 259s168 99 287 99c38 0 72 -3 103 -10zM155 352c0 -97 22 -165 65 -205
s117 -60 222 -60s179 20 222 60s64 108 64 205c0 95 -21 163 -64 202s-117 59 -222 59s-179 -20 -222 -59s-65 -107 -65 -202z" />
    <glyph glyph-name="oe" unicode="&#x153;" horiz-adv-x="1047" 
d="M1006 250c0 -15 0 -29 -1 -42h-408c8 -93 54 -132 163 -132c45 0 77 5 96 16s35 30 47 59l92 -37c-35 -83 -113 -124 -236 -124c-99 0 -171 30 -217 91c-51 -61 -126 -91 -224 -91c-83 0 -149 23 -200 69c-51 45 -77 106 -77 181s26 136 77 182c51 45 117 68 200 68
c99 0 174 -31 225 -93c47 62 118 93 212 93c155 0 251 -93 251 -240zM755 406c-99 0 -146 -38 -157 -123h306c-4 89 -46 123 -149 123zM318 83c125 0 175 48 175 157s-50 157 -175 157c-124 0 -174 -48 -174 -157s50 -157 174 -157z" />
    <glyph glyph-name="Racute" unicode="&#x154;" horiz-adv-x="727" 
d="M374 927h152l-155 -167h-62zM690 0h-128l-151 300h-216v-300h-105v700h357c71 0 127 -18 170 -54c42 -37 63 -85 63 -145c0 -105 -70 -180 -182 -197l59 -71zM449 606h-254v-214h254c91 0 121 27 121 108c0 79 -30 106 -121 106z" />
    <glyph glyph-name="racute" unicode="&#x155;" horiz-adv-x="457" 
d="M249 727h152l-155 -167h-62zM371 489c29 0 51 -3 66 -8v-99c-23 8 -48 12 -75 12c-116 0 -182 -74 -182 -186v-208h-102v480h102v-147c29 104 92 156 191 156z" />
    <glyph glyph-name="uni0156" unicode="&#x156;" horiz-adv-x="727" 
d="M557 233l133 -233h-128l-151 300h-216v-300h-105v700h357c71 0 127 -18 170 -54c42 -37 63 -85 63 -145c0 -105 -70 -180 -182 -197zM449 606h-254v-214h254c91 0 121 27 121 108c0 79 -30 106 -121 106zM304 -53c35 33 107 11 102 -40c0 -13 -3 -23 -9 -32l-62 -97h-81
l83 71c-29 4 -49 27 -50 58c-1 17 5 30 17 40z" />
    <glyph glyph-name="uni0157" unicode="&#x157;" horiz-adv-x="457" 
d="M371 489c29 0 51 -3 66 -8v-99c-23 8 -48 12 -75 12c-116 0 -182 -74 -182 -186v-208h-102v480h102v-147c29 104 92 156 191 156zM82 -53c35 33 107 11 102 -40c0 -13 -3 -23 -9 -32l-62 -97h-81l83 71c-29 4 -49 27 -50 58c-1 17 5 30 17 40z" />
    <glyph glyph-name="Rcaron" unicode="&#x158;" horiz-adv-x="727" 
d="M513 927l-117 -167h-87l-117 167h66l95 -80l94 80h66zM690 0h-128l-151 300h-216v-300h-105v700h357c71 0 127 -18 170 -54c42 -37 63 -85 63 -145c0 -105 -70 -180 -182 -197l59 -71zM449 606h-254v-214h254c91 0 121 27 121 108c0 79 -30 106 -121 106z" />
    <glyph glyph-name="rcaron" unicode="&#x159;" horiz-adv-x="457" 
d="M384 727l-117 -167h-87l-117 167h66l95 -80l94 80h66zM371 489c29 0 51 -3 66 -8v-99c-23 8 -48 12 -75 12c-116 0 -182 -74 -182 -186v-208h-102v480h102v-147c29 104 92 156 191 156z" />
    <glyph glyph-name="Sacute" unicode="&#x15a;" horiz-adv-x="696" 
d="M371 927h152l-155 -167h-62zM361 -10c-192 0 -299 74 -321 223l108 31c13 -125 81 -163 216 -163s183 27 183 108c0 36 -10 60 -29 72c-19 11 -59 22 -120 32l-132 23c-56 9 -93 21 -136 49c-44 27 -67 76 -67 143c0 61 26 110 77 147s119 55 202 55
c188 0 296 -80 301 -224l-101 -30c1 127 -66 163 -202 163c-121 0 -167 -26 -167 -103c0 -71 38 -89 131 -104l140 -24c64 -11 107 -23 149 -50c42 -28 63 -73 63 -134c0 -65 -27 -116 -80 -155s-125 -59 -215 -59z" />
    <glyph glyph-name="sacute" unicode="&#x15b;" horiz-adv-x="530" 
d="M287 727h152l-155 -167h-62zM271 -10c-127 0 -214 56 -235 145l100 29c12 -68 55 -92 142 -92c77 0 115 19 115 57c0 36 -22 49 -89 60l-103 16c-99 15 -148 61 -148 140c0 89 79 145 207 145c129 0 204 -49 223 -146l-100 -24c-9 72 -44 90 -120 90
c-72 0 -108 -20 -108 -59c0 -36 21 -50 70 -57l126 -19c95 -14 143 -58 143 -132c0 -95 -86 -153 -223 -153z" />
    <glyph glyph-name="Scedilla" unicode="&#x15e;" horiz-adv-x="696" 
d="M656 204c0 -120 -100 -204 -263 -213l-26 -41c61 -12 101 -45 101 -94c0 -53 -48 -91 -119 -91c-64 0 -116 31 -131 76l62 33c5 -33 28 -50 68 -50c28 0 47 14 47 33c0 27 -36 46 -108 57l52 76c-168 5 -276 76 -299 223l108 31c13 -125 81 -163 216 -163s183 27 183 108
c0 36 -10 60 -29 72c-19 11 -59 22 -120 32l-132 23c-56 9 -93 21 -136 49c-44 27 -67 76 -67 143c0 61 26 110 77 147s119 55 202 55c188 0 296 -80 301 -224l-101 -30c1 127 -66 163 -202 163c-121 0 -167 -26 -167 -103c0 -71 38 -89 131 -104l140 -24
c64 -11 107 -23 149 -50c42 -28 63 -73 63 -134z" />
    <glyph glyph-name="scedilla" unicode="&#x15f;" horiz-adv-x="530" 
d="M494 143c0 -85 -71 -143 -190 -152l-27 -41c61 -12 101 -45 101 -94c0 -53 -48 -91 -119 -91c-64 0 -116 31 -131 76l62 33c5 -33 28 -50 68 -50c28 0 47 14 47 33c0 27 -36 46 -108 57l53 77c-116 5 -194 59 -214 144l100 29c12 -68 55 -92 142 -92c77 0 115 19 115 57
c0 36 -22 49 -89 60l-103 16c-99 15 -148 61 -148 140c0 89 79 145 207 145c129 0 204 -49 223 -146l-100 -24c-9 72 -44 90 -120 90c-72 0 -108 -20 -108 -59c0 -36 21 -50 70 -57l126 -19c95 -14 143 -58 143 -132z" />
    <glyph glyph-name="Scaron" unicode="&#x160;" horiz-adv-x="696" 
d="M510 927l-117 -167h-87l-117 167h66l95 -80l94 80h66zM304 412l140 -24c64 -11 107 -23 149 -50c42 -28 63 -73 63 -134c0 -65 -27 -116 -80 -155s-125 -59 -215 -59c-192 0 -299 74 -321 223l108 31c13 -125 81 -163 216 -163s183 27 183 108c0 36 -10 60 -29 72
c-19 11 -59 22 -120 32l-132 23c-56 9 -93 21 -136 49c-44 27 -67 76 -67 143c0 61 26 110 77 147s119 55 202 55c188 0 296 -80 301 -224l-101 -30c1 127 -66 163 -202 163c-121 0 -167 -26 -167 -103c0 -71 38 -89 131 -104z" />
    <glyph glyph-name="scaron" unicode="&#x161;" horiz-adv-x="530" 
d="M426 727l-117 -167h-87l-117 167h66l95 -80l94 80h66zM225 294l126 -19c95 -14 143 -58 143 -132c0 -95 -86 -153 -223 -153c-127 0 -214 56 -235 145l100 29c12 -68 55 -92 142 -92c77 0 115 19 115 57c0 36 -22 49 -89 60l-103 16c-99 15 -148 61 -148 140
c0 89 79 145 207 145c129 0 204 -49 223 -146l-100 -24c-9 72 -44 90 -120 90c-72 0 -108 -20 -108 -59c0 -36 21 -50 70 -57z" />
    <glyph glyph-name="uni0162" unicode="&#x162;" horiz-adv-x="665" 
d="M386 604v-604h-28l-32 -49c61 -12 101 -46 101 -95c0 -53 -49 -91 -118 -91c-64 0 -117 31 -132 76l63 33c5 -33 27 -50 67 -50c28 0 47 14 47 33c0 27 -36 46 -108 57l59 86h-25v604h-258v96h622v-96h-258z" />
    <glyph glyph-name="uni0163" unicode="&#x163;" horiz-adv-x="439" 
d="M415 480v-91h-171v-298h156v-91h-125l-32 -50c61 -12 101 -45 101 -94c0 -53 -48 -91 -119 -91c-64 0 -116 31 -131 76l62 33c5 -33 28 -50 68 -50c28 0 47 14 47 33c0 27 -36 46 -108 57l64 93c-52 17 -85 63 -85 126v256h-126v91h126v147h102v-147h171z" />
    <glyph glyph-name="Tcaron" unicode="&#x164;" horiz-adv-x="665" 
d="M494 927l-117 -167h-87l-117 167h66l95 -80l94 80h66zM22 700h622v-96h-258v-604h-106v604h-258v96z" />
    <glyph glyph-name="tcaron" unicode="&#x165;" horiz-adv-x="439" 
d="M319 787h110l-51 -243h-59v243zM142 627h102v-147h171v-91h-171v-298h156v-91h-125c-80 0 -133 53 -133 133v256h-126v91h126v147z" />
    <glyph glyph-name="Tbar" unicode="&#x166;" horiz-adv-x="665" 
d="M644 700v-96h-258v-214h121v-84h-121v-306h-106v306h-122v84h122v214h-258v96h622z" />
    <glyph glyph-name="tbar" unicode="&#x167;" horiz-adv-x="439" 
d="M415 480v-91h-171v-84h132v-71h-132v-143h156v-91h-125c-80 0 -133 53 -133 133v101h-108v71h108v84h-126v91h126v147h102v-147h171z" />
    <glyph glyph-name="Umacron" unicode="&#x16a;" horiz-adv-x="816" 
d="M265 785v75h280v-75h-280zM630 262v438h106v-420c0 -191 -119 -290 -328 -290s-328 99 -328 290v420h106v-438c0 -123 57 -175 222 -175c83 0 141 14 174 42c32 27 48 72 48 133z" />
    <glyph glyph-name="umacron" unicode="&#x16b;" horiz-adv-x="645" 
d="M183 670h280v-75h-280v75zM465 254v226h102v-480h-102v119c-27 -86 -92 -129 -194 -129c-131 0 -197 72 -197 215v275h102v-258c0 -93 43 -139 129 -139c105 0 160 60 160 171z" />
    <glyph glyph-name="Uring" unicode="&#x16e;" horiz-adv-x="816" 
d="M489 778c-21 -20 -49 -30 -84 -30s-62 10 -83 30s-32 46 -32 78c0 65 46 108 115 108s115 -43 115 -108c0 -32 -10 -58 -31 -78zM371 822c6 -7 17 -10 34 -10s28 3 35 10s10 18 10 34c0 33 -12 44 -45 44s-44 -11 -44 -44c0 -16 3 -27 10 -34zM630 262v438h106v-420
c0 -191 -119 -290 -328 -290s-328 99 -328 290v420h106v-438c0 -123 57 -175 222 -175c83 0 141 14 174 42c32 27 48 72 48 133z" />
    <glyph glyph-name="uring" unicode="&#x16f;" horiz-adv-x="645" 
d="M407 575c-21 -20 -49 -30 -84 -30s-62 10 -83 30s-32 46 -32 78c0 65 46 108 115 108s115 -43 115 -108c0 -32 -10 -58 -31 -78zM358 687c-7 7 -18 10 -35 10s-28 -3 -34 -10c-7 -7 -10 -18 -10 -34c0 -33 11 -44 44 -44s45 11 45 44c0 16 -3 27 -10 34zM465 254v226h102
v-480h-102v119c-27 -86 -92 -129 -194 -129c-131 0 -197 72 -197 215v275h102v-258c0 -93 43 -139 129 -139c105 0 160 60 160 171z" />
    <glyph glyph-name="Uhungarumlaut" unicode="&#x170;" horiz-adv-x="816" 
d="M355 927h152l-155 -167h-62zM513 927h152l-156 -167h-61zM630 262v438h106v-420c0 -191 -119 -290 -328 -290s-328 99 -328 290v420h106v-438c0 -123 57 -175 222 -175c83 0 141 14 174 42c32 27 48 72 48 133z" />
    <glyph glyph-name="uhungarumlaut" unicode="&#x171;" horiz-adv-x="645" 
d="M273 727h152l-155 -167h-62zM583 727l-156 -167h-61l65 167h152zM465 254v226h102v-480h-102v119c-27 -86 -92 -129 -194 -129c-131 0 -197 72 -197 215v275h102v-258c0 -93 43 -139 129 -139c105 0 160 60 160 171z" />
    <glyph glyph-name="Uogonek" unicode="&#x172;" horiz-adv-x="816" 
d="M630 262v438h106v-420c0 -163 -88 -260 -245 -284c-37 -27 -46 -31 -59 -50c-7 -9 -10 -19 -10 -29c0 -23 17 -37 44 -37c21 0 39 3 56 10v-70c-22 -7 -46 -11 -72 -11c-72 0 -112 37 -112 86c0 39 29 70 88 95h-18c-209 0 -328 99 -328 290v420h106v-438
c0 -123 57 -175 222 -175c83 0 141 14 174 42c32 27 48 72 48 133z" />
    <glyph glyph-name="uogonek" unicode="&#x173;" horiz-adv-x="645" 
d="M567 0h-65c-32 -21 -37 -25 -54 -41c-17 -15 -21 -26 -21 -42c0 -23 17 -37 44 -37c21 0 39 3 56 10v-70c-22 -7 -46 -11 -72 -11c-72 0 -112 37 -112 86c0 46 41 82 122 107v117c-27 -86 -92 -129 -194 -129c-131 0 -197 72 -197 215v275h102v-258
c0 -93 43 -139 129 -139c105 0 160 60 160 171v226h102v-480z" />
    <glyph glyph-name="Wcircumflex" unicode="&#x174;" horiz-adv-x="1096" 
d="M643 760l-94 80l-95 -80h-66l117 167h87l117 -167h-66zM847 225l120 475h116l-192 -700h-137l-174 481l-33 105l-31 -105l-173 -481h-138l-192 700h117l120 -475l26 -123l35 124l164 474h145l165 -475l36 -127z" />
    <glyph glyph-name="wcircumflex" unicode="&#x175;" horiz-adv-x="832" 
d="M511 560l-94 80l-95 -80h-66l117 167h87l117 -167h-66zM628 188l78 292h111l-148 -480h-116l-106 275l-31 93l-31 -94l-106 -274h-114l-150 480h112l79 -292l22 -104l31 104l105 292h104l104 -291l33 -109z" />
    <glyph glyph-name="Ycircumflex" unicode="&#x176;" horiz-adv-x="719" 
d="M455 760l-94 80l-95 -80h-66l117 167h87l117 -167h-66zM360 381l223 319h123l-293 -409v-291h-105v290l-295 410h123z" />
    <glyph glyph-name="ycircumflex" unicode="&#x177;" horiz-adv-x="581" 
d="M392 560l-94 80l-95 -80h-66l117 167h87l117 -167h-66zM328 178l125 302h115l-250 -549c-33 -71 -69 -101 -157 -101h-103v91h171l12 32l-228 527h114l125 -303l35 -106z" />
    <glyph glyph-name="Ydieresis" unicode="&#x178;" horiz-adv-x="719" 
d="M250 779c-45 0 -69 23 -70 69c-1 43 25 66 70 66s69 -22 70 -66s-25 -69 -70 -69zM468 779c-46 0 -70 23 -71 69c0 44 24 66 71 66c46 0 69 -22 69 -66c1 -44 -24 -69 -69 -69zM360 381l223 319h123l-293 -409v-291h-105v290l-295 410h123z" />
    <glyph glyph-name="Zacute" unicode="&#x179;" horiz-adv-x="699" 
d="M370 927h152l-155 -167h-62zM317 246l-156 -151h493v-95h-609v97l457 508h-453v95h596v-98z" />
    <glyph glyph-name="zacute" unicode="&#x17a;" horiz-adv-x="538" 
d="M290 727h152l-155 -167h-62zM275 187l-116 -101h338v-86h-447v83l304 311h-302v86h435v-83z" />
    <glyph glyph-name="Zdotaccent" unicode="&#x17b;" horiz-adv-x="699" 
d="M348 779c-45 0 -69 23 -70 69c-1 43 25 66 70 66s69 -22 70 -66s-25 -69 -70 -69zM317 246l-156 -151h493v-95h-609v97l457 508h-453v95h596v-98z" />
    <glyph glyph-name="zdotaccent" unicode="&#x17c;" horiz-adv-x="538" 
d="M268 579c-45 0 -69 23 -70 69c-1 43 25 66 70 66s69 -22 70 -66s-25 -69 -70 -69zM275 187l-116 -101h338v-86h-447v83l304 311h-302v86h435v-83z" />
    <glyph glyph-name="Zcaron" unicode="&#x17d;" horiz-adv-x="699" 
d="M509 927l-117 -167h-87l-117 167h66l95 -80l94 80h66zM317 246l-156 -151h493v-95h-609v97l457 508h-453v95h596v-98z" />
    <glyph glyph-name="zcaron" unicode="&#x17e;" horiz-adv-x="538" 
d="M429 727l-117 -167h-87l-117 167h66l95 -80l94 80h66zM275 187l-116 -101h338v-86h-447v83l304 311h-302v86h435v-83z" />
    <glyph glyph-name="uni0218" unicode="&#x218;" horiz-adv-x="696" 
d="M304 412l140 -24c64 -11 107 -23 149 -50c42 -28 63 -73 63 -134c0 -65 -27 -116 -80 -155s-125 -59 -215 -59c-192 0 -299 74 -321 223l108 31c13 -125 81 -163 216 -163s183 27 183 108c0 36 -10 60 -29 72c-19 11 -59 22 -120 32l-132 23c-56 9 -93 21 -136 49
c-44 27 -67 76 -67 143c0 61 26 110 77 147s119 55 202 55c188 0 296 -80 301 -224l-101 -30c1 127 -66 163 -202 163c-121 0 -167 -26 -167 -103c0 -71 38 -89 131 -104zM298 -53c35 33 107 11 102 -40c0 -13 -3 -23 -9 -32l-62 -97h-81l83 71c-29 4 -49 27 -50 58
c-1 17 5 30 17 40z" />
    <glyph glyph-name="uni0219" unicode="&#x219;" horiz-adv-x="530" 
d="M225 294l126 -19c95 -14 143 -58 143 -132c0 -95 -86 -153 -223 -153c-127 0 -214 56 -235 145l100 29c12 -68 55 -92 142 -92c77 0 115 19 115 57c0 36 -22 49 -89 60l-103 16c-99 15 -148 61 -148 140c0 89 79 145 207 145c129 0 204 -49 223 -146l-100 -24
c-9 72 -44 90 -120 90c-72 0 -108 -20 -108 -59c0 -36 21 -50 70 -57zM216 -53c35 33 107 11 102 -40c0 -13 -3 -23 -9 -32l-62 -97h-81l83 71c-29 4 -49 27 -50 58c-1 17 5 30 17 40z" />
    <glyph glyph-name="uni021A" unicode="&#x21a;" horiz-adv-x="665" 
d="M22 700h622v-96h-258v-604h-106v604h-258v96zM282 -53c35 33 107 11 102 -40c0 -13 -3 -23 -9 -32l-62 -97h-81l83 71c-29 4 -49 27 -50 58c-1 17 5 30 17 40z" />
    <glyph glyph-name="uni021B" unicode="&#x21b;" horiz-adv-x="439" 
d="M415 480v-91h-171v-298h156v-91h-125c-80 0 -133 53 -133 133v256h-126v91h126v147h102v-147h171zM173 -53c35 33 107 11 102 -40c0 -13 -3 -23 -9 -32l-62 -97h-81l83 71c-29 4 -49 27 -50 58c-1 17 5 30 17 40z" />
    <glyph glyph-name="uni0237" unicode="&#x237;" horiz-adv-x="259" 
d="M47 -170h-101v93h133v557h102v-517c0 -80 -54 -133 -134 -133z" />
    <glyph glyph-name="circumflex" unicode="&#x2c6;" horiz-adv-x="600" 
d="M344 727l117 -167h-66l-94 80l-95 -80h-66l117 167h87z" />
    <glyph glyph-name="caron" unicode="&#x2c7;" horiz-adv-x="600" 
d="M301 647l94 80h66l-117 -167h-87l-117 167h66z" />
    <glyph glyph-name="breve" unicode="&#x2d8;" horiz-adv-x="600" 
d="M298 562c-87 0 -146 57 -149 144h89c0 -51 16 -69 60 -69c47 0 64 18 65 69h88c-1 -85 -64 -144 -153 -144z" />
    <glyph glyph-name="dotaccent" unicode="&#x2d9;" horiz-adv-x="600" 
d="M300 579c-45 0 -69 23 -70 69c-1 43 25 66 70 66s69 -22 70 -66s-25 -69 -70 -69z" />
    <glyph glyph-name="ring" unicode="&#x2da;" horiz-adv-x="600" 
d="M384 575c-21 -20 -49 -30 -84 -30s-62 10 -83 30s-32 46 -32 78c0 65 46 108 115 108s115 -43 115 -108c0 -32 -10 -58 -31 -78zM266 619c6 -7 17 -10 34 -10s28 3 35 10c7 6 10 17 10 34c0 32 -12 44 -45 44s-44 -12 -44 -44c0 -17 3 -28 10 -34z" />
    <glyph glyph-name="ogonek" unicode="&#x2db;" horiz-adv-x="600" 
d="M208 -105c0 51 50 90 149 115l14 -7c-38 -27 -61 -46 -68 -55c-7 -10 -11 -20 -11 -31c0 -23 17 -37 44 -37c21 0 39 3 56 10v-70c-22 -7 -46 -11 -72 -11c-72 0 -112 37 -112 86z" />
    <glyph glyph-name="tilde" unicode="&#x2dc;" horiz-adv-x="600" 
d="M375 556c-63 -3 -122 79 -150 76c-19 0 -24 -15 -24 -58h-53c0 105 21 138 77 138c76 0 111 -77 151 -77c16 0 24 19 24 57h53c0 -96 -25 -136 -78 -136z" />
    <glyph glyph-name="hungarumlaut" unicode="&#x2dd;" horiz-adv-x="600" 
d="M250 727h152l-155 -167h-62zM408 727h152l-156 -167h-61z" />
    <glyph glyph-name="gravecomb" unicode="&#x300;" horiz-adv-x="0" 
d="M-319 560l-155 167h152l65 -167h-62z" />
    <glyph glyph-name="acutecomb" unicode="&#x301;" horiz-adv-x="0" 
d="M-278 727h152l-155 -167h-62z" />
    <glyph glyph-name="uni0302" unicode="&#x302;" horiz-adv-x="0" 
d="M-256 727l117 -167h-66l-94 80l-95 -80h-66l117 167h87z" />
    <glyph glyph-name="tildecomb" unicode="&#x303;" horiz-adv-x="0" 
d="M-225 556c-63 -3 -122 79 -150 76c-19 0 -24 -15 -24 -58h-53c0 105 21 138 77 138c76 0 111 -77 151 -77c16 0 24 19 24 57h53c0 -96 -25 -136 -78 -136z" />
    <glyph glyph-name="uni0304" unicode="&#x304;" horiz-adv-x="0" 
d="M-440 595v75h280v-75h-280z" />
    <glyph glyph-name="uni0306" unicode="&#x306;" horiz-adv-x="0" 
d="M-302 562c-87 0 -146 57 -149 144h89c0 -51 16 -69 60 -69c47 0 64 18 65 69h88c-1 -85 -64 -144 -153 -144z" />
    <glyph glyph-name="uni0307" unicode="&#x307;" horiz-adv-x="0" 
d="M-300 579c-45 0 -69 23 -70 69c-1 43 25 66 70 66s69 -22 70 -66s-25 -69 -70 -69z" />
    <glyph glyph-name="uni0308" unicode="&#x308;" horiz-adv-x="0" 
d="M-406 579c-44 0 -70 25 -70 69c-1 43 23 66 70 66c45 0 69 -22 70 -66c0 -44 -25 -69 -70 -69zM-194 579c-44 0 -70 25 -70 69c-1 43 23 66 70 66c45 0 69 -22 70 -66c0 -44 -25 -69 -70 -69z" />
    <glyph glyph-name="uni030A" unicode="&#x30a;" horiz-adv-x="0" 
d="M-217 575c-21 -20 -48 -30 -83 -30s-63 10 -84 30s-31 46 -31 78c0 65 46 108 115 108s115 -43 115 -108c0 -32 -11 -58 -32 -78zM-335 619c7 -7 18 -10 35 -10s28 3 35 10c7 6 10 17 10 34c0 32 -12 44 -45 44s-44 -12 -44 -44c0 -17 3 -28 9 -34z" />
    <glyph glyph-name="uni030B" unicode="&#x30b;" horiz-adv-x="0" 
d="M-350 727h152l-155 -167h-62zM-192 727h152l-156 -167h-61z" />
    <glyph glyph-name="uni030C" unicode="&#x30c;" horiz-adv-x="0" 
d="M-299 647l94 80h66l-117 -167h-87l-117 167h66z" />
    <glyph glyph-name="uni0312" unicode="&#x312;" horiz-adv-x="0" 
d="M-190 773l-104 -114c35 0 58 -24 58 -59c1 -36 -20 -56 -59 -56s-59 19 -59 56c0 17 5 34 15 52l68 121h81z" />
    <glyph glyph-name="uni0326" unicode="&#x326;" horiz-adv-x="0" 
d="M-352 -53c36 33 108 11 103 -40c0 -13 -3 -23 -9 -32l-62 -97h-81l83 71c-29 4 -49 27 -50 58c-1 17 5 30 16 40z" />
    <glyph glyph-name="uni0327" unicode="&#x327;" horiz-adv-x="0" 
d="M-247 10l-39 -60c61 -12 101 -45 101 -94c0 -53 -48 -91 -119 -91c-64 0 -116 31 -131 76l62 33c5 -33 28 -50 68 -50c28 0 47 14 47 33c0 27 -36 46 -108 57l66 96h53z" />
    <glyph glyph-name="uni0328" unicode="&#x328;" horiz-adv-x="0" 
d="M-392 -105c0 51 50 90 149 115l14 -7c-38 -27 -61 -46 -68 -55c-7 -10 -11 -20 -11 -31c0 -23 17 -37 44 -37c21 0 39 3 56 10v-70c-22 -7 -46 -11 -72 -11c-72 0 -112 37 -112 86z" />
    <glyph glyph-name="uni0335" unicode="&#x335;" horiz-adv-x="0" 
d="M-474 313v76h349v-76h-349z" />
    <glyph glyph-name="uni0336" unicode="&#x336;" horiz-adv-x="0" 
d="M-650 315v75h700v-75h-700z" />
    <glyph glyph-name="uni0337" unicode="&#x337;" horiz-adv-x="0" 
d="M-473 -13l-63 55l218 244l193 257l64 -55l-215 -238z" />
    <glyph glyph-name="uni0338" unicode="&#x338;" horiz-adv-x="0" 
d="M-576 -39l-67 60l316 348l304 373l67 -60l-313 -351z" />
    <glyph glyph-name="Wgrave" unicode="&#x1e80;" horiz-adv-x="1096" 
d="M526 927l65 -167h-62l-155 167h152zM847 225l120 475h116l-192 -700h-137l-174 481l-33 105l-31 -105l-173 -481h-138l-192 700h117l120 -475l26 -123l35 124l164 474h145l165 -475l36 -127z" />
    <glyph glyph-name="wgrave" unicode="&#x1e81;" horiz-adv-x="832" 
d="M394 727l65 -167h-62l-155 167h152zM628 188l78 292h111l-148 -480h-116l-106 275l-31 93l-31 -94l-106 -274h-114l-150 480h112l79 -292l22 -104l31 104l105 292h104l104 -291l33 -109z" />
    <glyph glyph-name="Wacute" unicode="&#x1e82;" horiz-adv-x="1096" 
d="M570 927h152l-155 -167h-62zM847 225l120 475h116l-192 -700h-137l-174 481l-33 105l-31 -105l-173 -481h-138l-192 700h117l120 -475l26 -123l35 124l164 474h145l165 -475l36 -127z" />
    <glyph glyph-name="wacute" unicode="&#x1e83;" horiz-adv-x="832" 
d="M438 727h152l-155 -167h-62zM628 188l78 292h111l-148 -480h-116l-106 275l-31 93l-31 -94l-106 -274h-114l-150 480h112l79 -292l22 -104l31 104l105 292h104l104 -291l33 -109z" />
    <glyph glyph-name="Wdieresis" unicode="&#x1e84;" horiz-adv-x="1096" 
d="M438 779c-45 0 -69 23 -70 69c-1 43 25 66 70 66s69 -22 70 -66s-25 -69 -70 -69zM656 779c-46 0 -70 23 -71 69c0 44 24 66 71 66c46 0 69 -22 69 -66c1 -44 -24 -69 -69 -69zM847 225l120 475h116l-192 -700h-137l-174 481l-33 105l-31 -105l-173 -481h-138l-192 700
h117l120 -475l26 -123l35 124l164 474h145l165 -475l36 -127z" />
    <glyph glyph-name="wdieresis" unicode="&#x1e85;" horiz-adv-x="832" 
d="M310 579c-44 0 -70 25 -70 69c-1 43 23 66 70 66c45 0 69 -22 70 -66c0 -44 -25 -69 -70 -69zM522 579c-44 0 -70 25 -70 69c-1 43 23 66 70 66c45 0 69 -22 70 -66c0 -44 -25 -69 -70 -69zM628 188l78 292h111l-148 -480h-116l-106 275l-31 93l-31 -94l-106 -274h-114
l-150 480h112l79 -292l22 -104l31 104l105 292h104l104 -291l33 -109z" />
    <glyph glyph-name="uni1E9E" unicode="&#x1e9e;" horiz-adv-x="797" 
d="M522 457c0 -63 84 -85 150 -124c44 -27 81 -79 81 -154c0 -121 -81 -189 -221 -189c-81 0 -154 25 -218 74l45 102c63 -59 112 -80 175 -80c73 0 109 28 109 84c0 75 -82 100 -146 132c-44 22 -80 63 -80 124c0 76 46 147 159 178h-390v-604h-106v552
c0 89 60 148 151 148h464v-89c-53 -12 -95 -33 -126 -63c-31 -31 -47 -61 -47 -91z" />
    <glyph glyph-name="Ygrave" unicode="&#x1ef2;" horiz-adv-x="719" 
d="M338 927l65 -167h-62l-155 167h152zM360 381l223 319h123l-293 -409v-291h-105v290l-295 410h123z" />
    <glyph glyph-name="ygrave" unicode="&#x1ef3;" horiz-adv-x="581" 
d="M275 727l65 -167h-62l-155 167h152zM328 178l125 302h115l-250 -549c-33 -71 -69 -101 -157 -101h-103v91h171l12 32l-228 527h114l125 -303l35 -106z" />
    <glyph glyph-name="uni2009" unicode="&#x2009;" horiz-adv-x="107" 
 />
    <glyph glyph-name="endash" unicode="&#x2013;" horiz-adv-x="608" 
d="M63 241v89h482v-89h-482z" />
    <glyph glyph-name="emdash" unicode="&#x2014;" horiz-adv-x="1003" 
d="M63 241v89h877v-89h-877z" />
    <glyph glyph-name="quoteleft" unicode="&#x2018;" horiz-adv-x="255" 
d="M256 700l-126 -138c41 -1 69 -30 70 -73c0 -44 -26 -69 -73 -69s-71 23 -72 69c0 20 6 41 19 63l83 148h99z" />
    <glyph glyph-name="quoteright" unicode="&#x2019;" horiz-adv-x="255" 
d="M128 710c47 0 71 -23 72 -69c0 -19 -6 -40 -19 -63l-83 -148h-99l126 139c-41 1 -69 29 -70 72c-1 44 26 69 73 69z" />
    <glyph glyph-name="quotesinglbase" unicode="&#x201a;" horiz-adv-x="255" 
d="M128 136c47 0 71 -23 72 -69c0 -19 -6 -40 -19 -63l-83 -148h-99l125 139c-41 1 -68 29 -69 72c-1 44 26 69 73 69z" />
    <glyph glyph-name="quotedblleft" unicode="&#x201c;" horiz-adv-x="447" 
d="M256 700l-126 -138c41 -1 69 -30 70 -73c0 -44 -26 -69 -73 -69s-71 23 -72 69c0 20 6 41 19 63l83 148h99zM449 700l-126 -138c41 -1 69 -30 69 -73c1 -44 -25 -69 -72 -69c-45 0 -72 25 -72 69c0 20 6 41 18 63l84 148h99z" />
    <glyph glyph-name="quotedblright" unicode="&#x201d;" horiz-adv-x="447" 
d="M128 710c47 0 71 -23 72 -69c0 -19 -6 -40 -19 -63l-83 -148h-99l126 139c-41 1 -69 29 -70 72c-1 44 26 69 73 69zM320 710c45 0 72 -25 72 -69c0 -20 -6 -41 -18 -63l-84 -148h-99l127 139c-41 1 -70 29 -70 72c-1 44 25 69 72 69z" />
    <glyph glyph-name="quotedblbase" unicode="&#x201e;" horiz-adv-x="447" 
d="M128 136c47 0 71 -23 72 -69c0 -19 -6 -40 -19 -63l-83 -148h-99l125 139c-41 1 -68 29 -69 72c-1 44 26 69 73 69zM320 136c45 0 72 -25 72 -69c0 -20 -6 -41 -18 -63l-84 -148h-99l126 138c-41 1 -69 30 -69 73c-1 44 25 69 72 69z" />
    <glyph glyph-name="dagger" unicode="&#x2020;" horiz-adv-x="374" 
d="M225 589h119v-70h-119v-251h-77v251h-118v70h118v111h77v-111z" />
    <glyph glyph-name="daggerdbl" unicode="&#x2021;" horiz-adv-x="374" 
d="M344 589v-67h-119v-83h119v-68h-119v-106h-77v106h-118v68h118v83h-118v67h118v111h77v-111h119z" />
    <glyph glyph-name="bullet" unicode="&#x2022;" horiz-adv-x="394" 
d="M93 421c24 24 59 36 104 36s80 -12 105 -36c25 -25 37 -59 37 -104s-12 -79 -37 -103s-60 -36 -105 -36s-80 12 -104 36c-25 24 -37 58 -37 103s12 79 37 104z" />
    <glyph glyph-name="ellipsis" unicode="&#x2026;" horiz-adv-x="693" 
d="M128 -5c-47 0 -71 24 -72 71c0 47 24 70 72 70c47 0 71 -23 72 -70c0 -47 -24 -71 -72 -71zM347 -5c-47 0 -71 24 -72 71c0 47 24 70 72 70c47 0 71 -23 72 -70c0 -47 -24 -71 -72 -71zM566 -5c-46 0 -70 24 -71 71c-1 45 24 70 71 70s72 -25 72 -70
c1 -45 -25 -71 -72 -71z" />
    <glyph glyph-name="perthousand" unicode="&#x2030;" horiz-adv-x="1449" 
d="M254 345c-59 0 -109 17 -150 52c-41 34 -61 78 -61 132c0 53 20 96 61 130s91 51 150 51s108 -17 149 -51c40 -34 60 -77 60 -130c0 -54 -20 -98 -61 -132c-41 -35 -90 -52 -148 -52zM460 357l241 343h91l-266 -351l-248 -349h-91zM132 529c0 -69 41 -103 122 -103
s122 34 122 103c0 67 -41 100 -122 100s-122 -33 -122 -100zM733 -10c-59 0 -109 17 -150 52c-41 34 -61 78 -61 132c0 53 20 96 61 130s91 51 150 51s108 -17 149 -51c40 -34 60 -77 60 -130c0 -54 -20 -98 -61 -132c-41 -35 -90 -52 -148 -52zM1197 -10
c-59 0 -109 17 -150 52c-41 34 -61 78 -61 132c0 53 20 96 61 130s91 51 150 51s108 -17 149 -51c40 -34 60 -77 60 -130c0 -54 -20 -98 -61 -132c-41 -35 -90 -52 -148 -52zM611 174c0 -69 41 -103 122 -103s122 34 122 103c0 67 -41 101 -122 101s-122 -34 -122 -101z
M1075 174c0 -69 41 -103 122 -103s122 34 122 103c0 67 -41 101 -122 101s-122 -34 -122 -101z" />
    <glyph glyph-name="guilsinglleft" unicode="&#x2039;" horiz-adv-x="349" 
d="M178 442h110l-166 -183l166 -182h-110l-126 182z" />
    <glyph glyph-name="guilsinglright" unicode="&#x203a;" horiz-adv-x="349" 
d="M227 259l-166 183h110l127 -183l-127 -182h-110z" />
    <glyph glyph-name="fraction" unicode="&#x2044;" horiz-adv-x="198" 
d="M70 357l240 343h91l-266 -351l-247 -349h-91z" />
    <glyph glyph-name="uni2070" unicode="&#x2070;" horiz-adv-x="416" 
d="M76 753c31 35 75 53 131 53s100 -18 133 -53c32 -35 48 -85 48 -148c0 -128 -68 -203 -181 -203c-112 0 -179 75 -179 203c0 63 16 113 48 148zM207 470c77 0 103 32 103 135c0 101 -26 133 -103 133c-76 0 -101 -32 -101 -133c0 -104 25 -135 101 -135z" />
    <glyph glyph-name="uni2074" unicode="&#x2074;" horiz-adv-x="399" 
d="M313 555h68v-61h-68v-89h-70v89h-230v69c61 55 93 133 98 234h82c-12 -109 -54 -192 -126 -249l178 6l9 187h59v-186z" />
    <glyph glyph-name="uni2075" unicode="&#x2075;" horiz-adv-x="396" 
d="M230 668c81 0 140 -49 140 -128c0 -84 -72 -141 -172 -141c-87 0 -157 40 -176 107l79 25c13 -43 47 -64 102 -64c63 0 95 24 95 73c0 47 -30 71 -90 71c-40 0 -71 -16 -94 -48l-68 21l18 213h292v-67h-109l-121 9l-13 -139c19 45 58 68 117 68z" />
    <glyph glyph-name="uni2076" unicode="&#x2076;" horiz-adv-x="376" 
d="M217 667c40 0 74 -12 103 -35c28 -23 42 -54 42 -92c0 -41 -16 -74 -49 -101s-75 -40 -125 -40c-99 0 -169 59 -169 142c0 72 46 148 174 255h108c-9 -7 -26 -19 -51 -37c-26 -19 -45 -33 -58 -44c-26 -21 -71 -67 -102 -112c35 43 78 64 127 64zM98 535
c0 -47 31 -70 92 -70s92 24 92 72c0 47 -30 71 -89 71c-63 0 -95 -24 -95 -73z" />
    <glyph glyph-name="uni2077" unicode="&#x2077;" horiz-adv-x="350" 
d="M16 728v69h323v-59c-109 -108 -162 -219 -159 -333h-95c20 119 78 216 189 323h-258z" />
    <glyph glyph-name="uni2078" unicode="&#x2078;" horiz-adv-x="402" 
d="M258 606c67 -9 121 -40 121 -100c0 -68 -66 -108 -177 -108s-179 40 -179 111c0 55 42 87 127 97c-73 9 -111 43 -111 91c0 67 63 105 162 105c100 0 163 -40 163 -104c0 -48 -39 -83 -106 -92zM116 687c0 -35 29 -52 86 -52c58 0 87 17 87 52c0 37 -29 56 -87 56
c-57 0 -86 -19 -86 -56zM201 460c63 0 94 19 94 56s-31 55 -94 55c-62 0 -93 -18 -93 -54c0 -38 31 -57 93 -57z" />
    <glyph glyph-name="uni2079" unicode="&#x2079;" horiz-adv-x="376" 
d="M188 802c99 0 169 -59 169 -142c0 -72 -46 -148 -174 -255h-108c9 7 26 19 52 38c25 18 45 32 58 43c26 21 70 67 101 112c-35 -43 -78 -64 -127 -64c-40 0 -74 12 -102 35c-29 23 -43 54 -43 92c0 41 17 74 50 101s74 40 124 40zM183 593c63 0 95 24 95 73
c0 47 -31 70 -92 70s-92 -24 -92 -72c0 -47 30 -71 89 -71z" />
    <glyph glyph-name="uni2080" unicode="&#x2080;" horiz-adv-x="416" 
d="M76 234c31 35 75 53 131 53s100 -18 133 -53c32 -35 48 -85 48 -148c0 -128 -68 -203 -181 -203c-112 0 -179 75 -179 203c0 63 16 113 48 148zM207 -49c77 0 103 32 103 135c0 101 -26 133 -103 133c-76 0 -101 -32 -101 -133c0 -104 25 -135 101 -135z" />
    <glyph glyph-name="uni2081" unicode="&#x2081;" horiz-adv-x="329" 
d="M4 211l166 69h77v-392h-78v346l-134 -86z" />
    <glyph glyph-name="uni2082" unicode="&#x2082;" horiz-adv-x="386" 
d="M205 -2l-93 -44h258v-66h-339v60l125 77c32 20 46 29 75 53s44 50 44 77c0 41 -28 62 -84 62c-63 0 -98 -33 -81 -101l-80 10c-10 51 1 90 34 118c32 28 75 42 128 42c97 0 165 -51 165 -128c0 -75 -55 -115 -152 -160z" />
    <glyph glyph-name="uni2083" unicode="&#x2083;" horiz-adv-x="394" 
d="M260 88c69 -11 107 -45 107 -96c0 -67 -66 -110 -167 -110c-108 0 -174 49 -173 134l80 10c-4 -53 26 -77 94 -77c59 0 89 18 89 54c0 32 -34 54 -85 54l-47 -1v61l48 -1c44 0 73 20 73 51c0 35 -26 53 -78 53c-65 0 -94 -24 -87 -77l-76 10c-8 84 62 132 163 132
c93 0 155 -42 155 -106c0 -49 -32 -79 -96 -91z" />
    <glyph glyph-name="uni2084" unicode="&#x2084;" horiz-adv-x="399" 
d="M313 38h68v-61h-68v-89h-70v89h-230v69c61 55 93 133 98 234h82c-12 -109 -54 -192 -126 -249l178 6l9 187h59v-186z" />
    <glyph glyph-name="uni2085" unicode="&#x2085;" horiz-adv-x="396" 
d="M230 152c81 0 140 -49 140 -128c0 -84 -72 -141 -172 -141c-87 0 -157 40 -176 107l79 25c13 -43 47 -64 102 -64c63 0 95 24 95 73c0 47 -30 71 -90 71c-40 0 -71 -16 -94 -48l-68 21l18 213h292v-67h-109l-121 9l-13 -139c19 45 58 68 117 68z" />
    <glyph glyph-name="uni2086" unicode="&#x2086;" horiz-adv-x="376" 
d="M217 150c40 0 74 -12 103 -35c28 -23 42 -54 42 -92c0 -41 -16 -74 -49 -101s-75 -40 -125 -40c-99 0 -169 59 -169 142c0 72 46 148 174 255h108c-9 -7 -26 -19 -51 -37c-26 -19 -45 -33 -58 -44c-26 -21 -71 -67 -102 -112c35 43 78 64 127 64zM98 18
c0 -47 31 -70 92 -70s92 24 92 72c0 47 -30 71 -89 71c-63 0 -95 -24 -95 -73z" />
    <glyph glyph-name="uni2087" unicode="&#x2087;" horiz-adv-x="350" 
d="M16 211v69h323v-59c-109 -108 -162 -219 -159 -333h-95c20 119 78 216 189 323h-258z" />
    <glyph glyph-name="uni2088" unicode="&#x2088;" horiz-adv-x="402" 
d="M258 91c67 -9 121 -40 121 -100c0 -68 -66 -108 -177 -108s-179 40 -179 111c0 55 42 87 127 97c-73 9 -111 43 -111 91c0 67 63 105 162 105c100 0 163 -40 163 -104c0 -48 -39 -83 -106 -92zM116 172c0 -35 29 -52 86 -52c58 0 87 17 87 52c0 37 -29 56 -87 56
c-57 0 -86 -19 -86 -56zM201 -55c63 0 94 19 94 56s-31 55 -94 55c-62 0 -93 -18 -93 -54c0 -38 31 -57 93 -57z" />
    <glyph glyph-name="uni2089" unicode="&#x2089;" horiz-adv-x="376" 
d="M188 286c49 0 89 -13 121 -40s48 -61 48 -102c0 -73 -46 -149 -174 -256h-107c11 9 28 22 52 39c24 18 43 33 58 44c28 23 72 67 103 115c-36 -45 -79 -68 -130 -68c-81 0 -145 51 -145 127c0 41 17 74 50 101s74 40 124 40zM184 77c63 0 94 24 94 73c0 46 -31 69 -92 69
s-92 -24 -92 -71s30 -71 90 -71z" />
    <glyph glyph-name="uni20A8" unicode="&#x20a8;" horiz-adv-x="692" 
d="M63 700h593v-75h-185c27 -27 44 -58 51 -93h134v-73h-132c-15 -88 -83 -151 -192 -172l48 -54l162 -233h-128l-171 279h-180v92h204c87 0 137 29 149 88h-353v73h350c-16 50 -65 75 -146 75h-204v93z" />
    <glyph glyph-name="Euro" unicode="&#x20ac;" horiz-adv-x="770" 
d="M479 80c81 0 130 24 174 87l80 -59c-59 -79 -143 -118 -252 -118c-165 0 -282 93 -319 248h-108v72h97c-1 19 -2 33 -2 42c0 11 1 25 2 44h-97v71h108c39 151 154 243 319 243c103 0 196 -44 252 -117l-80 -59c-44 63 -94 86 -174 86c-115 0 -180 -49 -204 -153h256v-71
h-266c-1 -15 -1 -71 0 -86h266v-72h-256c23 -105 91 -158 204 -158z" />
    <glyph glyph-name="uni20BF" unicode="&#x20bf;" horiz-adv-x="747" 
d="M525 360c121 -15 178 -78 178 -163c0 -120 -86 -197 -215 -197h-8l4 -140h-77l3 140h-83l4 -140h-78l4 140h-167v700h167l-4 137h78l-5 -137h85l-5 137h78l-4 -137c120 -5 195 -73 195 -176c0 -86 -50 -141 -150 -164zM457 608h-262v-208h259c73 0 109 37 109 110
c0 65 -35 98 -106 98zM195 92h276c80 0 120 39 120 116c0 69 -43 103 -129 103h-267v-219z" />
    <glyph glyph-name="uni2116" unicode="&#x2116;" horiz-adv-x="1380" 
d="M1081 345c-59 0 -109 17 -149 52c-41 34 -61 78 -61 132c0 53 20 96 61 130s90 51 149 51s108 -17 149 -51c40 -34 60 -77 60 -130c0 -54 -20 -98 -60 -132c-41 -35 -90 -52 -149 -52zM598 224l74 -113v589h107v-700h-150l-359 479l-73 106v-585h-107v700h151zM1203 529
c0 67 -41 100 -122 100s-122 -33 -122 -100c0 -69 41 -103 122 -103s122 34 122 103zM1252 198h-343v72h343v-72z" />
    <glyph glyph-name="trademark" unicode="&#x2122;" horiz-adv-x="842" 
d="M127 631h-112v69h301v-69h-114v-281h-75v281zM611 509l75 191h117v-350h-73v300l-30 -99l-76 -201h-72l-76 201l-30 100v-301h-73v350h117l74 -191l24 -78z" />
    <glyph glyph-name="oneeighth" unicode="&#x215b;" horiz-adv-x="869" 
d="M247 308h-78v346l-134 -86l-31 63l166 69h77v-392zM369 357l240 343h91l-266 -351l-247 -349h-91zM725 202c67 -9 121 -40 121 -100c0 -68 -66 -108 -177 -108s-179 40 -179 111c0 55 42 87 127 97c-73 9 -111 43 -111 91c0 67 63 105 162 105c100 0 163 -40 163 -104
c0 -48 -39 -83 -106 -92zM583 283c0 -35 29 -52 86 -52c58 0 87 17 87 52c0 37 -29 56 -87 56c-57 0 -86 -19 -86 -56zM668 56c63 0 94 19 94 56s-31 55 -94 55c-62 0 -93 -18 -93 -54c0 -38 31 -57 93 -57z" />
    <glyph glyph-name="threeeighths" unicode="&#x215c;" horiz-adv-x="927" 
d="M367 413c0 -67 -66 -110 -167 -110c-108 0 -174 49 -173 134l80 10c-4 -53 26 -77 94 -77c59 0 89 18 89 54c0 32 -34 54 -85 54l-47 -1v61l48 -1c44 0 73 20 73 51c0 35 -26 53 -78 53c-65 0 -94 -24 -87 -77l-76 10c-8 84 62 132 163 132c93 0 155 -42 155 -106
c0 -49 -32 -79 -96 -91c69 -11 107 -45 107 -96zM427 357l240 343h91l-266 -351l-247 -349h-91zM783 202c67 -9 121 -40 121 -100c0 -68 -66 -108 -177 -108s-179 40 -179 111c0 55 42 87 127 97c-73 9 -111 43 -111 91c0 67 63 105 162 105c100 0 163 -40 163 -104
c0 -48 -39 -83 -106 -92zM641 283c0 -35 29 -52 86 -52c58 0 87 17 87 52c0 37 -29 56 -87 56c-57 0 -86 -19 -86 -56zM726 56c63 0 94 19 94 56s-31 55 -94 55c-62 0 -93 -18 -93 -54c0 -38 31 -57 93 -57z" />
    <glyph glyph-name="fiveeighths" unicode="&#x215d;" horiz-adv-x="929" 
d="M370 443c0 -84 -72 -141 -172 -141c-87 0 -157 40 -176 107l79 25c13 -43 47 -64 102 -64c63 0 95 24 95 73c0 47 -30 71 -90 71c-40 0 -71 -16 -94 -48l-68 21l18 213h292v-67h-109l-121 9l-13 -139c19 45 58 68 117 68c81 0 140 -49 140 -128zM429 357l240 343h91
l-266 -351l-247 -349h-91zM785 202c67 -9 121 -40 121 -100c0 -68 -66 -108 -177 -108s-179 40 -179 111c0 55 42 87 127 97c-73 9 -111 43 -111 91c0 67 63 105 162 105c100 0 163 -40 163 -104c0 -48 -39 -83 -106 -92zM643 283c0 -35 29 -52 86 -52c58 0 87 17 87 52
c0 37 -29 56 -87 56c-57 0 -86 -19 -86 -56zM728 56c63 0 94 19 94 56s-31 55 -94 55c-62 0 -93 -18 -93 -54c0 -38 31 -57 93 -57z" />
    <glyph glyph-name="seveneighths" unicode="&#x215e;" horiz-adv-x="843" 
d="M180 308h-95c20 119 78 216 189 323h-258v69h323v-59c-109 -108 -162 -219 -159 -333zM343 357l240 343h91l-266 -351l-247 -349h-91zM699 202c67 -9 121 -40 121 -100c0 -68 -66 -108 -177 -108s-179 40 -179 111c0 55 42 87 127 97c-73 9 -111 43 -111 91
c0 67 63 105 162 105c100 0 163 -40 163 -104c0 -48 -39 -83 -106 -92zM557 283c0 -35 29 -52 86 -52c58 0 87 17 87 52c0 37 -29 56 -87 56c-57 0 -86 -19 -86 -56zM642 56c63 0 94 19 94 56s-31 55 -94 55c-62 0 -93 -18 -93 -54c0 -38 31 -57 93 -57z" />
    <glyph glyph-name="arrowleft" unicode="&#x2190;" horiz-adv-x="900" 
d="M852 400v-101l-489 1l-177 13l278 -241l-74 -74l-342 342v21l342 342l73 -74l-278 -241l178 12h489z" />
    <glyph glyph-name="arrowup" unicode="&#x2191;" horiz-adv-x="900" 
d="M460 757l342 -342l-74 -75l-240 279l12 -178l1 -489h-100v489l11 179l-240 -279l-74 74l341 342h21z" />
    <glyph glyph-name="arrowright" unicode="&#x2192;" horiz-adv-x="900" 
d="M437 627l74 74l341 -341v-21l-342 -342l-74 74l279 240l-178 -12l-489 -1v100h489l179 -11z" />
    <glyph glyph-name="arrowdown" unicode="&#x2193;" horiz-adv-x="900" 
d="M488 82l240 278l74 -74l-342 -342h-21l-341 342l74 73l240 -278l-11 178v489h100l-1 -489z" />
    <glyph glyph-name="uni2196" unicode="&#x2196;" horiz-adv-x="900" 
d="M276 577l134 -116l346 -345l-71 -71l-345 345l-119 136l27 -368h-104v483l15 15h483l1 -105z" />
    <glyph glyph-name="uni2197" unicode="&#x2197;" horiz-adv-x="900" 
d="M258 652h483l15 -14v-484h-105l26 367l-116 -134l-345 -347l-71 71l345 346l135 118l-367 -27v104z" />
    <glyph glyph-name="uni2198" unicode="&#x2198;" horiz-adv-x="900" 
d="M679 175l-27 367h104v-483l-14 -15h-484v105l367 -26l-134 116l-347 345l71 71l346 -345z" />
    <glyph glyph-name="uni2199" unicode="&#x2199;" horiz-adv-x="900" 
d="M756 584l-346 -345l-134 -116l367 26l-1 -105h-483l-15 15v483h104l-27 -368l119 136l345 345z" />
    <glyph glyph-name="minus" unicode="&#x2212;" 
d="M581 241h-482v88h482v-88z" />
    <glyph glyph-name="approxequal" unicode="&#x2248;" 
d="M185 301l-86 42c23 48 69 96 137 96c25 0 60 -8 105 -25s74 -25 89 -25c24 0 47 18 52 27c3 4 8 12 15 24l84 -40c-24 -52 -68 -98 -135 -98c-25 0 -60 8 -105 25s-75 25 -90 25c-24 0 -46 -18 -50 -25c-3 -4 -8 -13 -16 -26zM190 124l-5 -10l-86 42c23 49 69 97 137 97
c25 0 60 -8 105 -25s74 -25 89 -25c25 0 45 17 52 27c3 5 8 13 15 24l84 -41c-31 -65 -76 -97 -135 -97c-25 0 -60 8 -105 25s-75 25 -90 25c-17 0 -28 -8 -37 -13c-5 -3 -14 -16 -16 -18c-1 -1 -4 -5 -8 -11z" />
    <glyph glyph-name="notequal" unicode="&#x2260;" 
d="M578 337h-164l-33 -54l-29 -56h226v-85h-269l-56 -110h-99l68 110h-120v85h172l40 65l23 45h-235v85h277l49 97h99l-60 -97h111v-85z" />
    <glyph glyph-name="lessequal" unicode="&#x2264;" 
d="M540 542v-89l-211 -70l-121 -32l122 -32l210 -68v-86l-400 146v85zM540 29h-400v82h400v-82z" />
    <glyph glyph-name="greaterequal" unicode="&#x2265;" 
d="M140 453v89l400 -146v-85l-400 -146v86l210 68l122 32l-121 32zM540 29h-400v82h400v-82z" />
    <glyph glyph-name="fi" unicode="&#xfb01;" horiz-adv-x="659" 
d="M232 480h349v-480h-102v389h-247v-389h-102v389h-113v91h113v100c0 80 54 133 134 133h164v-91h-196v-142z" />
    <glyph glyph-name="fl" unicode="&#xfb02;" horiz-adv-x="673" 
d="M492 480v220h102v-700h-102v389h-246v-389h-102v389h-127v91h127v100c0 80 53 133 133 133h84v-91h-115v-142h246z" />
    <glyph glyph-name="G.ss04" horiz-adv-x="868" 
d="M507 264v88h316v-29c0 -98 -33 -178 -98 -240s-159 -93 -281 -93c-119 0 -215 34 -288 101c-74 67 -111 154 -111 261c0 109 36 196 109 261c72 65 171 97 298 97c197 0 327 -86 359 -253l-95 -41c-14 75 -40 127 -78 155s-100 42 -187 42c-109 0 -185 -20 -229 -59
c-45 -39 -67 -107 -67 -202c0 -97 22 -166 66 -206c43 -41 118 -61 223 -61c180 0 255 50 268 179h-205z" />
    <glyph glyph-name="Gbreve.ss04" horiz-adv-x="868" 
d="M439 765c-87 0 -148 58 -149 143h89c0 -51 16 -69 60 -69c47 0 64 18 65 69h88c-1 -85 -64 -143 -153 -143zM507 264v88h316v-29c0 -98 -33 -178 -98 -240s-159 -93 -281 -93c-119 0 -215 34 -288 101c-74 67 -111 154 -111 261c0 109 36 196 109 261
c72 65 171 97 298 97c197 0 327 -86 359 -253l-95 -41c-14 75 -40 127 -78 155s-100 42 -187 42c-109 0 -185 -20 -229 -59c-45 -39 -67 -107 -67 -202c0 -97 22 -166 66 -206c43 -41 118 -61 223 -61c180 0 255 50 268 179h-205z" />
    <glyph glyph-name="uni0122.ss04" horiz-adv-x="868" 
d="M507 264v88h316v-29c0 -98 -33 -178 -98 -240s-159 -93 -281 -93c-119 0 -215 34 -288 101c-74 67 -111 154 -111 261c0 109 36 196 109 261c72 65 171 97 298 97c197 0 327 -86 359 -253l-95 -41c-14 75 -40 127 -78 155s-100 42 -187 42c-109 0 -185 -20 -229 -59
c-45 -39 -67 -107 -67 -202c0 -97 22 -166 66 -206c43 -41 118 -61 223 -61c180 0 255 50 268 179h-205zM383 -53c35 33 107 11 102 -40c0 -13 -3 -23 -9 -32l-62 -97h-81l83 71c-29 4 -49 27 -50 58c-1 17 5 30 17 40z" />
    <glyph glyph-name="Gdotaccent.ss04" horiz-adv-x="868" 
d="M441 779c-45 0 -69 23 -70 69c-1 43 25 66 70 66s69 -22 70 -66s-25 -69 -70 -69zM507 264v88h316v-29c0 -98 -33 -178 -98 -240s-159 -93 -281 -93c-119 0 -215 34 -288 101c-74 67 -111 154 -111 261c0 109 36 196 109 261c72 65 171 97 298 97c197 0 327 -86 359 -253
l-95 -41c-14 75 -40 127 -78 155s-100 42 -187 42c-109 0 -185 -20 -229 -59c-45 -39 -67 -107 -67 -202c0 -97 22 -166 66 -206c43 -41 118 -61 223 -61c180 0 255 50 268 179h-205z" />
    <glyph glyph-name="Q.ss09" horiz-adv-x="883" 
d="M753 117l57 -40l42 -42l-65 -65l-43 43l-41 57c-70 -53 -157 -80 -261 -80c-118 0 -214 34 -287 101s-110 154 -110 261s37 193 110 259s168 99 287 99c118 0 214 -33 287 -99s109 -152 109 -259c0 -93 -28 -171 -85 -235zM155 352c0 -97 22 -165 65 -205
s117 -60 222 -60c93 0 160 15 202 45l-74 55l-62 62l65 65l62 -62l54 -75c26 39 39 98 39 175c0 95 -21 163 -64 202s-117 59 -222 59s-179 -20 -222 -59s-65 -107 -65 -202z" />
    <glyph glyph-name="IJ.ss11" horiz-adv-x="613" 
d="M427 94v606h106v-557c0 -85 -57 -143 -144 -143h-299v94h337zM196 212h-106v488h106v-488z" />
    <glyph glyph-name="J.ss11" horiz-adv-x="488" 
d="M302 94v606h106v-557c0 -87 -56 -143 -143 -143h-228v94h265z" />
    <glyph glyph-name="OE.ss12" horiz-adv-x="1319" 
d="M1256 700v-97h-418v-177h397v-96h-397v-233h418v-97h-523v95c-74 -70 -171 -105 -291 -105c-118 0 -214 34 -287 101s-110 154 -110 261s37 193 110 259s168 99 287 99c120 0 217 -34 291 -103v93h523zM442 87c105 0 179 20 222 60s64 108 64 205c0 95 -21 163 -64 202
s-117 59 -222 59s-179 -20 -222 -59s-65 -107 -65 -202c0 -97 22 -165 65 -205s117 -60 222 -60z" />
    <glyph glyph-name="i.loclTRK" horiz-adv-x="259" 
d="M130 579c-45 0 -69 23 -70 69c-1 43 25 66 70 66s69 -22 70 -66s-25 -69 -70 -69zM180 0h-102v480h102v-480z" />
    <glyph glyph-name="germandbls.calt" horiz-adv-x="797" 
d="M522 457c0 -63 84 -85 150 -124c44 -27 81 -79 81 -154c0 -121 -81 -189 -221 -189c-81 0 -154 25 -218 74l45 102c63 -59 112 -80 175 -80c73 0 109 28 109 84c0 75 -82 100 -146 132c-44 22 -80 63 -80 124c0 76 46 147 159 178h-390v-604h-106v552
c0 89 60 148 151 148h464v-89c-53 -12 -95 -33 -126 -63c-31 -31 -47 -61 -47 -91z" />
    <glyph glyph-name="a.ss01" horiz-adv-x="597" 
d="M300 490c141 0 224 -63 224 -174v-316h-101v108c-31 -79 -96 -118 -196 -118c-111 0 -179 50 -179 134c0 101 103 153 283 153h92v38c0 59 -42 89 -125 89c-81 0 -133 -35 -132 -110l-97 20c1 53 22 95 65 128c43 32 98 48 166 48zM256 66c47 0 86 13 119 39
c32 25 48 61 48 107h-95c-117 0 -176 -27 -176 -81c0 -41 36 -65 104 -65z" />
    <glyph glyph-name="aacute.ss01" horiz-adv-x="597" 
d="M328 727h152l-155 -167h-62zM300 490c141 0 224 -63 224 -174v-316h-101v108c-31 -79 -96 -118 -196 -118c-111 0 -179 50 -179 134c0 101 103 153 283 153h92v38c0 59 -42 89 -125 89c-81 0 -133 -35 -132 -110l-97 20c1 53 22 95 65 128c43 32 98 48 166 48zM256 66
c47 0 86 13 119 39c32 25 48 61 48 107h-95c-117 0 -176 -27 -176 -81c0 -41 36 -65 104 -65z" />
    <glyph glyph-name="abreve.ss01" horiz-adv-x="597" 
d="M304 562c-87 0 -146 57 -149 144h89c0 -51 16 -69 60 -69c47 0 64 18 65 69h88c-1 -85 -64 -144 -153 -144zM300 490c141 0 224 -63 224 -174v-316h-101v108c-31 -79 -96 -118 -196 -118c-111 0 -179 50 -179 134c0 101 103 153 283 153h92v38c0 59 -42 89 -125 89
c-81 0 -133 -35 -132 -110l-97 20c1 53 22 95 65 128c43 32 98 48 166 48zM256 66c47 0 86 13 119 39c32 25 48 61 48 107h-95c-117 0 -176 -27 -176 -81c0 -41 36 -65 104 -65z" />
    <glyph glyph-name="acircumflex.ss01" horiz-adv-x="597" 
d="M401 560l-94 80l-95 -80h-66l117 167h87l117 -167h-66zM300 490c141 0 224 -63 224 -174v-316h-101v108c-31 -79 -96 -118 -196 -118c-111 0 -179 50 -179 134c0 101 103 153 283 153h92v38c0 59 -42 89 -125 89c-81 0 -133 -35 -132 -110l-97 20c1 53 22 95 65 128
c43 32 98 48 166 48zM256 66c47 0 86 13 119 39c32 25 48 61 48 107h-95c-117 0 -176 -27 -176 -81c0 -41 36 -65 104 -65z" />
    <glyph glyph-name="adieresis.ss01" horiz-adv-x="597" 
d="M200 579c-44 0 -70 25 -70 69c-1 43 23 66 70 66c45 0 69 -22 70 -66c0 -44 -25 -69 -70 -69zM412 579c-44 0 -70 25 -70 69c-1 43 23 66 70 66c45 0 69 -22 70 -66c0 -44 -25 -69 -70 -69zM300 490c141 0 224 -63 224 -174v-316h-101v108c-31 -79 -96 -118 -196 -118
c-111 0 -179 50 -179 134c0 101 103 153 283 153h92v38c0 59 -42 89 -125 89c-81 0 -133 -35 -132 -110l-97 20c1 53 22 95 65 128c43 32 98 48 166 48zM256 66c47 0 86 13 119 39c32 25 48 61 48 107h-95c-117 0 -176 -27 -176 -81c0 -41 36 -65 104 -65z" />
    <glyph glyph-name="agrave.ss01" horiz-adv-x="597" 
d="M284 727l65 -167h-62l-155 167h152zM300 490c141 0 224 -63 224 -174v-316h-101v108c-31 -79 -96 -118 -196 -118c-111 0 -179 50 -179 134c0 101 103 153 283 153h92v38c0 59 -42 89 -125 89c-81 0 -133 -35 -132 -110l-97 20c1 53 22 95 65 128c43 32 98 48 166 48z
M256 66c47 0 86 13 119 39c32 25 48 61 48 107h-95c-117 0 -176 -27 -176 -81c0 -41 36 -65 104 -65z" />
    <glyph glyph-name="amacron.ss01" horiz-adv-x="597" 
d="M166 670h280v-75h-280v75zM300 490c141 0 224 -63 224 -174v-316h-101v108c-31 -79 -96 -118 -196 -118c-111 0 -179 50 -179 134c0 101 103 153 283 153h92v38c0 59 -42 89 -125 89c-81 0 -133 -35 -132 -110l-97 20c1 53 22 95 65 128c43 32 98 48 166 48zM256 66
c47 0 86 13 119 39c32 25 48 61 48 107h-95c-117 0 -176 -27 -176 -81c0 -41 36 -65 104 -65z" />
    <glyph glyph-name="aogonek.ss01" horiz-adv-x="597" 
d="M471 -120c21 0 39 3 56 10v-70c-22 -7 -46 -11 -72 -11c-72 0 -112 37 -112 86c0 45 38 80 114 105h-34v108c-31 -79 -96 -118 -196 -118c-111 0 -179 50 -179 134c0 101 103 153 283 153h92v38c0 59 -42 89 -125 89c-81 0 -133 -35 -132 -110l-97 20c1 53 22 95 65 128
c43 32 98 48 166 48c141 0 224 -63 224 -174v-316h-22c-32 -21 -37 -25 -54 -41c-17 -15 -21 -26 -21 -42c0 -23 17 -37 44 -37zM256 66c47 0 86 13 119 39c32 25 48 61 48 107h-95c-117 0 -176 -27 -176 -81c0 -41 36 -65 104 -65z" />
    <glyph glyph-name="aring.ss01" horiz-adv-x="597" 
d="M390 575c-21 -20 -49 -30 -84 -30s-62 10 -83 30s-32 46 -32 78c0 65 46 108 115 108s115 -43 115 -108c0 -32 -10 -58 -31 -78zM341 687c-7 7 -18 10 -35 10s-28 -3 -34 -10c-7 -7 -10 -18 -10 -34c0 -33 11 -44 44 -44s45 11 45 44c0 16 -3 27 -10 34zM300 490
c141 0 224 -63 224 -174v-316h-101v108c-31 -79 -96 -118 -196 -118c-111 0 -179 50 -179 134c0 101 103 153 283 153h92v38c0 59 -42 89 -125 89c-81 0 -133 -35 -132 -110l-97 20c1 53 22 95 65 128c43 32 98 48 166 48zM256 66c47 0 86 13 119 39c32 25 48 61 48 107h-95
c-117 0 -176 -27 -176 -81c0 -41 36 -65 104 -65z" />
    <glyph glyph-name="atilde.ss01" horiz-adv-x="597" 
d="M231 632c-19 0 -24 -15 -24 -58h-53c0 105 21 138 77 138c76 0 111 -77 151 -77c16 0 24 19 24 57h53c0 -96 -25 -136 -78 -136c-63 -3 -122 79 -150 76zM300 490c141 0 224 -63 224 -174v-316h-101v108c-31 -79 -96 -118 -196 -118c-111 0 -179 50 -179 134
c0 101 103 153 283 153h92v38c0 59 -42 89 -125 89c-81 0 -133 -35 -132 -110l-97 20c1 53 22 95 65 128c43 32 98 48 166 48zM256 66c47 0 86 13 119 39c32 25 48 61 48 107h-95c-117 0 -176 -27 -176 -81c0 -41 36 -65 104 -65z" />
    <glyph glyph-name="y.ss02" horiz-adv-x="643" 
d="M463 281v199h102v-454c0 -125 -98 -206 -263 -206c-132 0 -222 51 -250 139l100 42c17 -71 56 -97 153 -97c63 0 105 10 126 29c21 20 32 53 32 100v117c-23 -89 -85 -133 -186 -133c-131 0 -204 68 -204 195v268h102v-258c0 -75 44 -113 131 -113c105 0 157 57 157 172z
" />
    <glyph glyph-name="yacute.ss02" horiz-adv-x="643" 
d="M346 727h152l-155 -167h-62zM463 281v199h102v-454c0 -125 -98 -206 -263 -206c-132 0 -222 51 -250 139l100 42c17 -71 56 -97 153 -97c63 0 105 10 126 29c21 20 32 53 32 100v117c-23 -89 -85 -133 -186 -133c-131 0 -204 68 -204 195v268h102v-258
c0 -75 44 -113 131 -113c105 0 157 57 157 172z" />
    <glyph glyph-name="ycircumflex.ss02" horiz-adv-x="643" 
d="M419 560l-94 80l-95 -80h-66l117 167h87l117 -167h-66zM463 281v199h102v-454c0 -125 -98 -206 -263 -206c-132 0 -222 51 -250 139l100 42c17 -71 56 -97 153 -97c63 0 105 10 126 29c21 20 32 53 32 100v117c-23 -89 -85 -133 -186 -133c-131 0 -204 68 -204 195v268
h102v-258c0 -75 44 -113 131 -113c105 0 157 57 157 172z" />
    <glyph glyph-name="ydieresis.ss02" horiz-adv-x="643" 
d="M218 579c-44 0 -70 25 -70 69c-1 43 23 66 70 66c45 0 69 -22 70 -66c0 -44 -25 -69 -70 -69zM430 579c-44 0 -70 25 -70 69c-1 43 23 66 70 66c45 0 69 -22 70 -66c0 -44 -25 -69 -70 -69zM463 281v199h102v-454c0 -125 -98 -206 -263 -206c-132 0 -222 51 -250 139
l100 42c17 -71 56 -97 153 -97c63 0 105 10 126 29c21 20 32 53 32 100v117c-23 -89 -85 -133 -186 -133c-131 0 -204 68 -204 195v268h102v-258c0 -75 44 -113 131 -113c105 0 157 57 157 172z" />
    <glyph glyph-name="ygrave.ss02" horiz-adv-x="643" 
d="M302 727l65 -167h-62l-155 167h152zM463 281v199h102v-454c0 -125 -98 -206 -263 -206c-132 0 -222 51 -250 139l100 42c17 -71 56 -97 153 -97c63 0 105 10 126 29c21 20 32 53 32 100v117c-23 -89 -85 -133 -186 -133c-131 0 -204 68 -204 195v268h102v-258
c0 -75 44 -113 131 -113c105 0 157 57 157 172z" />
    <glyph glyph-name="u.ss03" horiz-adv-x="638" 
d="M463 187v293h102v-285c0 -128 -91 -205 -247 -205s-245 76 -245 205v285h102v-293c0 -83 36 -106 143 -106c108 0 145 23 145 106z" />
    <glyph glyph-name="uacute.ss03" horiz-adv-x="638" 
d="M341 727h152l-155 -167h-62zM463 187v293h102v-285c0 -128 -91 -205 -247 -205s-245 76 -245 205v285h102v-293c0 -83 36 -106 143 -106c108 0 145 23 145 106z" />
    <glyph glyph-name="ucircumflex.ss03" horiz-adv-x="638" 
d="M414 560l-94 80l-95 -80h-66l117 167h87l117 -167h-66zM463 187v293h102v-285c0 -128 -91 -205 -247 -205s-245 76 -245 205v285h102v-293c0 -83 36 -106 143 -106c108 0 145 23 145 106z" />
    <glyph glyph-name="udieresis.ss03" horiz-adv-x="638" 
d="M213 579c-44 0 -70 25 -70 69c-1 43 23 66 70 66c45 0 69 -22 70 -66c0 -44 -25 -69 -70 -69zM425 579c-44 0 -70 25 -70 69c-1 43 23 66 70 66c45 0 69 -22 70 -66c0 -44 -25 -69 -70 -69zM463 187v293h102v-285c0 -128 -91 -205 -247 -205s-245 76 -245 205v285h102
v-293c0 -83 36 -106 143 -106c108 0 145 23 145 106z" />
    <glyph glyph-name="ugrave.ss03" horiz-adv-x="638" 
d="M300 560l-155 167h152l65 -167h-62zM463 187v293h102v-285c0 -128 -91 -205 -247 -205s-245 76 -245 205v285h102v-293c0 -83 36 -106 143 -106c108 0 145 23 145 106z" />
    <glyph glyph-name="uhungarumlaut.ss03" horiz-adv-x="638" 
d="M269 727h152l-155 -167h-62zM427 727h152l-156 -167h-61zM463 187v293h102v-285c0 -128 -91 -205 -247 -205s-245 76 -245 205v285h102v-293c0 -83 36 -106 143 -106c108 0 145 23 145 106z" />
    <glyph glyph-name="umacron.ss03" horiz-adv-x="638" 
d="M179 595v75h280v-75h-280zM463 187v293h102v-285c0 -128 -91 -205 -247 -205s-245 76 -245 205v285h102v-293c0 -83 36 -106 143 -106c108 0 145 23 145 106z" />
    <glyph glyph-name="uogonek.ss03" horiz-adv-x="638" 
d="M463 187v293h102v-285c0 -109 -66 -181 -182 -200c-49 -35 -68 -50 -68 -78c0 -23 17 -37 44 -37c21 0 39 3 56 10v-70c-22 -7 -46 -11 -72 -11c-72 0 -112 37 -112 86c0 39 29 70 88 95h-1c-156 0 -245 76 -245 205v285h102v-293c0 -83 36 -106 143 -106
c108 0 145 23 145 106z" />
    <glyph glyph-name="uring.ss03" horiz-adv-x="638" 
d="M403 575c-21 -20 -49 -30 -84 -30s-62 10 -83 30s-32 46 -32 78c0 65 46 108 115 108s115 -43 115 -108c0 -32 -10 -58 -31 -78zM285 619c6 -7 17 -10 34 -10s28 3 35 10c7 6 10 17 10 34c0 32 -12 44 -45 44s-44 -12 -44 -44c0 -17 3 -28 10 -34zM463 187v293h102v-285
c0 -128 -91 -205 -247 -205s-245 76 -245 205v285h102v-293c0 -83 36 -106 143 -106c108 0 145 23 145 106z" />
    <glyph glyph-name="t.ss07" horiz-adv-x="396" 
d="M245 480h135v-91h-135v-389h-103v389h-126v91h126v147h103v-147z" />
    <glyph glyph-name="tbar.ss07" horiz-adv-x="396" 
d="M380 480v-91h-135v-83h93v-76h-93v-230h-103v230h-117v76h117v83h-126v91h126v147h103v-147h135z" />
    <glyph glyph-name="tcaron.ss07" horiz-adv-x="396" 
d="M319 787h110l-51 -243h-59v243zM142 627h103v-147h135v-91h-135v-389h-103v389h-126v91h126v147z" />
    <glyph glyph-name="uni0163.ss07" horiz-adv-x="396" 
d="M245 389v-389h-25l-32 -50c61 -12 101 -45 101 -94c0 -53 -48 -91 -119 -91c-64 0 -116 31 -131 76l62 33c5 -33 28 -50 68 -50c28 0 47 14 47 33c0 27 -36 46 -108 57l59 86h-25v389h-126v91h126v147h103v-147h135v-91h-135z" />
    <glyph glyph-name="uni021B.ss07" horiz-adv-x="396" 
d="M245 627v-147h135v-91h-135v-389h-103v389h-126v91h126v147h103zM150 -53c35 33 107 11 102 -40c0 -13 -3 -23 -9 -32l-62 -97h-81l83 71c-29 4 -49 27 -50 58c-1 17 5 30 17 40z" />
    <glyph glyph-name="f.ss08" horiz-adv-x="359" 
d="M180 480h174v-91h-174v-389h-102v580c0 80 54 133 134 133h136v-91h-168v-142z" />
    <glyph glyph-name="t.ss08" horiz-adv-x="389" 
d="M365 480v-91h-190v-298h175v-91h-143c-80 0 -134 53 -134 133v494h102v-147h190z" />
    <glyph glyph-name="tbar.ss08" horiz-adv-x="389" 
d="M365 480v-91h-190v-83h178v-76h-178v-139h175v-91h-143c-80 0 -134 53 -134 133v494h102v-147h190z" />
    <glyph glyph-name="tcaron.ss08" horiz-adv-x="389" 
d="M250 787h110l-51 -243h-59v243zM365 480v-91h-190v-298h175v-91h-143c-80 0 -134 53 -134 133v494h102v-147h190z" />
    <glyph glyph-name="uni0163.ss08" horiz-adv-x="389" 
d="M365 480v-91h-190v-298h175v-91h-104l-32 -50c61 -12 101 -45 101 -94c0 -53 -48 -91 -119 -91c-64 0 -116 31 -131 76l62 33c5 -33 28 -50 68 -50c28 0 47 14 47 33c0 27 -36 46 -108 57l59 87c-72 5 -120 57 -120 132v494h102v-147h190z" />
    <glyph glyph-name="uni021B.ss08" horiz-adv-x="389" 
d="M365 480v-91h-190v-298h175v-91h-143c-80 0 -134 53 -134 133v494h102v-147h190zM165 -53c35 33 107 11 102 -40c0 -13 -3 -23 -9 -32l-62 -97h-81l83 71c-29 4 -49 27 -50 58c-1 17 5 30 17 40z" />
    <glyph glyph-name="m.ss10" horiz-adv-x="1034" 
d="M78 480h746c80 0 136 -53 136 -133v-347h-102v387h-288v-387h-102v387h-288v-387h-102v480z" />
    <glyph glyph-name="n.ss10" horiz-adv-x="644" 
d="M78 480h356c80 0 136 -53 136 -133v-347h-102v387h-288v-387h-102v480z" />
    <glyph glyph-name="nacute.ss10" horiz-adv-x="644" 
d="M343 727h152l-155 -167h-62zM78 480h356c80 0 136 -53 136 -133v-347h-102v387h-288v-387h-102v480z" />
    <glyph glyph-name="ncaron.ss10" horiz-adv-x="644" 
d="M482 727l-117 -167h-87l-117 167h66l95 -80l94 80h66zM78 480h356c80 0 136 -53 136 -133v-347h-102v387h-288v-387h-102v480z" />
    <glyph glyph-name="uni0146.ss10" horiz-adv-x="644" 
d="M78 480h356c80 0 136 -53 136 -133v-347h-102v387h-288v-387h-102v480zM270 -53c35 33 107 11 102 -40c0 -13 -3 -23 -9 -32l-62 -97h-81l83 71c-29 4 -49 27 -50 58c-1 17 5 30 17 40z" />
    <glyph glyph-name="eng.ss10" horiz-adv-x="644" 
d="M78 480h356c80 0 136 -53 136 -133v-384c0 -80 -53 -133 -133 -133h-51v93h82v464h-288v-387h-102v480z" />
    <glyph glyph-name="ntilde.ss10" horiz-adv-x="644" 
d="M246 632c-19 0 -24 -15 -24 -58h-53c0 105 21 138 77 138c76 0 111 -77 151 -77c16 0 24 19 24 57h53c0 -96 -25 -136 -78 -136c-63 -3 -122 79 -150 76zM78 480h356c80 0 136 -53 136 -133v-347h-102v387h-288v-387h-102v480z" />
    <glyph glyph-name="r.ss10" horiz-adv-x="455" 
d="M180 387v-387h-102v347c0 80 57 133 137 133h221v-93h-256z" />
    <glyph glyph-name="racute.ss10" horiz-adv-x="455" 
d="M276 727h152l-155 -167h-62zM180 387v-387h-102v347c0 80 57 133 137 133h221v-93h-256z" />
    <glyph glyph-name="rcaron.ss10" horiz-adv-x="455" 
d="M415 727l-117 -167h-87l-117 167h66l95 -80l94 80h66zM215 480h221v-93h-256v-387h-102v347c0 80 57 133 137 133z" />
    <glyph glyph-name="uni0157.ss10" horiz-adv-x="455" 
d="M215 480h221v-93h-256v-387h-102v347c0 80 57 133 137 133zM81 -53c35 33 107 11 102 -40c0 -13 -3 -23 -9 -32l-62 -97h-81l83 71c-29 4 -49 27 -50 58c-1 17 5 30 17 40z" />
    <glyph glyph-name="u.ss10" horiz-adv-x="644" 
d="M464 93v387h102v-480h-356c-80 0 -136 53 -136 133v347h102v-387h288z" />
    <glyph glyph-name="uacute.ss10" horiz-adv-x="644" 
d="M341 727h152l-155 -167h-62zM464 93v387h102v-480h-356c-80 0 -136 53 -136 133v347h102v-387h288z" />
    <glyph glyph-name="ucircumflex.ss10" horiz-adv-x="644" 
d="M414 560l-94 80l-95 -80h-66l117 167h87l117 -167h-66zM464 93v387h102v-480h-356c-80 0 -136 53 -136 133v347h102v-387h288z" />
    <glyph glyph-name="udieresis.ss10" horiz-adv-x="644" 
d="M213 579c-44 0 -70 25 -70 69c-1 43 23 66 70 66c45 0 69 -22 70 -66c0 -44 -25 -69 -70 -69zM425 579c-44 0 -70 25 -70 69c-1 43 23 66 70 66c45 0 69 -22 70 -66c0 -44 -25 -69 -70 -69zM464 93v387h102v-480h-356c-80 0 -136 53 -136 133v347h102v-387h288z" />
    <glyph glyph-name="ugrave.ss10" horiz-adv-x="644" 
d="M297 727l65 -167h-62l-155 167h152zM464 93v387h102v-480h-356c-80 0 -136 53 -136 133v347h102v-387h288z" />
    <glyph glyph-name="uhungarumlaut.ss10" horiz-adv-x="644" 
d="M269 727h152l-155 -167h-62zM579 727l-156 -167h-61l65 167h152zM176 93h288v387h102v-480h-356c-80 0 -136 53 -136 133v347h102v-387z" />
    <glyph glyph-name="umacron.ss10" horiz-adv-x="644" 
d="M179 670h280v-75h-280v75zM464 93v387h102v-480h-356c-80 0 -136 53 -136 133v347h102v-387h288z" />
    <glyph glyph-name="uogonek.ss10" horiz-adv-x="644" 
d="M511 -120c21 0 39 3 56 10v-70c-22 -7 -46 -11 -72 -11c-72 0 -112 37 -112 86c0 45 38 80 114 105h-287c-80 0 -136 53 -136 133v347h102v-387h288v387h102v-480h-24c-32 -21 -37 -25 -54 -41c-17 -15 -21 -26 -21 -42c0 -23 17 -37 44 -37z" />
    <glyph glyph-name="uring.ss10" horiz-adv-x="644" 
d="M403 575c-21 -20 -49 -30 -84 -30s-62 10 -83 30s-32 46 -32 78c0 65 46 108 115 108s115 -43 115 -108c0 -32 -10 -58 -31 -78zM354 687c-7 7 -18 10 -35 10s-28 -3 -34 -10c-7 -7 -10 -18 -10 -34c0 -33 11 -44 44 -44s45 11 45 44c0 16 -3 27 -10 34zM464 93v387h102
v-480h-356c-80 0 -136 53 -136 133v347h102v-387h288z" />
    <glyph glyph-name="f_f" horiz-adv-x="773" 
d="M594 480h174v-91h-174v-389h-102v389h-246v-389h-102v389h-127v91h127v100c0 80 53 133 133 133h136v-91h-167v-142h246v100c0 80 54 133 134 133h136v-91h-168v-142z" />
    <glyph glyph-name="f_f_f" horiz-adv-x="1121" 
d="M943 480h173v-91h-173v-389h-102v389h-247v-389h-102v389h-246v-389h-102v389h-127v91h127v100c0 80 53 133 133 133h136v-91h-167v-142h246v100c0 80 54 133 134 133h136v-91h-168v-142h247v100c0 80 53 133 133 133h136v-91h-167v-142z" />
    <glyph glyph-name="f_f_i" horiz-adv-x="1021" 
d="M594 480h349v-480h-102v389h-247v-389h-102v389h-246v-389h-102v389h-127v91h127v100c0 80 53 133 133 133h136v-91h-167v-142h246v100c0 80 54 133 134 133h164v-91h-196v-142z" />
    <glyph glyph-name="f_f_l" horiz-adv-x="1021" 
d="M841 480v220h102v-700h-102v389h-247v-389h-102v389h-246v-389h-102v389h-127v91h127v100c0 80 53 133 133 133h136v-91h-167v-142h246v100c0 80 54 133 134 133h84v-91h-116v-142h247z" />
    <glyph glyph-name="w_w_w" horiz-adv-x="2215" 
d="M2010 188l79 292h111l-149 -480h-115l-106 275l-31 93l-31 -94l-107 -274h-113l-95 303l-93 -303h-115l-107 275l-30 92l-31 -93l-107 -274h-114l-94 301l-93 -301h-116l-106 275l-31 93l-31 -94l-106 -274h-114l-150 480h112l79 -292l22 -104l31 104l105 292h104
l104 -291l33 -109l23 108l78 292h112l79 -292l23 -104l30 104l105 292h104l105 -291l32 -107l23 106l78 292h113l78 -292l23 -104l31 104l105 292h103l105 -291l32 -109z" />
    <glyph glyph-name="ordfeminine.ss01" horiz-adv-x="527" 
d="M264 710c124 0 198 -58 198 -155v-279h-91v105c-25 -75 -82 -113 -173 -113c-96 0 -156 45 -156 118c0 88 91 138 242 138h87v33c0 52 -36 78 -109 78c-76 0 -116 -24 -117 -96l-86 18c1 95 85 153 205 153zM225 335c80 0 146 47 146 128h-85c-91 0 -151 -25 -151 -70
c0 -36 34 -58 90 -58z" />
    <glyph glyph-name="zero.osf" horiz-adv-x="643" 
d="M321 568c176 0 281 -105 281 -289c0 -183 -105 -289 -281 -289s-280 106 -280 289c0 184 105 289 280 289zM187 129c25 -30 70 -45 134 -45s109 15 135 45c25 29 38 79 38 150c0 143 -45 195 -173 195s-172 -52 -172 -195c0 -71 13 -121 38 -150z" />
    <glyph glyph-name="one.osf" horiz-adv-x="610" 
d="M385 558v-466h212v-92h-547v92h231v394l-210 -155l-48 101l263 126h99z" />
    <glyph glyph-name="two.osf" horiz-adv-x="613" 
d="M354 167l-185 -75h400v-92h-518v88l232 124c99 53 155 98 155 162c0 69 -39 101 -130 101c-103 0 -149 -53 -137 -158l-112 15c-5 73 15 131 62 173s109 63 188 63c147 0 240 -74 240 -186c0 -92 -65 -164 -195 -215z" />
    <glyph glyph-name="three.osf" horiz-adv-x="650" 
d="M433 223c117 -19 183 -86 183 -174c0 -59 -26 -107 -78 -145c-53 -37 -121 -56 -204 -56c-175 0 -287 84 -295 227l112 11c6 -96 69 -144 188 -144c113 0 170 39 170 118c0 75 -67 115 -191 114l-65 -1v93l66 -1c109 0 164 35 164 104c0 70 -50 105 -151 105
c-112 0 -165 -38 -164 -146l-110 12c-3 149 103 228 272 228c75 0 136 -17 185 -51c49 -35 73 -79 73 -132c0 -77 -54 -135 -155 -162z" />
    <glyph glyph-name="four.osf" horiz-adv-x="655" 
d="M538 90h102v-90h-102v-142h-105v142h-400v98c103 114 156 267 160 460h123c-17 -186 -82 -345 -193 -478l311 9l14 359h90v-358z" />
    <glyph glyph-name="five.osf" horiz-adv-x="643" 
d="M370 325c73 0 132 -21 177 -63c44 -43 66 -99 66 -170c0 -73 -26 -132 -79 -177s-124 -67 -211 -67c-147 0 -261 68 -289 193l105 33c15 -87 77 -131 184 -131c122 0 183 50 183 149c0 97 -53 143 -165 143c-84 0 -144 -33 -179 -98l-98 22l37 399h474v-92h-204l-177 14
l-28 -272c31 77 113 117 204 117z" />
    <glyph glyph-name="six.osf" horiz-adv-x="652" 
d="M378 472c70 0 129 -22 176 -66s70 -101 70 -171c0 -74 -27 -133 -80 -178c-54 -45 -123 -67 -208 -67s-155 23 -208 68s-80 105 -80 179c0 62 21 127 62 195s118 157 230 268h153c-11 -9 -31 -25 -58 -47c-28 -23 -47 -38 -57 -46c-11 -9 -27 -23 -48 -42
c-46 -41 -61 -60 -102 -106c-19 -22 -39 -46 -58 -71c58 56 127 84 208 84zM335 83c123 0 184 50 184 151c0 102 -61 153 -184 153c-122 0 -183 -51 -183 -153c0 -101 61 -151 183 -151z" />
    <glyph glyph-name="seven.osf" horiz-adv-x="547" 
d="M12 466v92h530v-91c-101 -109 -173 -208 -218 -297s-68 -193 -71 -312h-131c10 116 42 222 97 318c54 96 134 193 240 290h-447z" />
    <glyph glyph-name="eight.osf" horiz-adv-x="659" 
d="M425 366c115 -17 193 -80 193 -177c0 -61 -26 -109 -78 -145c-53 -36 -122 -54 -209 -54s-157 18 -210 55c-53 36 -79 85 -79 146c0 95 76 157 191 174c-108 21 -165 78 -165 157c0 57 24 103 72 137s112 51 191 51s142 -17 190 -51c47 -34 71 -80 71 -137
c0 -81 -60 -136 -167 -156zM331 622c-105 0 -158 -35 -158 -106s53 -106 158 -106c104 0 156 35 156 106s-52 106 -156 106zM331 80c119 0 178 40 178 120c0 81 -60 121 -179 121c-120 0 -180 -40 -180 -121c0 -80 60 -120 181 -120z" />
    <glyph glyph-name="nine.osf" horiz-adv-x="652" 
d="M316 568c85 0 155 -23 208 -68s80 -105 80 -179c0 -62 -21 -127 -62 -195s-118 -157 -230 -268h-153c11 9 31 25 59 47c27 23 46 38 57 46c10 9 26 23 48 42c45 41 60 60 101 106c19 22 39 46 58 71c-58 -56 -127 -84 -208 -84c-70 0 -128 22 -175 66s-71 101 -71 171
c0 74 27 133 81 178c53 45 122 67 207 67zM317 171c122 0 183 51 183 153c0 101 -61 151 -183 151c-123 0 -184 -50 -184 -151c0 -102 61 -153 184 -153z" />
    <glyph glyph-name="three.osf.ss05" horiz-adv-x="651" 
d="M353 264c80 0 144 -18 192 -54s72 -85 72 -146c0 -64 -26 -116 -77 -156c-52 -40 -119 -60 -201 -60c-177 0 -292 86 -300 226l114 12c5 -97 65 -142 189 -142c111 0 167 41 167 123c0 83 -61 125 -182 125c-23 0 -58 -6 -105 -17l-45 76l290 221l-157 -6h-245v92h534
v-91l-284 -204c8 1 21 1 38 1z" />
    <glyph glyph-name="three.ss05" horiz-adv-x="650" 
d="M345 406c79 0 143 -18 191 -54s72 -85 72 -146c0 -64 -26 -116 -77 -156c-52 -40 -119 -60 -201 -60c-177 0 -292 86 -300 226l114 12c5 -97 65 -142 189 -142c111 0 167 41 167 123c0 83 -61 125 -182 125c-23 0 -58 -6 -105 -17l-44 76l291 221l-159 -6h-244v92h534
v-91l-284 -204c8 1 21 1 38 1z" />
    <glyph glyph-name="one.ss06" horiz-adv-x="637" 
d="M386 700v-607h223v-93h-567v93h241v539l-201 -139l-53 93l259 114h98z" />
    <glyph glyph-name="zero.tf" 
d="M340 710c83 0 156 -33 217 -98s91 -153 91 -263c0 -109 -30 -196 -91 -261s-134 -98 -217 -98s-154 33 -215 98s-92 152 -92 261c0 110 31 198 92 263s132 98 215 98zM340 83c121 0 200 85 200 266c0 183 -79 268 -200 268s-199 -85 -199 -268c0 -181 79 -266 199 -266z
" />
    <glyph glyph-name="one.tf" 
d="M417 93h223v-93h-581v93h255v539l-201 -139l-53 93l259 114h98v-607z" />
    <glyph glyph-name="two.tf" 
d="M381 201l-211 -109h450v-92h-551v91l255 169c109 72 180 143 180 224c0 87 -54 131 -162 131c-125 0 -182 -64 -162 -207l-113 12c-9 92 11 163 62 214c50 51 121 76 212 76c82 0 148 -20 198 -60c49 -40 74 -93 74 -158c0 -117 -77 -214 -232 -291z" />
    <glyph glyph-name="three.tf" 
d="M438 365c117 -19 183 -86 183 -174c0 -59 -26 -107 -78 -144c-53 -38 -121 -57 -204 -57c-175 0 -287 84 -295 227l112 11c6 -96 69 -144 188 -144c113 0 170 39 170 118c0 75 -67 115 -191 114l-65 -1v93l66 -1c109 0 164 35 164 104c0 70 -50 105 -151 105
c-112 0 -165 -38 -164 -146l-110 12c-3 149 103 228 272 228c75 0 136 -17 185 -51c49 -35 73 -79 73 -132c0 -77 -54 -135 -155 -162z" />
    <glyph glyph-name="four.tf" 
d="M542 265h103v-92h-103v-173h-106v173h-401v98c107 117 156 248 159 429h124c-16 -173 -74 -310 -195 -447l315 11l13 329h91v-328z" />
    <glyph glyph-name="five.tf" 
d="M391 467c73 0 132 -21 177 -63c44 -43 66 -99 66 -170c0 -73 -26 -132 -79 -177s-123 -67 -210 -67c-148 0 -262 68 -290 193l106 33c15 -87 77 -131 184 -131c121 0 182 50 182 149c0 97 -53 143 -165 143c-84 0 -144 -33 -179 -98l-97 22l36 399h474v-92h-204l-176 14
l-27 -269c32 75 113 114 202 114z" />
    <glyph glyph-name="six.tf" 
d="M379 472c70 0 129 -22 176 -66s70 -101 70 -171c0 -74 -27 -133 -80 -178c-54 -45 -123 -67 -208 -67s-154 23 -207 68s-80 105 -80 179c0 62 21 127 62 195s118 157 229 268h154c-10 -9 -29 -24 -58 -47s-49 -39 -58 -46c-9 -8 -25 -22 -47 -41
c-48 -42 -61 -59 -102 -106c-19 -23 -39 -47 -58 -72c57 56 126 84 207 84zM337 83c122 0 183 50 183 151c0 102 -61 153 -183 153c-123 0 -184 -51 -184 -153c0 -101 61 -151 184 -151z" />
    <glyph glyph-name="seven.tf" 
d="M68 700h564v-91c-101 -109 -173 -208 -218 -297s-68 -193 -71 -312h-131c10 116 42 222 97 318c54 96 134 193 240 290h-379v-208h-102v300z" />
    <glyph glyph-name="eight.tf" 
d="M435 366c115 -17 193 -80 193 -177c0 -61 -26 -109 -78 -145c-53 -36 -122 -54 -209 -54s-157 18 -210 55c-53 36 -79 85 -79 146c0 95 76 157 191 174c-108 21 -165 78 -165 157c0 57 24 103 72 137s112 51 191 51s142 -17 190 -51c47 -34 71 -80 71 -137
c0 -81 -60 -136 -167 -156zM341 622c-105 0 -158 -35 -158 -106s53 -106 158 -106c104 0 156 35 156 106s-52 106 -156 106zM341 80c119 0 178 40 178 120c0 81 -60 121 -179 121c-120 0 -180 -40 -180 -121c0 -80 60 -120 181 -120z" />
    <glyph glyph-name="nine.tf" 
d="M136 643c53 45 122 67 207 67s154 -23 207 -68s80 -105 80 -179c0 -62 -21 -127 -62 -195s-118 -157 -229 -268h-154c10 9 30 25 59 48s48 38 57 46c9 7 25 21 48 41c47 41 60 58 101 106c19 22 39 46 58 71c-57 -56 -126 -84 -207 -84c-70 0 -128 22 -175 66
s-71 101 -71 171c0 74 27 133 81 178zM343 313c123 0 184 51 184 153c0 101 -61 151 -184 151c-122 0 -183 -50 -183 -151c0 -102 61 -153 183 -153z" />
    <glyph glyph-name="three.tf.ss05" 
d="M352 406c80 0 144 -18 192 -54s72 -85 72 -146c0 -64 -26 -116 -77 -156c-52 -40 -119 -60 -201 -60c-89 0 -160 20 -214 61c-54 40 -83 95 -86 165l114 12c5 -97 65 -142 189 -142c111 0 167 41 167 123c0 83 -61 125 -183 125c-21 0 -56 -6 -105 -17l-44 76l291 221
l-158 -6h-245v92h534v-91l-284 -204c8 1 21 1 38 1z" />
    <glyph glyph-name="zero.tosf" 
d="M340 568c176 0 281 -105 281 -289c0 -183 -105 -289 -281 -289s-280 106 -280 289c0 184 105 289 280 289zM206 129c25 -30 70 -45 134 -45s109 15 135 45c25 29 38 79 38 150c0 143 -45 195 -173 195s-172 -52 -172 -195c0 -71 13 -121 38 -150z" />
    <glyph glyph-name="one.tosf" 
d="M406 558v-466h213v-92h-547v92h230v394l-209 -155l-49 101l263 126h99z" />
    <glyph glyph-name="two.tosf" 
d="M389 167l-186 -75h401v-92h-519v88l232 124c99 53 155 98 155 162c0 68 -40 101 -129 101c-104 0 -150 -53 -137 -158l-112 15c-5 73 15 131 62 173c46 42 108 63 187 63c147 0 240 -74 240 -186c0 -92 -65 -164 -194 -215z" />
    <glyph glyph-name="three.tosf" 
d="M446 223c117 -19 183 -86 183 -174c0 -59 -26 -107 -78 -145c-53 -37 -121 -56 -204 -56c-175 0 -287 84 -295 227l112 11c6 -96 68 -144 187 -144c114 0 171 39 171 118c0 75 -68 115 -192 114l-64 -1v93l66 -1c109 0 164 35 164 104c0 70 -50 105 -151 105
c-112 0 -166 -38 -165 -146l-110 12c-1 149 104 228 273 228c75 0 136 -17 185 -51c49 -35 73 -79 73 -132c0 -77 -54 -135 -155 -162z" />
    <glyph glyph-name="four.tosf" 
d="M530 92h111v-92h-111v-142h-104v142h-386v98c111 111 169 264 174 460h122c-20 -189 -87 -349 -202 -478l293 10l13 358h90v-356z" />
    <glyph glyph-name="five.tosf" 
d="M391 325c73 0 132 -21 177 -63c44 -43 66 -99 66 -170c0 -73 -26 -132 -79 -177s-123 -67 -210 -67c-148 0 -262 68 -290 193l106 33c15 -87 77 -131 184 -131c121 0 182 50 182 149c0 97 -53 143 -165 143c-84 0 -144 -33 -179 -98l-97 22l36 399h474v-92h-204l-176 14
l-27 -269c32 75 113 114 202 114z" />
    <glyph glyph-name="six.tosf" 
d="M379 472c70 0 129 -22 176 -66s70 -101 70 -171c0 -74 -27 -133 -80 -178c-54 -45 -123 -67 -208 -67s-154 23 -207 68s-80 105 -80 179c0 62 21 127 62 195s118 157 229 268h154c-10 -9 -29 -24 -58 -47s-49 -39 -58 -46c-9 -8 -25 -22 -47 -41
c-48 -42 -61 -59 -102 -106c-19 -23 -39 -47 -58 -72c57 56 126 84 207 84zM337 83c122 0 183 50 183 151c0 102 -61 153 -183 153c-123 0 -184 -51 -184 -153c0 -101 61 -151 184 -151z" />
    <glyph glyph-name="seven.tosf" 
d="M68 558h564v-91c-101 -109 -173 -208 -218 -297s-68 -193 -71 -312h-131c10 116 42 222 97 318c54 96 134 193 240 290h-379v-208h-102v300z" />
    <glyph glyph-name="eight.tosf" 
d="M435 366c115 -17 193 -80 193 -177c0 -61 -26 -109 -78 -145c-53 -36 -122 -54 -209 -54s-157 18 -210 55c-53 36 -79 85 -79 146c0 95 76 157 191 174c-108 21 -165 78 -165 157c0 57 24 103 72 137s112 51 191 51s142 -17 190 -51c47 -34 71 -80 71 -137
c0 -81 -60 -136 -167 -156zM341 622c-105 0 -158 -35 -158 -106s53 -106 158 -106c104 0 156 35 156 106s-52 106 -156 106zM341 80c119 0 178 40 178 120c0 81 -60 121 -179 121c-120 0 -180 -40 -180 -121c0 -80 60 -120 181 -120z" />
    <glyph glyph-name="nine.tosf" 
d="M136 511c53 45 122 67 207 67s154 -23 207 -68s80 -105 80 -179c0 -62 -21 -127 -62 -195s-118 -157 -229 -268h-154c10 9 30 24 59 47s48 39 57 46c9 8 25 22 48 42c47 41 60 58 101 106c19 22 39 46 58 71c-57 -56 -126 -84 -207 -84c-70 0 -128 22 -175 66
s-71 101 -71 171c0 74 27 133 81 178zM343 181c123 0 184 51 184 153c0 101 -61 151 -184 151c-122 0 -183 -50 -183 -151c0 -102 61 -153 183 -153z" />
    <glyph glyph-name="three.tosf.ss05" 
d="M352 265c80 0 144 -18 192 -54s72 -85 72 -146c0 -64 -26 -116 -77 -156c-52 -40 -119 -60 -201 -60c-89 0 -160 20 -214 60c-54 41 -83 96 -86 166l114 12c5 -97 65 -142 189 -142c111 0 167 41 167 123c0 83 -61 125 -183 125c-21 0 -56 -6 -105 -17l-44 76l291 221
l-158 -6h-245v92h534v-91l-284 -204c8 1 21 1 38 1z" />
    <glyph glyph-name="zero.zero" horiz-adv-x="670" 
d="M334 710c192 0 308 -132 308 -361c0 -228 -116 -359 -308 -359c-95 0 -169 31 -224 94s-82 151 -82 265c0 115 27 204 82 267s129 94 224 94zM334 617c-75 0 -127 -19 -155 -56c-28 -38 -42 -109 -42 -212c0 -79 7 -136 22 -173l145 185l154 230c-27 17 -69 26 -124 26z
M334 83c77 0 129 19 157 56s42 107 42 210c0 78 -8 137 -23 176l-151 -194l-148 -222c29 -17 70 -26 123 -26z" />
    <glyph glyph-name="zero.zero.osf" horiz-adv-x="618" 
d="M308 568c176 0 282 -105 282 -289c0 -183 -106 -289 -282 -289c-175 0 -280 106 -280 289c0 184 105 289 280 289zM308 474c-127 0 -171 -52 -171 -195c0 -65 10 -112 31 -142l117 155l108 170c-23 8 -52 12 -85 12zM308 84c128 0 173 54 173 195c0 63 -10 109 -29 138
l-120 -162l-103 -161c21 -7 47 -10 79 -10z" />
    <glyph glyph-name="zero.zero.tf" 
d="M340 710c83 0 156 -33 217 -98s91 -153 91 -263c0 -109 -30 -196 -91 -261s-134 -98 -217 -98s-154 33 -215 98s-92 152 -92 261c0 110 31 198 92 263s132 98 215 98zM340 617c-121 0 -199 -85 -199 -268c0 -65 10 -119 30 -162l131 174l146 226c-29 20 -65 30 -108 30z
M340 83c121 0 200 85 200 266c0 71 -12 128 -35 173l-146 -193l-133 -211c31 -23 69 -35 114 -35z" />
    <glyph glyph-name="zero.zero.tosf" 
d="M340 568c176 0 281 -105 281 -289c0 -183 -105 -289 -281 -289s-280 106 -280 289c0 184 105 289 280 289zM340 474c-128 0 -172 -52 -172 -195c0 -62 9 -107 28 -136l115 147l117 171c-23 9 -53 13 -88 13zM340 84c128 0 173 54 173 195c0 61 -9 106 -27 135l-118 -150
l-115 -167c22 -9 51 -13 87 -13z" />
    <glyph glyph-name="zero.dnom" horiz-adv-x="416" 
d="M76 345c31 35 75 53 131 53s100 -18 133 -53c32 -35 48 -85 48 -148c0 -128 -68 -203 -181 -203c-112 0 -179 75 -179 203c0 63 16 113 48 148zM207 62c77 0 103 32 103 135c0 101 -26 133 -103 133c-76 0 -101 -32 -101 -133c0 -104 25 -135 101 -135z" />
    <glyph glyph-name="one.dnom" horiz-adv-x="329" 
d="M4 323l166 69h77v-392h-78v346l-134 -86z" />
    <glyph glyph-name="two.dnom" horiz-adv-x="386" 
d="M205 110l-93 -44h258v-66h-339v60l125 77c32 20 46 29 75 53s44 50 44 77c0 41 -28 62 -84 62c-63 0 -98 -33 -81 -101l-80 10c-10 51 1 90 34 118c32 28 75 42 128 42c97 0 165 -51 165 -128c0 -75 -55 -115 -152 -160z" />
    <glyph glyph-name="three.dnom" horiz-adv-x="394" 
d="M260 200c69 -11 107 -45 107 -96c0 -67 -66 -110 -167 -110c-108 0 -174 49 -173 134l80 10c-4 -53 26 -77 94 -77c59 0 89 18 89 54c0 32 -34 54 -85 54l-47 -1v61l48 -1c44 0 73 20 73 51c0 35 -26 53 -78 53c-65 0 -94 -24 -87 -77l-76 10c-8 84 62 132 163 132
c93 0 155 -42 155 -106c0 -49 -32 -79 -96 -91z" />
    <glyph glyph-name="four.dnom" horiz-adv-x="399" 
d="M313 150h68v-61h-68v-89h-70v89h-230v69c61 55 93 133 98 234h82c-12 -109 -54 -192 -126 -249l178 6l9 187h59v-186z" />
    <glyph glyph-name="five.dnom" horiz-adv-x="396" 
d="M230 263c81 0 140 -49 140 -128c0 -84 -72 -141 -172 -141c-87 0 -157 40 -176 107l79 25c13 -43 47 -64 102 -64c63 0 95 24 95 73c0 47 -30 71 -90 71c-40 0 -71 -16 -94 -48l-68 21l18 213h292v-67h-109l-121 9l-13 -139c19 45 58 68 117 68z" />
    <glyph glyph-name="six.dnom" horiz-adv-x="376" 
d="M217 261c40 0 74 -12 103 -35c28 -23 42 -54 42 -92c0 -41 -16 -74 -49 -101s-75 -40 -125 -40c-99 0 -169 59 -169 142c0 72 46 148 174 255h108c-9 -7 -26 -19 -51 -37c-26 -19 -45 -33 -58 -44c-26 -21 -71 -67 -102 -112c35 43 78 64 127 64zM98 129
c0 -47 31 -70 92 -70s92 24 92 72c0 47 -30 71 -89 71c-63 0 -95 -24 -95 -73z" />
    <glyph glyph-name="seven.dnom" horiz-adv-x="350" 
d="M16 323v69h323v-59c-109 -108 -162 -219 -159 -333h-95c20 119 78 216 189 323h-258z" />
    <glyph glyph-name="eight.dnom" horiz-adv-x="402" 
d="M258 202c67 -9 121 -40 121 -100c0 -68 -66 -108 -177 -108s-179 40 -179 111c0 55 42 87 127 97c-73 9 -111 43 -111 91c0 67 63 105 162 105c100 0 163 -40 163 -104c0 -48 -39 -83 -106 -92zM116 283c0 -35 29 -52 86 -52c58 0 87 17 87 52c0 37 -29 56 -87 56
c-57 0 -86 -19 -86 -56zM201 56c63 0 94 19 94 56s-31 55 -94 55c-62 0 -93 -18 -93 -54c0 -38 31 -57 93 -57z" />
    <glyph glyph-name="nine.dnom" horiz-adv-x="376" 
d="M188 397c99 0 169 -59 169 -142c0 -72 -46 -148 -174 -255h-108c9 7 26 19 52 38c25 18 45 32 58 43c26 21 70 67 101 112c-35 -43 -78 -64 -127 -64c-40 0 -74 12 -102 35c-29 23 -43 54 -43 92c0 41 17 74 50 101s74 40 124 40zM183 188c63 0 95 24 95 73
c0 47 -31 70 -92 70s-92 -24 -92 -72c0 -47 30 -71 89 -71z" />
    <glyph glyph-name="zero.numr" horiz-adv-x="416" 
d="M76 657c31 35 75 53 131 53s100 -18 133 -53c32 -35 48 -85 48 -148c0 -128 -68 -203 -181 -203c-112 0 -179 75 -179 203c0 63 16 113 48 148zM207 374c77 0 103 32 103 135c0 101 -26 133 -103 133c-76 0 -101 -32 -101 -133c0 -104 25 -135 101 -135z" />
    <glyph glyph-name="one.numr" horiz-adv-x="329" 
d="M4 631l166 69h77v-392h-78v346l-134 -86z" />
    <glyph glyph-name="two.numr" horiz-adv-x="386" 
d="M205 419l-93 -44h258v-66h-339v60l125 77c32 20 46 29 75 53s44 50 44 77c0 41 -28 62 -84 62c-63 0 -98 -33 -81 -101l-80 10c-10 51 1 90 34 118c32 28 75 42 128 42c97 0 165 -51 165 -128c0 -75 -55 -115 -152 -160z" />
    <glyph glyph-name="three.numr" horiz-adv-x="394" 
d="M260 509c69 -11 107 -45 107 -96c0 -67 -66 -110 -167 -110c-108 0 -174 49 -173 134l80 10c-4 -53 26 -77 94 -77c59 0 89 18 89 54c0 32 -34 54 -85 54l-47 -1v61l48 -1c44 0 73 20 73 51c0 35 -26 53 -78 53c-65 0 -94 -24 -87 -77l-76 10c-8 84 62 132 163 132
c93 0 155 -42 155 -106c0 -49 -32 -79 -96 -91z" />
    <glyph glyph-name="four.numr" horiz-adv-x="399" 
d="M313 458h68v-61h-68v-89h-70v89h-230v69c61 55 93 133 98 234h82c-12 -109 -54 -192 -126 -249l178 6l9 187h59v-186z" />
    <glyph glyph-name="five.numr" horiz-adv-x="396" 
d="M230 571c81 0 140 -49 140 -128c0 -84 -72 -141 -172 -141c-87 0 -157 40 -176 107l79 25c13 -43 47 -64 102 -64c63 0 95 24 95 73c0 47 -30 71 -90 71c-40 0 -71 -16 -94 -48l-68 21l18 213h292v-67h-109l-121 9l-13 -139c19 45 58 68 117 68z" />
    <glyph glyph-name="six.numr" horiz-adv-x="376" 
d="M217 571c40 0 74 -12 103 -35c28 -23 42 -54 42 -92c0 -41 -16 -74 -49 -101s-75 -40 -125 -40c-99 0 -169 59 -169 142c0 72 46 148 174 255h108c-9 -7 -26 -19 -51 -37c-26 -19 -45 -33 -58 -44c-26 -21 -71 -67 -102 -112c35 43 78 64 127 64zM98 439
c0 -47 31 -70 92 -70s92 24 92 72c0 47 -30 71 -89 71c-63 0 -95 -24 -95 -73z" />
    <glyph glyph-name="seven.numr" horiz-adv-x="350" 
d="M16 631v69h323v-59c-109 -108 -162 -219 -159 -333h-95c20 119 78 216 189 323h-258z" />
    <glyph glyph-name="eight.numr" horiz-adv-x="402" 
d="M258 509c67 -9 121 -40 121 -100c0 -68 -66 -108 -177 -108s-179 40 -179 111c0 55 42 87 127 97c-73 9 -111 43 -111 91c0 67 63 105 162 105c100 0 163 -40 163 -104c0 -48 -39 -83 -106 -92zM116 590c0 -35 29 -52 86 -52c58 0 87 17 87 52c0 37 -29 56 -87 56
c-57 0 -86 -19 -86 -56zM201 363c63 0 94 19 94 56s-31 55 -94 55c-62 0 -93 -18 -93 -54c0 -38 31 -57 93 -57z" />
    <glyph glyph-name="nine.numr" horiz-adv-x="376" 
d="M188 706c99 0 169 -59 169 -142c0 -72 -46 -148 -174 -255h-108c9 7 26 19 52 38c25 18 45 32 58 43c26 21 70 67 101 112c-35 -43 -78 -64 -127 -64c-40 0 -74 12 -102 35c-29 23 -43 54 -43 92c0 41 17 74 50 101s74 40 124 40zM183 497c63 0 95 24 95 73
c0 47 -31 70 -92 70s-92 -24 -92 -72c0 -47 30 -71 89 -71z" />
    <glyph glyph-name="uni2083.ss05" horiz-adv-x="390" 
d="M353 223l-142 -99c92 -3 153 -46 153 -114c0 -76 -68 -127 -168 -127c-92 0 -163 45 -171 121l78 16c4 -47 36 -70 97 -70c60 0 90 21 90 62c0 36 -39 59 -98 59c-17 0 -40 -4 -69 -11l-25 47l161 117l-89 -8h-136v65h319v-58z" />
    <glyph glyph-name="three.dnom.ss05" horiz-adv-x="390" 
d="M353 334l-142 -99c92 -3 153 -46 153 -114c0 -76 -68 -127 -168 -127c-92 0 -163 45 -171 121l78 16c4 -47 36 -70 97 -70c60 0 90 21 90 62c0 36 -39 59 -98 59c-17 0 -40 -4 -69 -11l-25 47l161 117l-89 -8h-136v65h319v-58z" />
    <glyph glyph-name="three.numr.ss05" horiz-adv-x="390" 
d="M353 642l-142 -99c92 -3 153 -46 153 -114c0 -76 -68 -127 -168 -127c-92 0 -163 45 -171 121l78 16c4 -47 36 -70 97 -70c60 0 90 21 90 62c0 36 -39 59 -98 59c-17 0 -40 -4 -69 -11l-25 47l161 117l-89 -8h-136v65h319v-58z" />
    <glyph glyph-name="uni00B3.ss05" horiz-adv-x="390" 
d="M353 739l-142 -99c92 -3 153 -46 153 -114c0 -76 -68 -127 -168 -127c-92 0 -163 45 -171 121l78 16c4 -47 36 -70 97 -70c60 0 90 21 90 62c0 36 -39 59 -98 59c-17 0 -40 -4 -69 -11l-25 47l161 117l-89 -8h-136v65h319v-58z" />
    <glyph glyph-name="threequarters.ss05" horiz-adv-x="887" 
d="M364 429c0 -76 -68 -127 -168 -127c-92 0 -163 45 -171 121l78 16c4 -47 36 -70 97 -70c60 0 90 21 90 62c0 36 -39 59 -98 59c-17 0 -40 -4 -69 -11l-25 47l161 117l-89 -8h-136v65h319v-58l-142 -99c92 -3 153 -46 153 -114zM420 357l240 343h91l-266 -351l-247 -349
h-91zM801 150h68v-61h-68v-89h-70v89h-230v69c61 55 93 133 98 234h82c-12 -109 -54 -192 -126 -249l178 6l9 187h59v-186z" />
    <glyph glyph-name="threeeighths.ss05" horiz-adv-x="920" 
d="M364 429c0 -76 -68 -127 -168 -127c-92 0 -163 45 -171 121l78 16c4 -47 36 -70 97 -70c60 0 90 21 90 62c0 36 -39 59 -98 59c-17 0 -40 -4 -69 -11l-25 47l161 117l-89 -8h-136v65h319v-58l-142 -99c92 -3 153 -46 153 -114zM420 357l240 343h91l-266 -351l-247 -349
h-91zM776 202c67 -9 121 -40 121 -100c0 -68 -66 -108 -177 -108s-179 40 -179 111c0 55 42 87 127 97c-73 9 -111 43 -111 91c0 67 63 105 162 105c100 0 163 -40 163 -104c0 -48 -39 -83 -106 -92zM634 283c0 -35 29 -52 86 -52c58 0 87 17 87 52c0 37 -29 56 -87 56
c-57 0 -86 -19 -86 -56zM719 56c63 0 94 19 94 56s-31 55 -94 55c-62 0 -93 -18 -93 -54c0 -38 31 -57 93 -57z" />
    <glyph glyph-name="uni2081.ss06" horiz-adv-x="349" 
d="M229 280v-326h117v-66h-322v66h126v272l-116 -78l-30 63l148 69h77z" />
    <glyph glyph-name="one.dnom.ss06" horiz-adv-x="349" 
d="M229 392v-326h117v-66h-322v66h126v272l-116 -78l-30 63l148 69h77z" />
    <glyph glyph-name="one.numr.ss06" horiz-adv-x="349" 
d="M229 700v-326h117v-66h-322v66h126v272l-116 -78l-30 63l148 69h77z" />
    <glyph glyph-name="uni00B9.ss06" horiz-adv-x="349" 
d="M229 797v-326h117v-66h-322v66h126v272l-116 -78l-30 63l148 69h77z" />
    <glyph glyph-name="onehalf.ss06" horiz-adv-x="913" 
d="M346 374v-66h-322v66h126v272l-116 -78l-30 63l148 69h77v-326h117zM432 357l240 343h91l-266 -351l-247 -349h-91zM732 110l-93 -44h258v-66h-339v60l125 77c32 20 46 29 75 53s44 50 44 77c0 41 -28 62 -84 62c-63 0 -98 -33 -81 -101l-80 10c-10 51 1 90 34 118
c32 28 75 42 128 42c97 0 165 -51 165 -128c0 -75 -55 -115 -152 -160z" />
    <glyph glyph-name="onequarter.ss06" horiz-adv-x="899" 
d="M346 374v-66h-322v66h126v272l-116 -78l-30 63l148 69h77v-326h117zM432 357l240 343h91l-266 -351l-247 -349h-91zM813 150h68v-61h-68v-89h-70v89h-230v69c61 55 93 133 98 234h82c-12 -109 -54 -192 -126 -249l178 6l9 187h59v-186z" />
    <glyph glyph-name="oneeighth.ss06" horiz-adv-x="932" 
d="M346 374v-66h-322v66h126v272l-116 -78l-30 63l148 69h77v-326h117zM432 357l240 343h91l-266 -351l-247 -349h-91zM788 202c67 -9 121 -40 121 -100c0 -68 -66 -108 -177 -108s-179 40 -179 111c0 55 42 87 127 97c-73 9 -111 43 -111 91c0 67 63 105 162 105
c100 0 163 -40 163 -104c0 -48 -39 -83 -106 -92zM646 283c0 -35 29 -52 86 -52c58 0 87 17 87 52c0 37 -29 56 -87 56c-57 0 -86 -19 -86 -56zM731 56c63 0 94 19 94 56s-31 55 -94 55c-62 0 -93 -18 -93 -54c0 -38 31 -57 93 -57z" />
    <glyph glyph-name="exclamdown.case" horiz-adv-x="293" 
d="M148 705c47 0 73 -26 72 -71c-1 -47 -25 -70 -72 -70s-72 25 -71 70c0 45 26 71 71 71zM204 0h-115l8 274l20 202h59l20 -202z" />
    <glyph glyph-name="questiondown.case" horiz-adv-x="594" 
d="M322 705c46 0 70 -24 71 -71c1 -45 -24 -70 -71 -70s-72 25 -72 70c-1 45 25 71 72 71zM461 225l103 -14c-2 -158 -118 -224 -265 -221c-75 0 -137 19 -184 56c-48 37 -72 85 -72 144c0 61 29 111 80 144c51 32 93 48 153 65v78h91v-34c0 -134 -220 -112 -220 -245
c0 -73 52 -110 155 -110c107 0 160 37 159 137z" />
    <glyph glyph-name="slash.case" horiz-adv-x="460" 
d="M105 0h-103l192 375l160 325h103l-181 -353z" />
    <glyph glyph-name="backslash.case" horiz-adv-x="414" 
d="M245 375l192 -375h-103l-171 347l-181 353h103z" />
    <glyph glyph-name="parenleft.case" horiz-adv-x="385" 
d="M319 -47h-91c-103 115 -155 248 -155 398s50 281 151 392h92c-94 -114 -141 -245 -141 -392s48 -279 144 -398z" />
    <glyph glyph-name="parenright.case" horiz-adv-x="385" 
d="M157 -47h-91c96 119 144 251 144 398s-47 278 -141 392h92c101 -111 151 -242 151 -392s-52 -283 -155 -398z" />
    <glyph glyph-name="braceleft.case" horiz-adv-x="401" 
d="M227 661v-178c0 -77 -30 -116 -107 -135c77 -19 107 -58 107 -135v-177h141v-83h-118c-67 0 -114 44 -114 111v179c0 37 -34 67 -77 64l-38 -3v88l38 -3c43 -3 77 27 77 64v179c0 67 47 111 114 111h118v-82h-141z" />
    <glyph glyph-name="braceright.case" horiz-adv-x="401" 
d="M342 389l38 3v-88l-38 3c-43 3 -77 -27 -77 -64v-179c0 -67 -47 -111 -114 -111h-118v83h141v177c0 77 30 116 107 135c-77 19 -107 58 -107 135v178h-141v82h118c67 0 114 -44 114 -111v-179c0 -37 34 -67 77 -64z" />
    <glyph glyph-name="bracketleft.case" horiz-adv-x="334" 
d="M301 743v-82h-156v-625h156v-83h-248v790h248z" />
    <glyph glyph-name="bracketright.case" horiz-adv-x="334" 
d="M189 661h-156v82h248v-790h-248v83h156v625z" />
    <glyph glyph-name="hyphen.case" horiz-adv-x="429" 
d="M63 318v89h303v-89h-303z" />
    <glyph glyph-name="endash.case" horiz-adv-x="608" 
d="M63 318v89h482v-89h-482z" />
    <glyph glyph-name="emdash.case" horiz-adv-x="1003" 
d="M63 318v89h877v-89h-877z" />
    <glyph glyph-name="guillemotleft.case" horiz-adv-x="542" 
d="M178 532h110l-166 -183l166 -182h-110l-126 182zM371 532h110l-166 -183l166 -182h-110l-127 182z" />
    <glyph glyph-name="guillemotright.case" horiz-adv-x="542" 
d="M227 349l-166 183h110l127 -183l-127 -182h-110zM420 349l-166 183h110l126 -183l-126 -182h-110z" />
    <glyph glyph-name="guilsinglleft.case" horiz-adv-x="349" 
d="M178 532h110l-166 -183l166 -182h-110l-126 182z" />
    <glyph glyph-name="guilsinglright.case" horiz-adv-x="349" 
d="M227 349l-166 183h110l127 -183l-127 -182h-110z" />
    <glyph glyph-name="uni20BF.tf" 
d="M464 360c115 -16 166 -78 166 -163c0 -59 -18 -107 -54 -143s-83 -54 -141 -54h-4l4 -140h-75l4 140h-78l4 -140h-75l4 140h-152v700h152l-5 137h76l-4 -137h78l-5 137h76l-4 -138c108 -5 175 -75 175 -175c0 -87 -47 -142 -142 -164zM396 608h-222v-208h218
c67 0 101 36 101 109c0 66 -32 99 -97 99zM174 92h235c72 0 108 39 108 116c0 69 -39 103 -116 103h-227v-219z" />
    <glyph glyph-name="cent.tf" 
d="M377 247l5 -164c88 4 128 36 145 121l101 -25c-29 -118 -110 -181 -243 -188l3 -118h-81l4 119c-151 17 -239 111 -239 248s90 232 239 248l-4 126h81l-4 -125c134 -7 215 -70 244 -188l-101 -25c-17 85 -57 117 -145 121zM208 350c-22 -25 -33 -62 -33 -110
s11 -85 33 -110s57 -41 106 -46l5 163l-5 149c-49 -5 -84 -21 -106 -46z" />
    <glyph glyph-name="dollar.tf" horiz-adv-x="690" 
d="M653 204c0 -123 -103 -206 -270 -213l3 -131h-84l4 132c-159 13 -248 87 -269 221l108 31c11 -108 64 -152 163 -161l6 224l-51 9c-60 9 -118 27 -160 68c-25 27 -44 69 -44 124c0 56 22 102 67 139c45 36 104 57 179 62l-4 128h85l-3 -129c160 -11 252 -90 257 -222
l-101 -30c0 112 -52 154 -159 162l-6 -219l67 -11c64 -11 107 -23 149 -50c42 -28 63 -73 63 -134zM201 592c-21 -15 -32 -41 -32 -76s10 -60 31 -73s54 -24 101 -31l12 -2l-6 208c-50 -2 -85 -11 -106 -26zM374 297l6 -216c120 3 163 29 163 108c0 36 -10 60 -29 72
c-19 11 -59 22 -119 32z" />
    <glyph glyph-name="Euro.tf" 
d="M422 80c83 0 123 27 162 87l78 -59c-51 -73 -143 -118 -240 -118c-156 0 -262 93 -297 248h-102v72h91c-1 9 -1 23 -1 42c0 11 1 25 2 44h-92v71h102c36 152 141 243 297 243c95 0 189 -45 240 -117l-78 -59c-39 59 -78 86 -162 86c-103 0 -166 -51 -189 -153h238v-71
h-248c-1 -15 -1 -71 0 -86h248v-72h-238c23 -105 86 -158 189 -158z" />
    <glyph glyph-name="uni20A8.tf" 
d="M63 700h593v-75h-185c27 -27 44 -58 51 -93h134v-73h-132c-15 -88 -83 -151 -192 -172l48 -54l162 -233h-128l-171 279h-180v92h204c87 0 137 29 149 88h-353v73h350c-16 50 -65 75 -146 75h-204v93z" />
    <glyph glyph-name="sterling.tf" 
d="M482 271h-234l-24 -174h420v-97h-607v70l111 20v181h-111v91h111v105c0 80 25 141 76 182c50 41 114 61 193 61c63 0 117 -16 164 -47s76 -75 88 -131l-97 -34c-9 81 -57 115 -154 115c-116 0 -164 -52 -164 -152v-99h228v-91z" />
    <glyph glyph-name="yen.tf" 
d="M543 700h123l-237 -355h166v-76h-202v-82h202v-76h-202v-111h-105v111h-193v76h193v82h-193v76h156l-238 355h122l204 -316z" />
    <glyph glyph-name="at.case" horiz-adv-x="1008" 
d="M618 451v83h85v-253c0 -43 24 -69 64 -69c36 0 65 16 86 48c21 31 32 70 32 116c0 102 -31 184 -92 246c-62 61 -153 92 -273 92c-125 0 -222 -34 -290 -101c-69 -68 -103 -157 -103 -268c0 -109 35 -196 104 -262c69 -67 167 -100 295 -100c67 0 125 9 173 27
s98 47 149 86l33 -53c-110 -79 -227 -118 -352 -118c-137 0 -250 40 -339 120c-89 79 -133 179 -133 300c0 122 44 223 132 304c87 81 197 121 330 121c123 0 226 -37 309 -111c82 -74 123 -167 123 -279c0 -68 -17 -123 -52 -165c-35 -43 -82 -64 -141 -64
c-75 0 -118 36 -129 107c-17 -69 -80 -108 -155 -108c-59 0 -106 18 -142 55c-37 36 -55 83 -55 142c0 58 18 105 55 141s84 54 143 54c64 0 126 -34 143 -91zM495 227c84 0 126 40 126 120c0 81 -42 121 -127 121s-128 -40 -128 -120c0 -81 43 -121 129 -121z" />
    <glyph glyph-name="caroncomb.alt" horiz-adv-x="0" 
d="M-144 457h-59v243h110z" />
    <glyph glyph-name="uni0308.case" horiz-adv-x="0" 
d="M-410 779c-45 0 -69 23 -70 69c-1 43 25 66 70 66s69 -22 70 -66s-25 -69 -70 -69zM-192 779c-46 0 -70 23 -71 69c0 44 24 66 71 66c46 0 69 -22 69 -66c1 -44 -24 -69 -69 -69z" />
    <glyph glyph-name="uni0307.case" horiz-adv-x="0" 
d="M-300 779c-45 0 -69 23 -70 69c-1 43 25 66 70 66s69 -22 70 -66s-25 -69 -70 -69z" />
    <glyph glyph-name="gravecomb.case" horiz-adv-x="0" 
d="M-319 760l-155 167h152l65 -167h-62z" />
    <glyph glyph-name="acutecomb.case" horiz-adv-x="0" 
d="M-278 927h152l-155 -167h-62z" />
    <glyph glyph-name="uni030B.case" horiz-adv-x="0" 
d="M-350 927h152l-155 -167h-62zM-192 927h152l-156 -167h-61z" />
    <glyph glyph-name="uni0302.case" horiz-adv-x="0" 
d="M-256 927l117 -167h-66l-94 80l-95 -80h-66l117 167h87z" />
    <glyph glyph-name="uni030C.case" horiz-adv-x="0" 
d="M-299 847l94 80h66l-117 -167h-87l-117 167h66z" />
    <glyph glyph-name="uni0306.case" horiz-adv-x="0" 
d="M-302 765c-87 0 -148 58 -149 143h89c0 -51 16 -69 60 -69c47 0 64 18 65 69h88c-1 -85 -64 -143 -153 -143z" />
    <glyph glyph-name="uni030A.case" horiz-adv-x="0" 
d="M-217 778c-21 -20 -48 -30 -83 -30s-63 10 -84 30s-31 46 -31 78c0 65 46 108 115 108s115 -43 115 -108c0 -32 -11 -58 -32 -78zM-335 822c7 -7 18 -10 35 -10s28 3 35 10s10 18 10 34c0 33 -12 44 -45 44s-44 -11 -44 -44c0 -16 3 -27 9 -34z" />
    <glyph glyph-name="tildecomb.case" horiz-adv-x="0" 
d="M-225 742c-74 0 -110 77 -150 77c-19 0 -24 -17 -24 -58h-53c0 105 21 138 77 138c67 3 120 -81 151 -78c16 0 24 19 24 58h53c0 -97 -25 -137 -78 -137z" />
    <glyph glyph-name="uni0304.case" horiz-adv-x="0" 
d="M-440 785v75h280v-75h-280z" />
    </font>
</defs>
</svg>
